<svg xmlns="http://www.w3.org/2000/svg" style="display: none;">
    <symbol id="amazonaws" role="img" viewBox="0 0 24 24">
        <title>Amazon AWS</title>
        <path
            d="M6.763 10.036c0 .296.032.535.088.71.064.176.144.368.256.576.04.063.056.127.056.183 0 .08-.048.16-.152.24l-.503.335a.383.383 0 0 1-.208.072c-.08 0-.16-.04-.239-.112a2.47 2.47 0 0 1-.287-.375 6.18 6.18 0 0 1-.248-.471c-.622.734-1.405 1.101-2.347 1.101-.67 0-1.205-.191-1.596-.574-.391-.384-.59-.894-.59-1.533 0-.678.239-1.23.726-1.644.487-.415 1.133-.623 1.955-.623.272 0 .551.024.846.064.296.04.6.104.918.176v-.583c0-.607-.127-1.03-.375-1.277-.255-.248-.686-.367-1.3-.367-.28 0-.568.031-.863.103-.295.072-.583.16-.862.272a2.287 2.287 0 0 1-.28.104.488.488 0 0 1-.127.023c-.112 0-.168-.08-.168-.247v-.391c0-.128.016-.224.056-.28a.597.597 0 0 1 .224-.167c.279-.144.614-.264 1.005-.36a4.84 4.84 0 0 1 1.246-.151c.95 0 1.644.216 2.091.647.439.43.662 1.085.662 1.963v2.586zm-3.24 1.214c.263 0 .534-.048.822-.144.287-.096.543-.271.758-.51.128-.152.224-.32.272-.512.047-.191.08-.423.08-.694v-.335a6.66 6.66 0 0 0-.735-.136 6.02 6.02 0 0 0-.75-.048c-.535 0-.926.104-1.19.32-.263.215-.39.518-.39.917 0 .375.095.655.295.846.191.2.47.296.838.296zm6.41.862c-.144 0-.24-.024-.304-.08-.064-.048-.12-.16-.168-.311L7.586 5.55a1.398 1.398 0 0 1-.072-.32c0-.128.064-.2.191-.2h.783c.151 0 .255.025.31.08.065.048.113.16.16.312l1.342 5.284 1.245-5.284c.04-.16.088-.264.151-.312a.549.549 0 0 1 .32-.08h.638c.152 0 .256.025.32.08.063.048.12.16.151.312l1.261 5.348 1.381-5.348c.048-.16.104-.264.16-.312a.52.52 0 0 1 .311-.08h.743c.127 0 .2.065.2.2 0 .04-.009.08-.017.128a1.137 1.137 0 0 1-.056.2l-1.923 6.17c-.048.16-.104.263-.168.311a.51.51 0 0 1-.303.08h-.687c-.151 0-.255-.024-.32-.08-.063-.056-.119-.16-.15-.32l-1.238-5.148-1.23 5.14c-.04.16-.087.264-.15.32-.065.056-.177.08-.32.08zm10.256.215c-.415 0-.83-.048-1.229-.143-.399-.096-.71-.2-.918-.32-.128-.071-.215-.151-.247-.223a.563.563 0 0 1-.048-.224v-.407c0-.167.064-.247.183-.247.048 0 .096.008.144.024.048.016.12.048.2.08.271.12.566.215.878.279.319.064.63.096.95.096.502 0 .894-.088 1.165-.264a.86.86 0 0 0 .415-.758.777.777 0 0 0-.215-.559c-.144-.151-.416-.287-.807-.415l-1.157-.36c-.583-.183-1.014-.454-1.277-.813a1.902 1.902 0 0 1-.4-1.158c0-.335.073-.63.216-.886.144-.255.335-.479.575-.654.24-.184.51-.32.83-.415.32-.096.655-.136 1.006-.136.175 0 .359.008.535.032.183.024.35.056.518.088.16.04.312.08.455.127.144.048.256.096.336.144a.69.69 0 0 1 .24.2.43.43 0 0 1 .071.263v.375c0 .168-.064.256-.184.256a.83.83 0 0 1-.303-.096 3.652 3.652 0 0 0-1.532-.311c-.455 0-.815.071-1.062.223-.248.152-.375.383-.375.71 0 .224.08.416.24.567.159.152.454.304.877.44l1.134.358c.574.184.99.44 1.237.767.247.327.367.702.367 1.117 0 .343-.072.655-.207.926-.144.272-.336.511-.583.703-.248.2-.543.343-.886.447-.36.111-.734.167-1.142.167zM21.698 16.207c-2.626 1.94-6.442 2.969-9.722 2.969-4.598 0-8.74-1.7-11.87-4.526-.247-.223-.024-.527.272-.351 3.384 1.963 7.559 3.153 11.877 3.153 2.914 0 6.114-.607 9.06-1.852.439-.2.814.287.383.607zM22.792 14.961c-.336-.43-2.22-.207-3.074-.103-.255.032-.295-.192-.063-.36 1.5-1.053 3.967-.75 4.254-.399.287.36-.08 2.826-1.485 4.007-.215.184-.423.088-.327-.151.32-.79 1.03-2.57.695-2.994z" />
    </symbol>
    <symbol id="android" role="img" viewBox="0 0 24 24">
        <title>Android</title>
        <path
            d="M17.523 15.3414c-.5511 0-.9993-.4486-.9993-.9997s.4483-.9993.9993-.9993c.5511 0 .9993.4483.9993.9993.0001.5511-.4482.9997-.9993.9997m-11.046 0c-.5511 0-.9993-.4486-.9993-.9997s.4482-.9993.9993-.9993c.5511 0 .9993.4483.9993.9993 0 .5511-.4483.9997-.9993.9997m11.4045-6.02l1.9973-3.4592a.416.416 0 00-.1521-.5676.416.416 0 00-.5676.1521l-2.0223 3.503C15.5902 8.2439 13.8533 7.8508 12 7.8508s-3.5902.3931-5.1367 1.0989L4.841 5.4467a.4161.4161 0 00-.5677-.1521.4157.4157 0 00-.1521.5676l1.9973 3.4592C2.6889 11.1867.3432 14.6589 0 18.761h24c-.3435-4.1021-2.6892-7.5743-6.1185-9.4396" />
    </symbol>
    <symbol id="androidstudio" role="img" viewBox="0 0 24 24">
        <title>Android Studio</title>
        <path
            d="M19.2693 10.3368c-.3321 0-.6026.2705-.6026.6031v9.8324h-1.7379l-3.3355-6.9396c.476-.5387.6797-1.286.5243-2.0009a2.2862 2.2862 0 0 0-1.2893-1.6248v-.8124c.0121-.2871-.1426-.5787-.4043-.7407-.1391-.0825-.2884-.1234-.4402-.1234a.8478.8478 0 0 0-.4318.1182c-.2701.1671-.4248.4587-.4123.7662l-.0003.721c-1.0149.3668-1.6619 1.4153-1.4867 2.5197a2.282 2.282 0 0 0 .5916 1.2103l-3.2096 6.9064H4.0928c-1.0949-.007-1.9797-.8948-1.9832-1.9896V5.016c-.0055 1.1024.8836 2.0006 1.9859 2.0062a2.024 2.024 0 0 0 .1326-.0037h14.7453s2.5343-.2189 2.8619 1.5392c-.2491.0287-.4449.2321-.4449.4889 0 .7115-.5791 1.2901-1.3028 1.2901h-.8183zM17.222 22.5366c.2347.4837.0329 1.066-.4507 1.3007-.1296.0629-.2666.0895-.4018.0927a.9738.9738 0 0 1-.3194-.0455c-.024-.0078-.046-.0209-.0694-.0305a.9701.9701 0 0 1-.2277-.1321c-.0247-.0192-.0495-.038-.0724-.0598-.0825-.0783-.1574-.1672-.21-.2757l-1.2554-2.6143-1.5585-3.2452a.7725.7725 0 0 0-.6995-.4443h-.0024a.792.792 0 0 0-.7083.4443l-1.5109 3.2452-1.2321 2.6464a.9722.9722 0 0 1-.7985.5795c-.0626.0053-.1238-.0024-.185-.0087-.0344-.0036-.069-.0053-.1025-.0124-.0489-.0103-.0954-.0278-.142-.0452-.0301-.0113-.0613-.0197-.0901-.0339-.0496-.0244-.0948-.0565-.1397-.0889-.0217-.0156-.0457-.0275-.0662-.045a.9862.9862 0 0 1-.1695-.1844.9788.9788 0 0 1-.0708-.9852l.8469-1.8223 3.2676-7.0314a1.7964 1.7964 0 0 1-.7072-1.1637c-.1555-.9799.5129-1.9003 1.4928-2.0559V9.3946a.3542.3542 0 0 1 .1674-.3155.3468.3468 0 0 1 .3541 0 .354.354 0 0 1 .1674.3155v1.159l.0129.0064a1.8028 1.8028 0 0 1 1.2878 1.378 1.7835 1.7835 0 0 1-.6439 1.7836l3.3889 7.0507.8481 1.7643zM12.9841 12.306c.0042-.6081-.4854-1.1044-1.0935-1.1085a1.1204 1.1204 0 0 0-.7856.3219 1.101 1.101 0 0 0-.323.7716c-.0042.6081.4854 1.1044 1.0935 1.1085h.0077c.6046 0 1.0967-.488 1.1009-1.0935zm-1.027 5.2768c-.1119.0005-.2121.0632-.2571.1553l-1.4127 3.0342h3.3733l-1.4564-3.0328a.274.274 0 0 0-.2471-.1567zm8.1432-6.7459l-.0129-.0001h-.8177a.103.103 0 0 0-.103.103v12.9103a.103.103 0 0 0 .0966.103h.8435c.9861-.0035 1.7836-.804 1.7836-1.79V9.0468c0 .9887-.8014 1.7901-1.7901 1.7901zM2.6098 5.0161v.019c.0039.816.6719 1.483 1.4874 1.4869a12.061 12.061 0 0 1 .1309-.0034h1.1286c.1972-1.315.7607-2.525 1.638-3.4859H4.0993c-.9266.0031-1.6971.6401-1.9191 1.4975.2417.0355.4296.235.4296.4859zm6.3381-2.8977L7.9112.3284a.219.219 0 0 1 0-.2189A.2384.2384 0 0 1 8.098 0a.219.219 0 0 1 .1867.1094l1.0496 1.8158a6.4907 6.4907 0 0 1 5.3186 0L15.696.1094a.2189.2189 0 0 1 .3734.2189l-1.0302 1.79c1.6671.9125 2.7974 2.5439 3.0975 4.4018l-12.286-.0014c.3004-1.8572 1.4305-3.488 3.0972-4.4003zm5.3774 2.6202a.515.515 0 0 0 .5271.5028.515.515 0 0 0 .5151-.5151.5213.5213 0 0 0-.8885-.367.5151.5151 0 0 0-.1537.3793zm-5.7178-.0067a.5151.5151 0 0 0 .5207.5095.5086.5086 0 0 0 .367-.1481.5215.5215 0 1 0-.734-.7341.515.515 0 0 0-.1537.3727z" />
    </symbol>
    <symbol id="arduino" role="img" viewBox="0 0 24 24">
        <title>Arduino</title>
        <path
            d="M23.82 12a5.78 5.78 0 0 0-5.88-5.67c-.29 0-.6.02-.9.05-2.52.37-4.2 2.18-5.13 3.57-.95-1.39-2.64-3.2-5.14-3.57-.3-.03-.6-.05-.9-.05A5.78 5.78 0 0 0 0 12a5.78 5.78 0 0 0 5.87 5.67c.3 0 .6-.02.92-.06 2.52-.36 4.2-2.17 5.14-3.56.95 1.39 2.63 3.2 5.14 3.57.31.03.6.05.91.05A5.78 5.78 0 0 0 23.82 12zM6.48 15.6c-.2.04-.43.04-.63.04A3.77 3.77 0 0 1 2 11.98a3.78 3.78 0 0 1 3.86-3.66c.2 0 .42.02.63.04 2.37.35 3.82 2.67 4.31 3.62-.5.95-1.95 3.3-4.31 3.62zM13 12c.49-.93 1.94-3.27 4.31-3.62.2-.04.42-.04.62-.04A3.76 3.76 0 0 1 21.8 12a3.78 3.78 0 0 1-3.86 3.66c-.2 0-.42-.02-.62-.04-2.36-.35-3.82-2.69-4.31-3.62zm-8.79.59h3.54v-1.16H4.22v1.16zm14.13 0h1.19v-1.16h-1.2v-1.19H17.2v1.2H16v1.15h1.2v1.18h1.15V12.6zM24 7.06c0 .3-.22.51-.53.51a.51.51 0 0 1-.53-.5c0-.28.24-.52.53-.52.31 0 .53.22.53.51zm-.91 0c0 .22.16.4.4.4.22 0 .38-.18.38-.4s-.16-.4-.38-.4c-.24-.02-.4.16-.4.4zm.3.26h-.1V6.8l.2-.01c.09 0 .14.01.18.03.04.02.06.06.06.11 0 .06-.04.1-.11.11.05.02.07.06.09.13l.03.13h-.12c-.02-.02-.02-.07-.04-.13-.02-.05-.04-.07-.11-.07h-.05l-.02.22zm.02-.3h.06c.07 0 .1-.01.1-.07 0-.05-.03-.07-.1-.07h-.07v.14h.01z" />
    </symbol>
    <symbol id="babel" role="img" viewBox="0 0 24 24">
        <title>Babel</title>
        <path
            d="M15.76 0c-1.603.147-3.719.713-6.317 1.719a22.366 22.366 0 01-2.44 1.539l.01.158c.064 0 .136-.043.24-.096.106-.01.169.032.169.137l.168-.094.084-.011.01.074c.01.073-.566.523-1.707 1.33l.093.146-.084.012-.177-.064c0 .052-.073.085-.24.095l.01.084.189.21a.673.673 0 01-.252-.053c-.367.031-.734.303-1.09.806l.094.147c.314-.283.492-.43.544-.43l.022.23c-.052 0-.136.042-.24.094l.199.295A5.86 5.86 0 016.29 5.291c.23.063.346.125.346.209l.168-.01c1.225-.911 2.44-1.562 3.644-1.97l.012.158c-.22.335-.377.501-.461.511.01.116.052.21.115.305.021.21-.524 1.583-1.635 4.139-2.535 5.93-4.651 10.307-6.359 13.156 0 .052.041.136.094.23.419-.104.691-.197.806-.302l.096-.012.01.158.158-.011.166-.094c0 .052.063.073.168.062l.012.159c.01.157-.075.397-.274.722-.178.2-.355.607-.554 1.225l.01.074.158-.01c.68-.764 1.204-1.52 1.56-2.254 2.001-.586 3.52-1.162 4.578-1.728 1.058-.094 1.876-.365 2.42-.826l-.011-.084-.399.115-.094.01-.01-.084c.776-.116 1.32-.293 1.614-.524 1.519-1.173 2.66-2 3.435-2.492 2.4-1.76 3.531-3.457 3.395-5.07-.01-.168-.545-.828-1.582-1.98-.021-.22.345-.535 1.078-.954l2.086-1.834c.46-.597.744-1.56.838-2.89l-.031-.315c-.084-.932-.756-1.687-2.034-2.264C19.06.303 17.708.031 15.76 0zm2.525 1.037c1.55.063 2.347.335 2.389.817l-.063.158-2.326-.975zm-1.482 1.317c1.063-.016 1.617.267 1.672.863l.156-.012-.031-.398.168-.01c.408.22.627.492.648.816.021.22-.094.494-.355.819-.105.01-.168-.064-.178-.221l-.168.012-.041.47c-.702 1.048-1.205 1.582-1.52 1.614-.283.387-.462.587-.535.597-.22.262-.816.712-1.8 1.34-.325.032-1.531.493-3.616 1.404a.595.595 0 00-.334-.052l-.012-.147c-.02-.304.107-.681.41-1.142.158-.86.335-1.352.534-1.467l1.738-3.906c-.02-.241.347-.43 1.111-.555l.252-.022.02.221a50.387 50.387 0 011.394-.2c.173-.014.335-.022.487-.024zm3.619.39h.027c.139.012.288.263.446.744l.01.147c-.085.01-.24-.242-.471-.744l-.012-.147zm-9.836 2.483h.072l.022.23c-.074.01-.177.116-.303.336l-.012-.156c.147-.178.22-.316.22-.41zM5.6 5.354l.01.072c-.053 0-.136.043-.24.095l-.085.01-.01-.146.325-.031zM9.885 6.86l.031.315-.084.01-.031-.313.084-.012zm-.2.567c-.02.262-.084.397-.22.408l-.084.01c.094-.178.147-.303.137-.397l.168-.021zm-.345.816l.01.074-.147.25-.158.012-.01-.074c.157-.01.231-.093.22-.25l.085-.012zm-.358.735l-.04.386-.085.01-.03-.387.155-.01zm8.497.28l.345.212c.01.104-.042.167-.146.177-.147-.094-.262-.136-.346-.136l-.021-.23.168-.022zm-6.653.891l.012.147-.326.033-.01-.148.324-.032zm5.363.545c.23.105.347.21.358.293l.01.075c-.22.02-.42-.095-.608-.346l.24-.022zm2.6.252c.178.074.261.148.272.221l.052.617c-.073.168-.146.252-.23.252l-.094-1.09zm-4.195.065c.84-.014 1.482.184 1.922.605l.03.315c-.376 1.09-.795 1.719-1.245 1.918l-2.096 1.666c-1.56 1.026-2.4 1.538-2.525 1.548-2.483 1.373-4.032 2.075-4.63 2.127l-.095.01c.084-.293 1.185-2.555 3.322-6.808.943-.084 2.43-.525 4.452-1.32l.492-.042c.128-.01.253-.017.373-.02zm-3.055.49l.01.074-.334.031-.012-.074.336-.031zm-5.226 5.07c-.105.535-.221.808-.336.819l-.01-.075c-.021-.272.094-.513.346-.744zm7.101.336l.01.147c.01.063-.23.261-.701.607-1.394.681-2.21 1.152-2.452 1.393-1.508.523-2.252.849-2.242.974-1.34.535-2.22.923-2.638 1.164-.095.01-.241-.031-.43-.115-.021-.272.093-.494.365-.672.23-.02.463.011.672.106.251-.126.68-.274 1.299-.42l-.012-.156-.492.04c.063-.083.535-.303 1.436-.67l.251-.02.01.073c-.419.032-.66.167-.713.387.01.094.064.147.168.137.304-.21.461-.324.461-.356.608-.115 2.274-.995 5.008-2.619zm-7.584.723l.01.072c.01.105-.042.17-.147.18l-.01-.074c-.01-.095.042-.157.147-.178zm3.77.937c.089-.002.139.049.148.131-.199.021-.566.178-1.121.492l-.084.01-.01-.156a1.586 1.586 0 001.026-.47c.014-.003.028-.006.04-.007zm-3.664 1.243l.01.082c-.064 0-.138.043-.243.095l-.156.01c-.01-.073.032-.136.137-.168l.252-.02zm-1.918.953l.177.072c-.063.471-.198.713-.44.734a1.076 1.076 0 00-.513-.105l-.021-.23c-.01-.095.043-.147.158-.178.105-.01.167.061.178.218.282-.345.44-.511.46-.511Z" />
    </symbol>
    <symbol id="bitbucket" role="img" viewBox="0 0 24 24">
        <title>Bitbucket</title>
        <path
            d="M.778 1.213a.768.768 0 00-.768.892l3.263 19.81c.084.5.515.868 1.022.873H19.95a.772.772 0 00.77-.646l3.27-20.03a.768.768 0 00-.768-.891zM14.52 15.53H9.522L8.17 8.466h7.561z" />
    </symbol>
    <symbol id="blogpost" viewBox="0 0 34 27" stroke="none">
        <path
            d="M5.1 0.578857V22.9622C5.1 23.3379 4.95074 23.6982 4.68507 23.9639C4.41939 24.2296 4.05906 24.3789 3.68333 24.3789C3.30761 24.3789 2.94728 24.2296 2.6816 23.9639C2.41592 23.6982 2.26667 23.3379 2.26667 22.9622V6.24552H0V22.9622C0.00110612 23.9387 0.389526 24.875 1.08004 25.5655C1.77056 26.256 2.70679 26.6444 3.68333 26.6455H30.3167C31.2932 26.6444 32.2294 26.256 32.92 25.5655C33.6105 24.875 33.9989 23.9387 34 22.9622V0.578857H5.1ZM31.7333 22.9622C31.7329 23.3378 31.5835 23.6979 31.3179 23.9634C31.0523 24.229 30.6923 24.3784 30.3167 24.3789H7.08333C7.27087 23.9301 7.36719 23.4485 7.36667 22.9622V2.84552H31.7333V22.9622Z" />
        <path d="M19.8338 5.1123H9.63379V16.4456H19.8338V5.1123ZM17.5671 14.179H11.9005V7.37897H17.5671V14.179Z" />
        <path d="M29.4663 5.1123H22.0996V7.37897H29.4663V5.1123Z" />
        <path d="M29.4663 9.64551H22.0996V11.9122H29.4663V9.64551Z" />
        <path d="M29.4663 14.179H22.0996V16.4456H29.4663V14.179Z" />
    </symbol>
    <symbol id="bootstrap" role="img" viewBox="0 0 24 24">
        <title>Bootstrap</title>
        <path
            d="M11.77 11.24H9.956V8.202h2.152c1.17 0 1.834.522 1.834 1.466 0 1.008-.773 1.572-2.174 1.572zm.324 1.206H9.957v3.348h2.231c1.459 0 2.232-.585 2.232-1.685s-.795-1.663-2.326-1.663zM24 11.39v1.218c-1.128.108-1.817.944-2.226 2.268-.407 1.319-.463 2.937-.42 4.186.045 1.3-.968 2.5-2.337 2.5H4.985c-1.37 0-2.383-1.2-2.337-2.5.043-1.249-.013-2.867-.42-4.186-.41-1.324-1.1-2.16-2.228-2.268V11.39c1.128-.108 1.819-.944 2.227-2.268.408-1.319.464-2.937.42-4.186-.045-1.3.968-2.5 2.338-2.5h14.032c1.37 0 2.382 1.2 2.337 2.5-.043 1.249.013 2.867.42 4.186.409 1.324 1.098 2.16 2.226 2.268zm-7.927 2.817c0-1.354-.953-2.333-2.368-2.488v-.057c1.04-.169 1.856-1.135 1.856-2.213 0-1.537-1.213-2.538-3.062-2.538h-4.16v10.172h4.181c2.218 0 3.553-1.086 3.553-2.876z" />
    </symbol>
    <symbol id="code" viewBox="0 0 43 35" stroke="none">
        <path
            d="M6.16895 18.5664L15.4854 21.9355V25.9053L2.8291 20.5439V17.7314L6.16895 18.5664ZM15.4854 15.8125L6.1543 19.2402L2.8291 20.0312V17.2188L15.4854 11.8574V15.8125ZM28.083 6.67188L20.2607 29.8311H17.126L24.9482 6.67188H28.083ZM39.5967 19.1523L30.207 15.7979V11.8574L42.9658 17.2188V20.0459L39.5967 19.1523ZM30.207 21.9648L39.6113 18.5371L42.9658 17.7314V20.5439L30.207 25.9053V21.9648Z" />
    </symbol>
    <symbol id="css3" role="img" viewBox="0 0 24 24">
        <title>CSS3</title>
        <path
            d="M1.5 0h21l-1.91 21.563L11.977 24l-8.565-2.438L1.5 0zm17.09 4.413L5.41 4.41l.213 2.622 10.125.002-.255 2.716h-6.64l.24 2.573h6.182l-.366 3.523-2.91.804-2.956-.81-.188-2.11h-2.61l.29 3.855L12 19.288l5.373-1.53L18.59 4.414z" />
    </symbol>
    <symbol id="d3dotjs" role="img" viewBox="0 0 24 24">
        <title>D3.js</title>
        <path
            d="M13.312 12C13.312 5.718 8.22.625 1.937.625H0v5h1.938c3.521 0 6.375 2.854 6.375 6.375s-2.854 6.375-6.375 6.375H0v5h1.938c6.281 0 11.374-5.093 11.374-11.375zM24 7.563C24 3.731 20.893.625 17.062.625h-8a13.4154 13.4154 0 0 1 4.686 5h3.314c1.069 0 1.938.868 1.938 1.938 0 1.07-.869 1.938-1.938 1.938h-1.938c.313 1.652.313 3.348 0 5h1.938c1.068 0 1.938.867 1.938 1.938s-.869 1.938-1.938 1.938h-3.314a13.4154 13.4154 0 0 1-4.686 5h8c1.621 0 3.191-.568 4.438-1.605 2.943-2.45 3.346-6.824.895-9.77A6.9459 6.9459 0 0 0 24 7.563z" />
    </symbol>
    <symbol id="digitalocean" role="img" viewBox="0 0 24 24">
        <title>DigitalOcean</title>
        <path
            d="M12.04 0C5.408-.02.005 5.37.005 11.992h4.638c0-4.923 4.882-8.731 10.064-6.855a6.95 6.95 0 014.147 4.148c1.889 5.177-1.924 10.055-6.84 10.064v-4.61H7.391v4.623h4.61V24c7.86 0 13.967-7.588 11.397-15.83-1.115-3.59-3.985-6.446-7.575-7.575A12.8 12.8 0 0012.039 0zM7.39 19.362H3.828v3.564H7.39zm-3.563 0v-2.978H.85v2.978z" />
    </symbol>
    <symbol id="docker" role="img" viewBox="0 0 24 24">
        <title>Docker</title>
        <path
            d="M13.983 11.078h2.119a.186.186 0 00.186-.185V9.006a.186.186 0 00-.186-.186h-2.119a.185.185 0 00-.185.185v1.888c0 .102.083.185.185.185m-2.954-5.43h2.118a.186.186 0 00.186-.186V3.574a.186.186 0 00-.186-.185h-2.118a.185.185 0 00-.185.185v1.888c0 .102.082.185.185.185m0 2.716h2.118a.187.187 0 00.186-.186V6.29a.186.186 0 00-.186-.185h-2.118a.185.185 0 00-.185.185v1.887c0 .102.082.185.185.186m-2.93 0h2.12a.186.186 0 00.184-.186V6.29a.185.185 0 00-.185-.185H8.1a.185.185 0 00-.185.185v1.887c0 .102.083.185.185.186m-2.964 0h2.119a.186.186 0 00.185-.186V6.29a.185.185 0 00-.185-.185H5.136a.186.186 0 00-.186.185v1.887c0 .102.084.185.186.186m5.893 2.715h2.118a.186.186 0 00.186-.185V9.006a.186.186 0 00-.186-.186h-2.118a.185.185 0 00-.185.185v1.888c0 .102.082.185.185.185m-2.93 0h2.12a.185.185 0 00.184-.185V9.006a.185.185 0 00-.184-.186h-2.12a.185.185 0 00-.184.185v1.888c0 .102.083.185.185.185m-2.964 0h2.119a.185.185 0 00.185-.185V9.006a.185.185 0 00-.184-.186h-2.12a.186.186 0 00-.186.186v1.887c0 .102.084.185.186.185m-2.92 0h2.12a.185.185 0 00.184-.185V9.006a.185.185 0 00-.184-.186h-2.12a.185.185 0 00-.184.185v1.888c0 .102.082.185.185.185M23.763 9.89c-.065-.051-.672-.51-1.954-.51-.338.001-.676.03-1.01.087-.248-1.7-1.653-2.53-1.716-2.566l-.344-.199-.226.327c-.284.438-.49.922-.612 1.43-.23.97-.09 1.882.403 2.661-.595.332-1.55.413-1.744.42H.751a.751.751 0 00-.75.748 11.376 11.376 0 00.692 4.062c.545 1.428 1.355 2.48 2.41 3.124 1.18.723 3.1 1.137 5.275 1.137.983.003 1.963-.086 2.93-.266a12.248 12.248 0 003.823-1.389c.98-.567 1.86-1.288 2.61-2.136 1.252-1.418 1.998-2.997 2.553-4.4h.221c1.372 0 2.215-.549 2.68-1.009.309-.293.55-.65.707-1.046l.098-.288Z" />
    </symbol>
    <symbol id="dotenv" role="img" viewBox="0 0 24 24">
        <title>.ENV</title>
        <path
            d="M24 0v24H0V0h24ZM10.933 15.89H6.84v5.52h4.198v-.93H7.955v-1.503h2.77v-.93h-2.77v-1.224h2.978v-.934Zm2.146 0h-1.084v5.52h1.035v-3.6l2.226 3.6h1.118v-5.52h-1.036v3.686l-2.259-3.687Zm5.117 0h-1.208l1.973 5.52h1.19l1.976-5.52h-1.182l-1.352 4.085-1.397-4.086ZM5.4 19.68H3.72v1.68H5.4v-1.68Z" />
    </symbol>
    <symbol id="email" viewBox="0 0 17 18" stroke="none">
        <path
            d="M16.3819 0.174327C16.2717 0.0828055 16.1377 0.0244958 15.9956 0.00619348C15.8535 -0.0121089 15.7091 0.0103498 15.5793 0.0709523L0 7.38356V8.79855L6.54363 11.416L10.7409 17.8735H12.1562L16.628 0.945385C16.6643 0.806752 16.6604 0.660672 16.6168 0.52416C16.5732 0.387648 16.4918 0.266326 16.3819 0.174327ZM11.2824 16.5239L7.67463 10.9733L13.2264 4.8926L12.348 4.09057L6.75276 10.2186L1.35752 8.06054L15.2391 1.5446L11.2824 16.5239Z" />
    </symbol>
    <symbol id="experience" viewBox="0 0 34 34" stroke="none">
        <path fill-rule="evenodd" clip-rule="evenodd"
            d="M10.2642 7.05667C10.2642 5.29252 11.703 3.84912 13.4617 3.84912H19.8567C21.6153 3.84912 23.0542 5.29252 23.0542 7.05667V10.2642H29.1615C29.3213 10.2642 29.4492 10.3604 29.4492 10.5529V18.2831L29.4173 19.8869H19.1853V17.9623H15.3483V19.8869H3.86914V10.5529C3.86914 10.3925 3.96507 10.2642 4.15692 10.2642H10.2642V7.05667ZM19.8567 7.05667H13.4617V10.2642H19.8567V7.05667Z" />
        <path
            d="M15.3483 22.8057H3.86914V29.2208C3.86914 29.3812 3.99704 29.5095 4.15692 29.5095H29.1295C29.2894 29.5095 29.4173 29.3812 29.4173 29.2208V22.8057H19.1853V24.3774H15.3483V22.8057Z" />
    </symbol>
    <symbol id="person" viewBox="0 0 36 35" stroke="none">
        <path
            d="M22.0301 17.6855L21.8451 17.8476L21.7564 18.0771C21.188 19.5476 21.2802 20.6867 21.7988 21.5098C22.2788 22.2715 22.9925 22.5464 23.2588 22.6198C25.9374 23.3764 28.7487 24.4585 30.8676 25.6913C31.9298 26.3093 32.7745 26.9403 33.3417 27.5533C33.9161 28.1741 34.1192 28.6797 34.1192 29.0678V29.0723V29.0768V29.0813V29.0858V29.0902V29.0946V29.0989V29.1033V29.1076V29.1119V29.1161V29.1203V29.1245V29.1287V29.1329V29.137V29.1411V29.1451V29.1492V29.1532V29.1572V29.1611V29.1651V29.169V29.1729V29.1767V29.1805V29.1843V29.1881V29.1919V29.1956V29.1993V29.203V29.2067V29.2103V29.2139V29.2175V29.221V29.2246V29.2281V29.2316V29.235V29.2384V29.2419V29.2453V29.2486V29.252V29.2553V29.2586V29.2618V29.2651V29.2683V29.2715V29.2747V29.2779V29.281V29.2841V29.2872V29.2903V29.2933V29.2964V29.2994V29.3024V29.3053V29.3083V29.3112V29.3141V29.317V29.3198V29.3226V29.3255V29.3283V29.331V29.3338V29.3365V29.3392V29.3419V29.3446V29.3472V29.3499V29.3525V29.3551V29.3577V29.3602V29.3628V29.3653V29.3678V29.3703V29.3727V29.3752V29.3776V29.38V29.3824V29.3848V29.3871V29.3894V29.3918V29.3941V29.3963V29.3986V29.4008V29.4031V29.4053V29.4075V29.4097V29.4118V29.414V29.4161V29.4182V29.4203V29.4224V29.4244V29.4265V29.4285V29.4305V29.4325V29.4345V29.4365V29.4384V29.4404V29.4423V29.4442V29.4461V29.448V29.4498V29.4517V29.4535V29.4553V29.4571V29.4589V29.4607V29.4625V29.4642V29.4659V29.4677V29.4694V29.4711V29.4727V29.4744V29.4761V29.4777V29.4793V29.481V29.4826V29.4842V29.4857V29.4873V29.4889V29.4904V29.4919V29.4935V29.495V29.4965V29.4979V29.4994V29.5009V29.5023V29.5038V29.5052V29.5066V29.508V29.5094V29.5108V29.5122V29.5136V29.5149V29.5163V29.5176V29.5189V29.5202V29.5215V29.5228V29.5241V29.5254V29.5267V29.5279V29.5292V29.5304V29.5317V29.5329V29.5341V29.5353V29.5365V29.5377V29.5389V29.5401V29.5412V29.5424V29.5436V29.5447V29.5458V29.547V29.5481V29.5492V29.5503V29.5514V29.5525V29.5536V29.5547V29.5558V29.5569V29.5579V29.559V29.56V29.5611V29.5621V29.5632V29.5642V29.5652V29.5662V29.5673V29.5683V29.5693V29.5703V29.5713V29.5723V29.5732V29.5742V29.5752V29.5762V29.5772V29.5781V29.5791V29.58V29.581V29.5819V29.5829V29.5838V29.5848V29.5857V29.5867V29.5876V29.5885V29.5895V29.5904V29.5913V29.5922V29.5931V29.5941V29.595V29.5959V29.5968V29.5977V29.5986V29.5995V29.6004V29.6013V29.6022V29.6031V29.604V29.605V29.6059V29.6068V29.6077V29.6086V29.6095V29.6104V29.6113V29.6122V29.6131V29.614V29.6149V29.6158V29.6167V29.6176V29.6185V29.6194V29.6203V29.6212V29.6221V29.623V29.6239V29.6249V29.6258V29.6267V29.6276V29.6285V29.6295V29.6304V29.6313V29.6323V29.6332V29.6341V29.6351V29.636V29.637V29.6379V29.6389V29.6398V29.6408V29.6418V29.6427V29.6437V29.6447V29.6457V29.6467V29.6476V29.6486V29.6496V29.6506V29.6517V29.6527V29.6537V29.6547V29.6558V29.6568V29.6578V29.6589V29.6599V29.661V29.6621V29.6631V29.6642V29.6653V29.6664V29.6675V29.6686V29.6697V29.6708V29.6719V29.6731V29.6742V29.6754V29.6765V29.6777V29.6788V29.68V29.6812V29.6824V29.6836V29.6848V29.686V29.6872V29.6885V29.6897V29.691V29.6922V29.6935V29.6948V29.6961V29.6974V29.6987V29.7V29.7013V29.7027V29.704V29.7054V29.7067V29.7081V29.7095V29.7109V29.7123V29.7137V29.7151V29.7166V29.718V29.7195V29.721V29.7225V29.7239V29.7255V29.727V29.7285V29.7301V29.7316V29.7332V29.7348V29.7363V29.7379V29.7396V29.7412V29.7428V29.7445V29.7462V29.7478V29.7495V29.7512V29.753V29.7547V29.7565V29.7582V29.76V29.7618V29.7636V29.7654V29.7672V29.7691V29.771V29.7728V29.7747V29.7766V29.7786V29.7805V29.7824V29.7844V29.7864V29.7884V29.7904V29.7924V29.7945V29.7965V29.7986V29.8007V29.8028V29.805V29.8071V29.8093V29.8114V29.8136V29.8158V29.8181V29.8203V29.8226V29.8249V29.8272V29.8295V29.8318V29.8342V29.8365V29.8389V29.8413V29.8437V29.8462V29.8487V29.8511V29.8536V29.8561V29.8587V29.8612V29.8638V29.8664V29.869V29.8717V29.8743V29.877V29.8797V29.8824V29.8851V29.8879V29.8907V29.8934V29.8963V29.8991V29.902V29.9048V29.9077V29.9107V29.9136V29.9166V29.9195V29.9225V29.9256V29.9286V29.9317V29.9348V29.9379V29.941V29.9442V29.9474V29.9506V29.9538V29.9571V29.9603V29.9636V29.9669V29.9703V29.9737V29.977V29.9805V29.9839V29.9874V29.9908V29.9944V29.9979V30.0014V30.005V30.0086V30.0123V30.0159V30.0196V30.0233V30.027V30.0308V30.0346V30.0384V30.0422V30.0461V30.0499V30.0538V30.0578V30.0617V30.0657V30.0697V30.0738V30.0778V30.0819V30.0861V30.0902V30.0944V30.0986V30.1028V30.1071V30.1113V30.1156V30.12V30.1243V30.1287V30.1332V30.1376V30.1421V30.1466V30.1511C34.1192 30.6866 33.8427 31.2061 33.0566 31.7286C32.2502 32.2646 31.0274 32.7117 29.4532 33.0587C26.3194 33.7493 22.1283 33.974 17.9996 33.974C13.8774 33.974 9.66087 33.7494 6.50007 33.0583C4.9122 32.7111 3.67497 32.2634 2.85777 31.7259C2.05929 31.2008 1.78223 30.681 1.78223 30.1511V30.1466V30.1421V30.1376V30.1332V30.1287V30.1243V30.12V30.1156V30.1113V30.1071V30.1028V30.0986V30.0944V30.0902V30.0861V30.0819V30.0778V30.0738V30.0697V30.0657V30.0617V30.0578V30.0538V30.0499V30.0461V30.0422V30.0384V30.0346V30.0308V30.027V30.0233V30.0196V30.0159V30.0123V30.0086V30.005V30.0014V29.9979V29.9944V29.9908V29.9874V29.9839V29.9805V29.977V29.9737V29.9703V29.9669V29.9636V29.9603V29.9571V29.9538V29.9506V29.9474V29.9442V29.941V29.9379V29.9348V29.9317V29.9286V29.9256V29.9225V29.9195V29.9166V29.9136V29.9107V29.9077V29.9048V29.902V29.8991V29.8963V29.8934V29.8907V29.8879V29.8851V29.8824V29.8797V29.877V29.8743V29.8717V29.869V29.8664V29.8638V29.8612V29.8587V29.8561V29.8536V29.8511V29.8487V29.8462V29.8437V29.8413V29.8389V29.8365V29.8342V29.8318V29.8295V29.8272V29.8249V29.8226V29.8203V29.8181V29.8158V29.8136V29.8114V29.8093V29.8071V29.805V29.8028V29.8007V29.7986V29.7965V29.7945V29.7924V29.7904V29.7884V29.7864V29.7844V29.7824V29.7805V29.7786V29.7766V29.7747V29.7728V29.771V29.7691V29.7672V29.7654V29.7636V29.7618V29.76V29.7582V29.7565V29.7547V29.753V29.7512V29.7495V29.7478V29.7462V29.7445V29.7428V29.7412V29.7396V29.7379V29.7363V29.7348V29.7332V29.7316V29.7301V29.7285V29.727V29.7255V29.7239V29.7225V29.721V29.7195V29.718V29.7166V29.7151V29.7137V29.7123V29.7109V29.7095V29.7081V29.7067V29.7054V29.704V29.7027V29.7013V29.7V29.6987V29.6974V29.6961V29.6948V29.6935V29.6922V29.691V29.6897V29.6885V29.6872V29.686V29.6848V29.6836V29.6824V29.6812V29.68V29.6788V29.6777V29.6765V29.6754V29.6742V29.6731V29.6719V29.6708V29.6697V29.6686V29.6675V29.6664V29.6653V29.6642V29.6631V29.6621V29.661V29.6599V29.6589V29.6578V29.6568V29.6558V29.6547V29.6537V29.6527V29.6517V29.6506V29.6496V29.6486V29.6476V29.6467V29.6457V29.6447V29.6437V29.6427V29.6418V29.6408V29.6398V29.6389V29.6379V29.637V29.636V29.6351V29.6341V29.6332V29.6323V29.6313V29.6304V29.6295V29.6285V29.6276V29.6267V29.6258V29.6249V29.6239V29.623V29.6221V29.6212V29.6203V29.6194V29.6185V29.6176V29.6167V29.6158V29.6149V29.614V29.6131V29.6122V29.6113V29.6104V29.6095V29.6086V29.6077V29.6068V29.6059V29.605V29.604V29.6031V29.6022V29.6013V29.6004V29.5995V29.5986V29.5977V29.5968V29.5959V29.595V29.5941V29.5931V29.5922V29.5913V29.5904V29.5895V29.5885V29.5876V29.5867V29.5857V29.5848V29.5838V29.5829V29.5819V29.581V29.58V29.5791V29.5781V29.5772V29.5762V29.5752V29.5742V29.5732V29.5723V29.5713V29.5703V29.5693V29.5683V29.5673V29.5662V29.5652V29.5642V29.5632V29.5621V29.5611V29.56V29.559V29.5579V29.5569V29.5558V29.5547V29.5536V29.5525V29.5514V29.5503V29.5492V29.5481V29.547V29.5458V29.5447V29.5436V29.5424V29.5412V29.5401V29.5389V29.5377V29.5365V29.5353V29.5341V29.5329V29.5317V29.5304V29.5292V29.5279V29.5267V29.5254V29.5241V29.5228V29.5215V29.5202V29.5189V29.5176V29.5163V29.5149V29.5136V29.5122V29.5108V29.5094V29.508V29.5066V29.5052V29.5038V29.5023V29.5009V29.4994V29.4979V29.4965V29.495V29.4935V29.4919V29.4904V29.4889V29.4873V29.4857V29.4842V29.4826V29.481V29.4793V29.4777V29.4761V29.4744V29.4727V29.4711V29.4694V29.4677V29.4659V29.4642V29.4625V29.4607V29.4589V29.4571V29.4553V29.4535V29.4517V29.4498V29.448V29.4461V29.4442V29.4423V29.4404V29.4384V29.4365V29.4345V29.4325V29.4305V29.4285V29.4265V29.4244V29.4224V29.4203V29.4182V29.4161V29.414V29.4118V29.4097V29.4075V29.4053V29.4031V29.4008V29.3986V29.3963V29.3941V29.3918V29.3894V29.3871V29.3848V29.3824V29.38V29.3776V29.3752V29.3727V29.3703V29.3678V29.3653V29.3628V29.3602V29.3577V29.3551V29.3525V29.3499V29.3472V29.3446V29.3419V29.3392V29.3365V29.3338V29.331V29.3283V29.3255V29.3226V29.3198V29.317V29.3141V29.3112V29.3083V29.3053V29.3024V29.2994V29.2964V29.2933V29.2903V29.2872V29.2841V29.281V29.2779V29.2747V29.2715V29.2683V29.2651V29.2618V29.2586V29.2553V29.252V29.2486V29.2453V29.2419V29.2384V29.235V29.2316V29.2281V29.2246V29.221V29.2175V29.2139V29.2103V29.2067V29.203V29.1993V29.1956V29.1919V29.1881V29.1843V29.1805V29.1767V29.1729V29.169V29.1651V29.1611V29.1572V29.1532V29.1492V29.1451V29.1411V29.137V29.1329V29.1287V29.1245V29.1203V29.1161V29.1119V29.1076V29.1033V29.0989V29.0946V29.0902V29.0858V29.0813V29.0768V29.0723V29.0678C1.78223 28.706 1.97777 28.2155 2.55029 27.5979C3.11307 26.9909 3.94898 26.3619 4.99403 25.7415C7.07895 24.5038 9.82472 23.4004 12.3809 22.6122C12.6926 22.5165 13.4524 22.1847 13.9922 21.4518C14.5973 20.6304 14.8014 19.4734 14.1681 18.0558L14.078 17.8541L13.9114 17.7092C11.5132 15.6227 9.7306 12.2543 9.7306 9.0105C9.7306 6.55773 10.6706 4.75812 12.1164 3.55442C13.5845 2.33219 15.6477 1.66675 17.9507 1.66675C20.2539 1.66675 22.3239 2.33231 23.7986 3.55556C25.2508 4.76014 26.1953 6.55974 26.1953 9.0105C26.1953 12.2376 24.4135 15.597 22.0301 17.6855Z"
            stroke-width="4" />
    </symbol>
    <symbol id="express" role="img" viewBox="0 0 24 24">
        <title>Express</title>
        <path
            d="M24 18.588a1.529 1.529 0 01-1.895-.72l-3.45-4.771-.5-.667-4.003 5.444a1.466 1.466 0 01-1.802.708l5.158-6.92-4.798-6.251a1.595 1.595 0 011.9.666l3.576 4.83 3.596-4.81a1.435 1.435 0 011.788-.668L21.708 7.9l-2.522 3.283a.666.666 0 000 .994l4.804 6.412zM.002 11.576l.42-2.075c1.154-4.103 5.858-5.81 9.094-3.27 1.895 1.489 2.368 3.597 2.275 5.973H1.116C.943 16.447 4.005 19.009 7.92 17.7a4.078 4.078 0 002.582-2.876c.207-.666.548-.78 1.174-.588a5.417 5.417 0 01-2.589 3.957 6.272 6.272 0 01-7.306-.933 6.575 6.575 0 01-1.64-3.858c0-.235-.08-.455-.134-.666A88.33 88.33 0 010 11.577zm1.127-.286h9.654c-.06-3.076-2.001-5.258-4.59-5.278-2.882-.04-4.944 2.094-5.071 5.264z" />
    </symbol>
    <symbol id="figma" role="img" viewBox="0 0 24 24">
        <title>Figma</title>
        <path
            d="M15.852 8.981h-4.588V0h4.588c2.476 0 4.49 2.014 4.49 4.49s-2.014 4.491-4.49 4.491zM12.735 7.51h3.117c1.665 0 3.019-1.355 3.019-3.019s-1.355-3.019-3.019-3.019h-3.117V7.51zm0 1.471H8.148c-2.476 0-4.49-2.014-4.49-4.49S5.672 0 8.148 0h4.588v8.981zm-4.587-7.51c-1.665 0-3.019 1.355-3.019 3.019s1.354 3.02 3.019 3.02h3.117V1.471H8.148zm4.587 15.019H8.148c-2.476 0-4.49-2.014-4.49-4.49s2.014-4.49 4.49-4.49h4.588v8.98zM8.148 8.981c-1.665 0-3.019 1.355-3.019 3.019s1.355 3.019 3.019 3.019h3.117V8.981H8.148zM8.172 24c-2.489 0-4.515-2.014-4.515-4.49s2.014-4.49 4.49-4.49h4.588v4.441c0 2.503-2.047 4.539-4.563 4.539zm-.024-7.51a3.023 3.023 0 0 0-3.019 3.019c0 1.665 1.365 3.019 3.044 3.019 1.705 0 3.093-1.376 3.093-3.068v-2.97H8.148zm7.704 0h-.098c-2.476 0-4.49-2.014-4.49-4.49s2.014-4.49 4.49-4.49h.098c2.476 0 4.49 2.014 4.49 4.49s-2.014 4.49-4.49 4.49zm-.097-7.509c-1.665 0-3.019 1.355-3.019 3.019s1.355 3.019 3.019 3.019h.098c1.665 0 3.019-1.355 3.019-3.019s-1.355-3.019-3.019-3.019h-.098z" />
    </symbol>
    <symbol id="git" role="img" viewBox="0 0 24 24">
        <title>Git</title>
        <path
            d="M23.546 10.93L13.067.452c-.604-.603-1.582-.603-2.188 0L8.708 2.627l2.76 2.76c.645-.215 1.379-.07 1.889.441.516.515.658 1.258.438 1.9l2.658 2.66c.645-.223 1.387-.078 1.9.435.721.72.721 1.884 0 2.604-.719.719-1.881.719-2.6 0-.539-.541-.674-1.337-.404-1.996L12.86 8.955v6.525c.176.086.342.203.488.348.713.721.713 1.883 0 2.6-.719.721-1.889.721-2.609 0-.719-.719-.719-1.879 0-2.598.182-.18.387-.316.605-.406V8.835c-.217-.091-.424-.222-.6-.401-.545-.545-.676-1.342-.396-2.009L7.636 3.7.45 10.881c-.6.605-.6 1.584 0 2.189l10.48 10.477c.604.604 1.582.604 2.186 0l10.43-10.43c.605-.603.605-1.582 0-2.187" />
    </symbol>
    <symbol id="github" role="img" viewBox="0 0 24 24">
        <title>GitHub</title>
        <path
            d="M12 .297c-6.63 0-12 5.373-12 12 0 5.303 3.438 9.8 8.205 11.385.6.113.82-.258.82-.577 0-.285-.01-1.04-.015-2.04-3.338.724-4.042-1.61-4.042-1.61C4.422 18.07 3.633 17.7 3.633 17.7c-1.087-.744.084-.729.084-.729 1.205.084 1.838 1.236 1.838 1.236 1.07 1.835 2.809 1.305 3.495.998.108-.776.417-1.305.76-1.605-2.665-.3-5.466-1.332-5.466-5.93 0-1.31.465-2.38 1.235-3.22-.135-.303-.54-1.523.105-3.176 0 0 1.005-.322 3.3 1.23.96-.267 1.98-.399 3-.405 1.02.006 2.04.138 3 .405 2.28-1.552 3.285-1.23 3.285-1.23.645 1.653.24 2.873.12 3.176.765.84 1.23 1.91 1.23 3.22 0 4.61-2.805 5.625-5.475 5.92.42.36.81 1.096.81 2.22 0 1.606-.015 2.896-.015 3.286 0 .315.21.69.825.57C20.565 22.092 24 17.592 24 12.297c0-6.627-5.373-12-12-12" />
    </symbol>
    <symbol id="gitlab" role="img" viewBox="0 0 24 24">
        <title>GitLab</title>
        <path
            d="m23.6004 9.5927-.0337-.0862L20.3.9814a.851.851 0 0 0-.3362-.405.8748.8748 0 0 0-.9997.0539.8748.8748 0 0 0-.29.4399l-2.2055 6.748H7.5375l-2.2057-6.748a.8573.8573 0 0 0-.29-.4412.8748.8748 0 0 0-.9997-.0537.8585.8585 0 0 0-.3362.4049L.4332 9.5015l-.0325.0862a6.0657 6.0657 0 0 0 2.0119 7.0105l.0113.0087.03.0213 4.976 3.7264 2.462 1.8633 1.4995 1.1321a1.0085 1.0085 0 0 0 1.2197 0l1.4995-1.1321 2.4619-1.8633 5.006-3.7489.0125-.01a6.0682 6.0682 0 0 0 2.0094-7.003z" />
    </symbol>
    <symbol id="googlecloud" role="img" viewBox="0 0 24 24">
        <title>Google Cloud</title>
        <path
            d="M12.19 2.38a9.344 9.344 0 0 0-9.234 6.893c.053-.02-.055.013 0 0-3.875 2.551-3.922 8.11-.247 10.941l.006-.007-.007.03a6.717 6.717 0 0 0 4.077 1.356h5.173l.03.03h5.192c6.687.053 9.376-8.605 3.835-12.35a9.365 9.365 0 0 0-2.821-4.552l-.043.043.006-.05A9.344 9.344 0 0 0 12.19 2.38zm-.358 4.146c1.244-.04 2.518.368 3.486 1.15a5.186 5.186 0 0 1 1.862 4.078v.518c3.53-.07 3.53 5.262 0 5.193h-5.193l-.008.009v-.04H6.785a2.59 2.59 0 0 1-1.067-.23h.001a2.597 2.597 0 1 1 3.437-3.437l3.013-3.012A6.747 6.747 0 0 0 8.11 8.24c.018-.01.04-.026.054-.023a5.186 5.186 0 0 1 3.67-1.69z" />
    </symbol>
    <symbol id="graphql" role="img" viewBox="0 0 24 24">
        <title>GraphQL</title>
        <path
            d="M12.002 0a2.138 2.138 0 1 0 0 4.277 2.138 2.138 0 1 0 0-4.277zm8.54 4.931a2.138 2.138 0 1 0 0 4.277 2.138 2.138 0 1 0 0-4.277zm0 9.862a2.138 2.138 0 1 0 0 4.277 2.138 2.138 0 1 0 0-4.277zm-8.54 4.931a2.138 2.138 0 1 0 0 4.276 2.138 2.138 0 1 0 0-4.276zm-8.542-4.93a2.138 2.138 0 1 0 0 4.276 2.138 2.138 0 1 0 0-4.277zm0-9.863a2.138 2.138 0 1 0 0 4.277 2.138 2.138 0 1 0 0-4.277zm8.542-3.378L2.953 6.777v10.448l9.049 5.224 9.047-5.224V6.777zm0 1.601 7.66 13.27H4.34zm-1.387.371L3.97 15.037V7.363zm2.774 0 6.646 3.838v7.674zM5.355 17.44h13.293l-6.646 3.836z" />
    </symbol>
    <symbol id="heroku" role="img" viewBox="0 0 24 24">
        <title>Heroku</title>
        <path
            d="M20.61 0H3.39C2.189 0 1.23.96 1.23 2.16v19.681c0 1.198.959 2.159 2.16 2.159h17.22c1.2 0 2.159-.961 2.159-2.159V2.16C22.77.96 21.811 0 20.61 0zm.96 21.841c0 .539-.421.96-.96.96H3.39c-.54 0-.96-.421-.96-.96V2.16c0-.54.42-.961.96-.961h17.22c.539 0 .96.421.96.961v19.681zM6.63 20.399L9.33 18l-2.7-2.4v4.799zm9.72-9.719c-.479-.48-1.379-1.08-2.879-1.08-1.621 0-3.301.421-4.5.84V3.6h-2.4v10.38l1.68-.78s2.76-1.26 5.16-1.26c1.2 0 1.5.66 1.5 1.26v7.2h2.4v-7.2c.059-.179.059-1.501-.961-2.52zM13.17 7.5h2.4c1.08-1.26 1.62-2.521 1.8-3.9h-2.399c-.241 1.379-.841 2.64-1.801 3.9z" />
    </symbol>
    <symbol id="html5" role="img" viewBox="0 0 24 24">
        <title>HTML5</title>
        <path
            d="M1.5 0h21l-1.91 21.563L11.977 24l-8.564-2.438L1.5 0zm7.031 9.75l-.232-2.718 10.059.003.23-2.622L5.412 4.41l.698 8.01h9.126l-.326 3.426-2.91.804-2.955-.81-.188-2.11H6.248l.33 4.171L12 19.351l5.379-1.443.744-8.157H8.531z" />
    </symbol>
    <symbol id="info" viewBox="0 0 10 41" stroke="none">
        <path
            d="M8.34717 13.5088L5.15137 32H0.332031L3.54492 13.5088H8.34717ZM4.07471 8.7749C4.05192 8.00016 4.30257 7.37923 4.82666 6.91211C5.36214 6.44499 6.00586 6.20573 6.75781 6.19434C7.47559 6.18294 8.10221 6.39941 8.6377 6.84375C9.17318 7.27669 9.44092 7.86344 9.44092 8.604C9.4637 9.37874 9.20736 9.99967 8.67188 10.4668C8.13639 10.9339 7.49837 11.1732 6.75781 11.1846C6.04004 11.196 5.41341 10.9852 4.87793 10.5522C4.35384 10.1193 4.0861 9.52686 4.07471 8.7749Z" />
    </symbol>
    <symbol id="iu" viewBox="0 0 36 42">
        <rect x="0.5" y="0.5" width="34.9623" height="41" fill="none" />
        <path
            d="M22.4223 9.36785H30.5959V11.8147H28.7998V27.1989L25.7802 30.2184H20.6001V33.7066H22.4483V36.8563H13.702V33.7066H15.5762V30.2184H10.4221L7.35047 27.1468V11.7887H5.52832V9.34182H13.7801V11.7887H12.0881V25.0123H15.5501V7.59777H13.6759V5.15088H22.4223V7.57173H20.5741L20.6261 24.9863H24.0362V11.8147H22.4223V9.36785Z"
            stroke="none" />
    </symbol>
    <symbol id="jamstack" role="img" viewBox="0 0 24 24">
        <title>Jamstack</title>
        <path
            d="M12 0C5.365 0 0 5.364 0 12s5.365 12 12 12 12-5.364 12-12V0zm.496 3.318h8.17v8.17h-8.17zm-9.168 9.178h8.16v8.149c-4.382-.257-7.904-3.767-8.16-8.149zm9.168.016h8.152a8.684 8.684 0 01-8.152 8.148z" />
    </symbol>
    <symbol id="javascript" role="img" viewBox="0 0 24 24">
        <title>JavaScript</title>
        <path
            d="M0 0h24v24H0V0zm22.034 18.276c-.175-1.095-.888-2.015-3.003-2.873-.736-.345-1.554-.585-1.797-1.14-.091-.33-.105-.51-.046-.705.15-.646.915-.84 1.515-.66.39.12.75.42.976.9 1.034-.676 1.034-.676 1.755-1.125-.27-.42-.404-.601-.586-.78-.63-.705-1.469-1.065-2.834-1.034l-.705.089c-.676.165-1.32.525-1.71 1.005-1.14 1.291-.811 3.541.569 4.471 1.365 1.02 3.361 1.244 3.616 2.205.24 1.17-.87 1.545-1.966 1.41-.811-.18-1.26-.586-1.755-1.336l-1.83 1.051c.21.48.45.689.81 1.109 1.74 1.756 6.09 1.666 6.871-1.004.029-.09.24-.705.074-1.65l.046.067zm-8.983-7.245h-2.248c0 1.938-.009 3.864-.009 5.805 0 1.232.063 2.363-.138 2.711-.33.689-1.18.601-1.566.48-.396-.196-.597-.466-.83-.855-.063-.105-.11-.196-.127-.196l-1.825 1.125c.305.63.75 1.172 1.324 1.517.855.51 2.004.675 3.207.405.783-.226 1.458-.691 1.811-1.411.51-.93.402-2.07.397-3.346.012-2.054 0-4.109 0-6.179l.004-.056z" />
    </symbol>
    <symbol id="jest" role="img" viewBox="0 0 24 24">
        <title>Jest</title>
        <path
            d="M22.251 11.82a3.117 3.117 0 0 0-2.328-3.01L22.911 0H8.104L11.1 8.838a3.116 3.116 0 0 0-2.244 2.988c0 1.043.52 1.967 1.313 2.536a8.279 8.279 0 0 1-1.084 1.244 8.14 8.14 0 0 1-2.55 1.647c-.834-.563-1.195-1.556-.869-2.446a3.11 3.11 0 0 0-.91-6.08 3.117 3.117 0 0 0-3.113 3.113c0 .848.347 1.626.903 2.182-.048.097-.097.195-.146.299-.465.959-.993 2.043-1.195 3.259-.403 2.432.257 4.384 1.849 5.489A5.093 5.093 0 0 0 5.999 24c1.827 0 3.682-.917 5.475-1.807 1.279-.632 2.599-1.292 3.898-1.612.48-.118.98-.187 1.508-.264 1.07-.153 2.175-.312 3.168-.89a4.482 4.482 0 0 0 2.182-3.091c.174-.994 0-1.994-.444-2.87.298-.48.465-1.042.465-1.647zm-1.355 0c0 .965-.785 1.75-1.75 1.75a1.753 1.753 0 0 1-1.085-3.126l.007-.007c.056-.042.118-.084.18-.125 0 0 .008 0 .008-.007.028-.014.055-.035.083-.05.007 0 .014-.006.021-.006.028-.014.063-.028.097-.042.035-.014.07-.027.098-.041.007 0 .013-.007.02-.007.028-.007.056-.021.084-.028.007 0 .02-.007.028-.007.034-.007.062-.014.097-.02h.007l.104-.022c.007 0 .02 0 .028-.007.028 0 .055-.007.083-.007h.035c.035 0 .07-.007.111-.007h.09c.028 0 .05 0 .077.007h.014c.055.007.111.014.167.028a1.766 1.766 0 0 1 1.396 1.723zM10.043 1.39h10.93l-2.509 7.4c-.104.02-.208.055-.312.09l-2.64-5.385-2.648 5.35c-.104-.034-.216-.055-.327-.076l-2.494-7.38zm4.968 9.825a3.083 3.083 0 0 0-.938-1.668l1.438-2.904 1.452 2.967c-.43.43-.743.98-.868 1.605H15.01zm-3.481-1.098c.034-.007.062-.014.097-.02h.02c.029-.008.056-.008.084-.015h.028c.028 0 .049-.007.076-.007h.271c.028 0 .049.007.07.007.014 0 .02 0 .035.007.027.007.048.007.076.014.007 0 .014 0 .028.007l.097.02h.007c.028.008.056.015.083.029.007 0 .014.007.028.007.021.007.049.014.07.027.007 0 .014.007.02.007.028.014.056.021.084.035h.007a.374.374 0 0 1 .09.049h.007c.028.014.056.034.084.048.007 0 .007.007.013.007.028.014.05.035.077.049l.007.007c.083.062.16.132.236.201l.007.007a1.747 1.747 0 0 1 .48 1.209 1.752 1.752 0 0 1-3.502 0 1.742 1.742 0 0 1 1.32-1.695zm-6.838-.049c.966 0 1.751.786 1.751 1.751s-.785 1.751-1.75 1.751-1.752-.785-1.752-1.75.786-1.752 1.751-1.752zm16.163 6.025a3.07 3.07 0 0 1-1.508 2.133c-.758.438-1.689.577-2.669.716a17.29 17.29 0 0 0-1.64.291c-1.445.355-2.834 1.05-4.182 1.717-1.724.854-3.35 1.66-4.857 1.66a3.645 3.645 0 0 1-2.154-.688c-1.529-1.056-1.453-3.036-1.272-4.12.167-1.015.632-1.966 1.077-2.877.028-.055.049-.104.077-.16.152.056.312.098.479.126-.264 1.473.486 2.994 1.946 3.745l.264.139.284-.104c1.216-.431 2.342-1.133 3.336-2.071a9.334 9.334 0 0 0 1.445-1.716c.16.027.32.034.48.034a3.117 3.117 0 0 0 3.008-2.327h1.167a3.109 3.109 0 0 0 3.01 2.327c.576 0 1.11-.16 1.57-.43.18.52.236 1.063.139 1.605z" />
    </symbol>
    <symbol id="jira" role="img" viewBox="0 0 24 24">
        <title>Jira</title>
        <path
            d="M11.571 11.513H0a5.218 5.218 0 0 0 5.232 5.215h2.13v2.057A5.215 5.215 0 0 0 12.575 24V12.518a1.005 1.005 0 0 0-1.005-1.005zm5.723-5.756H5.736a5.215 5.215 0 0 0 5.215 5.214h2.129v2.058a5.218 5.218 0 0 0 5.215 5.214V6.758a1.001 1.001 0 0 0-1.001-1.001zM23.013 0H11.455a5.215 5.215 0 0 0 5.215 5.215h2.129v2.057A5.215 5.215 0 0 0 24 12.483V1.005A1.001 1.001 0 0 0 23.013 0Z" />
    </symbol>
    <symbol id="json" role="img" viewBox="0 0 24 24">
        <title>JSON</title>
        <path
            d="M12.043 23.968c.479-.004.953-.029 1.426-.094a11.805 11.805 0 003.146-.863 12.404 12.404 0 003.793-2.542 11.977 11.977 0 002.44-3.427 11.794 11.794 0 001.02-3.476c.149-1.16.135-2.346-.045-3.499a11.96 11.96 0 00-.793-2.788 11.197 11.197 0 00-.854-1.617c-1.168-1.837-2.861-3.314-4.81-4.3a12.835 12.835 0 00-2.172-.87h-.005c.119.063.24.132.345.201.12.074.239.146.351.225a8.93 8.93 0 011.559 1.33c1.063 1.145 1.797 2.548 2.218 4.041.284.982.434 1.998.495 3.017.044.743.044 1.491-.047 2.229-.149 1.27-.554 2.51-1.228 3.596a7.475 7.475 0 01-1.903 2.084c-1.244.928-2.877 1.482-4.436 1.114a3.916 3.916 0 01-.748-.258 4.692 4.692 0 01-.779-.45 6.08 6.08 0 01-1.244-1.105 6.507 6.507 0 01-1.049-1.747 7.366 7.366 0 01-.494-2.54c-.03-1.273.225-2.553.854-3.67a6.43 6.43 0 011.663-1.918c.225-.178.464-.333.704-.479l.016-.007a5.121 5.121 0 00-1.441-.12 4.963 4.963 0 00-1.228.24c-.359.12-.704.27-1.019.45a6.146 6.146 0 00-.733.494c-.211.18-.42.36-.615.555-1.123 1.153-1.768 2.682-2.022 4.256-.15.973-.15 1.96-.091 2.95.105 1.395.391 2.787.945 4.062a8.518 8.518 0 001.348 2.173 8.14 8.14 0 003.132 2.23 7.934 7.934 0 002.113.54c.074.015.149.015.209.015zm-2.934-.398a4.102 4.102 0 01-.45-.228 8.5 8.5 0 01-2.038-1.534c-1.094-1.137-1.827-2.566-2.247-4.08a15.184 15.184 0 01-.495-3.172 12.14 12.14 0 01.046-2.082c.135-1.257.495-2.501 1.124-3.58a6.889 6.889 0 011.783-2.053 6.23 6.23 0 011.633-.9 5.363 5.363 0 013.522-.045c.029 0 .029 0 .045.03.015.015.045.015.06.03.045.016.104.045.165.074.239.12.479.271.704.42a6.294 6.294 0 012.097 2.502c.42.914.615 1.934.631 2.938.014 1.079-.18 2.157-.645 3.146a6.42 6.42 0 01-2.638 2.832c.09.03.18.045.271.075.225.044.449.074.688.074 1.468.045 2.892-.66 3.94-1.647.195-.18.375-.375.54-.585.225-.27.435-.54.614-.823.239-.375.435-.75.614-1.154a8.112 8.112 0 00.509-1.664c.196-1.004.211-2.022.149-3.026-.135-2.022-.673-4.045-1.842-5.724a9.054 9.054 0 00-.555-.719 9.868 9.868 0 00-1.063-1.034 8.477 8.477 0 00-1.363-.915 9.927 9.927 0 00-1.692-.598l-.3-.06c-.209-.03-.42-.044-.634-.06a8.453 8.453 0 00-1.015.016c-.704.045-1.412.16-2.112.337C5.799 1.227 2.863 3.566 1.3 6.67A11.834 11.834 0 00.238 9.801a11.81 11.81 0 00-.104 3.775c.12 1.02.374 2.023.778 2.977.227.57.511 1.124.825 1.648 1.094 1.783 2.683 3.236 4.51 4.24.688.39 1.408.69 2.157.944.226.074.45.15.689.21z" />
    </symbol>
    <symbol id="kubernetes" role="img" viewBox="0 0 24 24">
        <title>Kubernetes</title>
        <path
            d="M10.204 14.35l.007.01-.999 2.413a5.171 5.171 0 0 1-2.075-2.597l2.578-.437.004.005a.44.44 0 0 1 .484.606zm-.833-2.129a.44.44 0 0 0 .173-.756l.002-.011L7.585 9.7a5.143 5.143 0 0 0-.73 3.255l2.514-.725.002-.009zm1.145-1.98a.44.44 0 0 0 .699-.337l.01-.005.15-2.62a5.144 5.144 0 0 0-3.01 1.442l2.147 1.523.004-.002zm.76 2.75l.723.349.722-.347.18-.78-.5-.623h-.804l-.5.623.179.779zm1.5-3.095a.44.44 0 0 0 .7.336l.008.003 2.134-1.513a5.188 5.188 0 0 0-2.992-1.442l.148 2.615.002.001zm10.876 5.97l-5.773 7.181a1.6 1.6 0 0 1-1.248.594l-9.261.003a1.6 1.6 0 0 1-1.247-.596l-5.776-7.18a1.583 1.583 0 0 1-.307-1.34L2.1 5.573c.108-.47.425-.864.863-1.073L11.305.513a1.606 1.606 0 0 1 1.385 0l8.345 3.985c.438.209.755.604.863 1.073l2.062 8.955c.108.47-.005.963-.308 1.34zm-3.289-2.057c-.042-.01-.103-.026-.145-.034-.174-.033-.315-.025-.479-.038-.35-.037-.638-.067-.895-.148-.105-.04-.18-.165-.216-.216l-.201-.059a6.45 6.45 0 0 0-.105-2.332 6.465 6.465 0 0 0-.936-2.163c.052-.047.15-.133.177-.159.008-.09.001-.183.094-.282.197-.185.444-.338.743-.522.142-.084.273-.137.415-.242.032-.024.076-.062.11-.089.24-.191.295-.52.123-.736-.172-.216-.506-.236-.745-.045-.034.027-.08.062-.111.088-.134.116-.217.23-.33.35-.246.25-.45.458-.673.609-.097.056-.239.037-.303.033l-.19.135a6.545 6.545 0 0 0-4.146-2.003l-.012-.223c-.065-.062-.143-.115-.163-.25-.022-.268.015-.557.057-.905.023-.163.061-.298.068-.475.001-.04-.001-.099-.001-.142 0-.306-.224-.555-.5-.555-.275 0-.499.249-.499.555l.001.014c0 .041-.002.092 0 .128.006.177.044.312.067.475.042.348.078.637.056.906a.545.545 0 0 1-.162.258l-.012.211a6.424 6.424 0 0 0-4.166 2.003 8.373 8.373 0 0 1-.18-.128c-.09.012-.18.04-.297-.029-.223-.15-.427-.358-.673-.608-.113-.12-.195-.234-.329-.349-.03-.026-.077-.062-.111-.088a.594.594 0 0 0-.348-.132.481.481 0 0 0-.398.176c-.172.216-.117.546.123.737l.007.005.104.083c.142.105.272.159.414.242.299.185.546.338.743.522.076.082.09.226.1.288l.16.143a6.462 6.462 0 0 0-1.02 4.506l-.208.06c-.055.072-.133.184-.215.217-.257.081-.546.11-.895.147-.164.014-.305.006-.48.039-.037.007-.09.02-.133.03l-.004.002-.007.002c-.295.071-.484.342-.423.608.061.267.349.429.645.365l.007-.001.01-.003.129-.029c.17-.046.294-.113.448-.172.33-.118.604-.217.87-.256.112-.009.23.069.288.101l.217-.037a6.5 6.5 0 0 0 2.88 3.596l-.09.218c.033.084.069.199.044.282-.097.252-.263.517-.452.813-.091.136-.185.242-.268.399-.02.037-.045.095-.064.134-.128.275-.034.591.213.71.248.12.556-.007.69-.282v-.002c.02-.039.046-.09.062-.127.07-.162.094-.301.144-.458.132-.332.205-.68.387-.897.05-.06.13-.082.215-.105l.113-.205a6.453 6.453 0 0 0 4.609.012l.106.192c.086.028.18.042.256.155.136.232.229.507.342.84.05.156.074.295.145.457.016.037.043.09.062.129.133.276.442.402.69.282.247-.118.341-.435.213-.71-.02-.039-.045-.096-.065-.134-.083-.156-.177-.261-.268-.398-.19-.296-.346-.541-.443-.793-.04-.13.007-.21.038-.294-.018-.022-.059-.144-.083-.202a6.499 6.499 0 0 0 2.88-3.622c.064.01.176.03.213.038.075-.05.144-.114.28-.104.266.039.54.138.87.256.154.06.277.128.448.173.036.01.088.019.13.028l.009.003.007.001c.297.064.584-.098.645-.365.06-.266-.128-.537-.423-.608zM16.4 9.701l-1.95 1.746v.005a.44.44 0 0 0 .173.757l.003.01 2.526.728a5.199 5.199 0 0 0-.108-1.674A5.208 5.208 0 0 0 16.4 9.7zm-4.013 5.325a.437.437 0 0 0-.404-.232.44.44 0 0 0-.372.233h-.002l-1.268 2.292a5.164 5.164 0 0 0 3.326.003l-1.27-2.296h-.01zm1.888-1.293a.44.44 0 0 0-.27.036.44.44 0 0 0-.214.572l-.003.004 1.01 2.438a5.15 5.15 0 0 0 2.081-2.615l-2.6-.44-.004.005z" />
    </symbol>
    <symbol id="link" stroke="none">
        <symbol id="1" viewBox="0 0 24 24">
            <path
                d="M13.723 18.654l-3.61 3.609c-2.316 2.315-6.063 2.315-8.378 0-1.12-1.118-1.735-2.606-1.735-4.188 0-1.582.615-3.07 1.734-4.189l4.866-4.865c2.355-2.355 6.114-2.262 8.377 0 .453.453.81.973 1.089 1.527l-1.593 1.592c-.18-.613-.5-1.189-.964-1.652-1.448-1.448-3.93-1.51-5.439-.001l-.001.002-4.867 4.865c-1.5 1.499-1.5 3.941 0 5.44 1.517 1.517 3.958 1.488 5.442 0l2.425-2.424c.993.284 1.791.335 2.654.284zm.161-16.918l-3.574 3.576c.847-.05 1.655 0 2.653.283l2.393-2.389c1.498-1.502 3.94-1.5 5.44-.001 1.517 1.518 1.486 3.959 0 5.442l-4.831 4.831-.003.002c-1.438 1.437-3.886 1.552-5.439-.002-.473-.474-.785-1.042-.956-1.643l-.084.068-1.517 1.515c.28.556.635 1.075 1.088 1.528 2.245 2.245 6.004 2.374 8.378 0l4.832-4.831c2.314-2.316 2.316-6.062-.001-8.377-2.317-2.321-6.067-2.313-8.379-.002z" />
        </symbol>
        <symbol id="2" viewBox="0 0 35 17">
            <path
                d="M2.33333 8.16667C2.33509 6.62011 2.95024 5.1374 4.04382 4.04382C5.1374 2.95023 6.62011 2.33509 8.16667 2.33333H16.3333V0H8.16667C6.00073 0 3.92351 0.860415 2.39196 2.39196C0.860414 3.92351 0 6.00073 0 8.16667C0 10.3326 0.860414 12.4098 2.39196 13.9414C3.92351 15.4729 6.00073 16.3333 8.16667 16.3333H16.3333V14H8.16667C6.62011 13.9982 5.1374 13.3831 4.04382 12.2895C2.95024 11.1959 2.33509 9.71322 2.33333 8.16667Z" />
            <path
                d="M26.8337 0H18.667V2.33333H26.8337C28.3808 2.33333 29.8645 2.94792 30.9584 4.04188C32.0524 5.13584 32.667 6.61957 32.667 8.16667C32.667 9.71376 32.0524 11.1975 30.9584 12.2915C29.8645 13.3854 28.3808 14 26.8337 14H18.667V16.3333H26.8337C28.9996 16.3333 31.0768 15.4729 32.6084 13.9414C34.1399 12.4098 35.0003 10.3326 35.0003 8.16667C35.0003 6.00073 34.1399 3.92351 32.6084 2.39196C31.0768 0.860415 28.9996 0 26.8337 0Z" />
            <path d="M25.9587 7.04761H9.04199V9.38094H25.9587V7.04761Z" />
        </symbol>
        <symbol id="3" viewBox="0 0 24 24" fill-rule="evenodd" clip-rule="evenodd">
            <path
                d="M14 4h-13v18h20v-11h1v12h-22v-20h14v1zm10 5h-1v-6.293l-11.646 11.647-.708-.708 11.647-11.646h-6.293v-1h8v8z" />
        </symbol>
        <symbol id="4" viewBox="0 0 16 16" aria-hidden="true" fill-rule="evenodd">
            <path
                d="M7.775 3.275a.75.75 0 001.06 1.06l1.25-1.25a2 2 0 112.83 2.83l-2.5 2.5a2 2 0 01-2.83 0 .75.75 0 00-1.06 1.06 3.5 3.5 0 004.95 0l2.5-2.5a3.5 3.5 0 00-4.95-4.95l-1.25 1.25zm-4.69 9.64a2 2 0 010-2.83l2.5-2.5a2 2 0 012.83 0 .75.75 0 001.06-1.06 3.5 3.5 0 00-4.95 0l-2.5 2.5a3.5 3.5 0 004.95 4.95l1.25-1.25a.75.75 0 00-1.06-1.06l-1.25 1.25a2 2 0 01-2.83 0z" />
        </symbol>
        <use href="#1" />
    </symbol>
    <symbol id="linkedin" viewBox="0 0 35 34" stroke="none">
        <path
            d="M7.87872 34H0.829792V11.3001H7.87872V34ZM4.35001 8.20371C2.09629 8.20371 0.267578 6.33614 0.267578 4.08243C0.267578 1.82871 2.09508 0 4.35001 0C6.60494 0 8.43244 1.8275 8.43244 4.08243C8.43244 6.33614 6.60372 8.20371 4.35001 8.20371ZM34.2603 34H27.2271V22.95C27.2271 20.3162 27.1737 16.9393 23.5624 16.9393C19.8977 16.9393 19.3355 19.8001 19.3355 22.7606V34H12.2939V11.3001H19.0538V14.3966H19.1521C20.0932 12.6128 22.3919 10.7306 25.821 10.7306C32.9549 10.7306 34.2664 15.4287 34.2664 21.5305V34H34.2603Z" />
    </symbol>
    <symbol id="microsoftazure" role="img" viewBox="0 0 24 24">
        <title>Microsoft Azure</title>
        <path
            d="M22.379 23.343a1.62 1.62 0 0 0 1.536-2.14v.002L17.35 1.76A1.62 1.62 0 0 0 15.816.657H8.184A1.62 1.62 0 0 0 6.65 1.76L.086 21.204a1.62 1.62 0 0 0 1.536 2.139h4.741a1.62 1.62 0 0 0 1.535-1.103l.977-2.892 4.947 3.675c.28.208.618.32.966.32m-3.084-12.531 3.624 10.739a.54.54 0 0 1-.51.713v-.001h-.03a.54.54 0 0 1-.322-.106l-9.287-6.9h4.853m6.313 7.006c.116-.326.13-.694.007-1.058L9.79 1.76a1.722 1.722 0 0 0-.007-.02h6.034a.54.54 0 0 1 .512.366l6.562 19.445a.54.54 0 0 1-.338.684" />
    </symbol>
    <symbol id="mongodb" role="img" viewBox="0 0 24 24">
        <title>MongoDB</title>
        <path
            d="M17.193 9.555c-1.264-5.58-4.252-7.414-4.573-8.115-.28-.394-.53-.954-.735-1.44-.036.495-.055.685-.523 1.184-.723.566-4.438 3.682-4.74 10.02-.282 5.912 4.27 9.435 4.888 9.884l.07.05A73.49 73.49 0 0111.91 24h.481c.114-1.032.284-2.056.51-3.07.417-.296.604-.463.85-.693a11.342 11.342 0 003.639-8.464c.01-.814-.103-1.662-.197-2.218zm-5.336 8.195s0-8.291.275-8.29c.213 0 .49 10.695.49 10.695-.381-.045-.765-1.76-.765-2.405z" />
    </symbol>
    <symbol id="mui" role="img" viewBox="0 0 24 24">
        <title>MUI</title>
        <path
            d="M20.229 15.793a.666.666 0 0 0 .244-.243.666.666 0 0 0 .09-.333l.012-3.858a.666.666 0 0 1 .09-.333.666.666 0 0 1 .245-.243L23 9.58a.667.667 0 0 1 .333-.088.667.667 0 0 1 .333.09.667.667 0 0 1 .244.243.666.666 0 0 1 .089.333v7.014a.667.667 0 0 1-.335.578l-7.893 4.534a.666.666 0 0 1-.662 0l-6.194-3.542a.667.667 0 0 1-.246-.244.667.667 0 0 1-.09-.335v-3.537c0-.004.004-.006.008-.004s.008 0 .008-.005v-.004c0-.003.002-.005.004-.007l5.102-2.93c.004-.003.002-.01-.003-.01a.005.005 0 0 1-.004-.002.005.005 0 0 1-.001-.004l.01-3.467a.667.667 0 0 0-.333-.58.667.667 0 0 0-.667 0L8.912 9.799a.667.667 0 0 1-.665 0l-3.804-2.19a.667.667 0 0 0-.999.577v6.267a.667.667 0 0 1-.332.577.666.666 0 0 1-.332.09.667.667 0 0 1-.333-.088L.336 13.825a.667.667 0 0 1-.246-.244.667.667 0 0 1-.09-.336L.019 2.292a.667.667 0 0 1 .998-.577l7.23 4.153a.667.667 0 0 0 .665 0l7.228-4.153a.666.666 0 0 1 .333-.088.666.666 0 0 1 .333.09.667.667 0 0 1 .244.244.667.667 0 0 1 .088.333V13.25c0 .117-.03.232-.089.334a.667.667 0 0 1-.245.244l-3.785 2.18a.667.667 0 0 0-.245.245.666.666 0 0 0-.089.334.667.667 0 0 0 .09.334.666.666 0 0 0 .247.244l2.088 1.189a.67.67 0 0 0 .33.087.667.667 0 0 0 .332-.089l4.457-2.56Zm.438-9.828a.666.666 0 0 0 .09.335.666.666 0 0 0 .248.244.667.667 0 0 0 .67-.008l2.001-1.2a.666.666 0 0 0 .237-.243.667.667 0 0 0 .087-.329V2.32a.667.667 0 0 0-.091-.335.667.667 0 0 0-.584-.33.667.667 0 0 0-.334.094l-2 1.2a.666.666 0 0 0-.238.243.668.668 0 0 0-.086.329v2.445Z" />
    </symbol>
    <symbol id="music_icon" viewBox="0 0 24 24" stroke="none">
        <path d=" M20 2.75a.75.75 0 0 0-.965-.718l-10 3a.75.75 0 0 0-.535.718v9.877a3.5 3.5 0 1 0 1.496 2.702.756.756 0 0 0
 .004-.079v-7.942l8.5-2.55v5.87a3.5 3.5 0 1 0 1.496 2.702.764.764 0 0 0 .004-.08V2.75Z" />
    </symbol>
    <symbol id="mysql" role="img" viewBox="0 0 24 24">
        <title>MySQL</title>
        <path
            d="M16.405 5.501c-.115 0-.193.014-.274.033v.013h.014c.054.104.146.18.214.273.054.107.1.214.154.32l.014-.015c.094-.066.14-.172.14-.333-.04-.047-.046-.094-.08-.14-.04-.067-.126-.1-.18-.153zM5.77 18.695h-.927a50.854 50.854 0 00-.27-4.41h-.008l-1.41 4.41H2.45l-1.4-4.41h-.01a72.892 72.892 0 00-.195 4.41H0c.055-1.966.192-3.81.41-5.53h1.15l1.335 4.064h.008l1.347-4.064h1.095c.242 2.015.384 3.86.428 5.53zm4.017-4.08c-.378 2.045-.876 3.533-1.492 4.46-.482.716-1.01 1.073-1.583 1.073-.153 0-.34-.046-.566-.138v-.494c.11.017.24.026.386.026.268 0 .483-.075.647-.222.197-.18.295-.382.295-.605 0-.155-.077-.47-.23-.944L6.23 14.615h.91l.727 2.36c.164.536.233.91.205 1.123.4-1.064.678-2.227.835-3.483zm12.325 4.08h-2.63v-5.53h.885v4.85h1.745zm-3.32.135l-1.016-.5c.09-.076.177-.158.255-.25.433-.506.648-1.258.648-2.253 0-1.83-.718-2.746-2.155-2.746-.704 0-1.254.232-1.65.697-.43.508-.646 1.256-.646 2.245 0 .972.19 1.686.574 2.14.35.41.877.615 1.583.615.264 0 .506-.033.725-.098l1.325.772.36-.622zM15.5 17.588c-.225-.36-.337-.94-.337-1.736 0-1.393.424-2.09 1.27-2.09.443 0 .77.167.977.5.224.362.336.936.336 1.723 0 1.404-.424 2.108-1.27 2.108-.445 0-.77-.167-.978-.5zm-1.658-.425c0 .47-.172.856-.516 1.156-.344.3-.803.45-1.384.45-.543 0-1.064-.172-1.573-.515l.237-.476c.438.22.833.328 1.19.328.332 0 .593-.073.783-.22a.754.754 0 00.3-.615c0-.33-.23-.61-.648-.845-.388-.213-1.163-.657-1.163-.657-.422-.307-.632-.636-.632-1.177 0-.45.157-.81.47-1.085.315-.278.72-.415 1.22-.415.512 0 .98.136 1.4.41l-.213.476a2.726 2.726 0 00-1.064-.23c-.283 0-.502.068-.654.206a.685.685 0 00-.248.524c0 .328.234.61.666.85.393.215 1.187.67 1.187.67.433.305.648.63.648 1.168zm9.382-5.852c-.535-.014-.95.04-1.297.188-.1.04-.26.04-.274.167.055.053.063.14.11.214.08.134.218.313.346.407.14.11.28.216.427.31.26.16.555.255.81.416.145.094.293.213.44.313.073.05.12.14.214.172v-.02c-.046-.06-.06-.147-.105-.214-.067-.067-.134-.127-.2-.193a3.223 3.223 0 00-.695-.675c-.214-.146-.682-.35-.77-.595l-.013-.014c.146-.013.32-.066.46-.106.227-.06.435-.047.67-.106.106-.027.213-.06.32-.094v-.06c-.12-.12-.21-.283-.334-.395a8.867 8.867 0 00-1.104-.823c-.21-.134-.476-.22-.697-.334-.08-.04-.214-.06-.26-.127-.12-.146-.19-.34-.275-.514a17.69 17.69 0 01-.547-1.163c-.12-.262-.193-.523-.34-.763-.69-1.137-1.437-1.826-2.586-2.5-.247-.14-.543-.2-.856-.274-.167-.008-.334-.02-.5-.027-.11-.047-.216-.174-.31-.235-.38-.24-1.364-.76-1.644-.072-.18.434.267.862.422 1.082.115.153.26.328.34.5.047.116.06.235.107.356.106.294.207.622.347.897.073.14.153.287.247.413.054.073.146.107.167.227-.094.136-.1.334-.154.5-.24.757-.146 1.693.194 2.25.107.166.362.534.703.393.3-.12.234-.5.32-.835.02-.08.007-.133.048-.187v.015c.094.188.188.367.274.555.206.328.566.668.867.895.16.12.287.328.487.402v-.02h-.015c-.043-.058-.1-.086-.154-.133a3.445 3.445 0 01-.35-.4 8.76 8.76 0 01-.747-1.218c-.11-.21-.202-.436-.29-.643-.04-.08-.04-.2-.107-.24-.1.146-.247.273-.32.453-.127.288-.14.642-.188 1.01-.027.007-.014 0-.027.014-.214-.052-.287-.274-.367-.46-.2-.475-.233-1.238-.06-1.785.047-.14.247-.582.167-.716-.042-.127-.174-.2-.247-.303a2.478 2.478 0 01-.24-.427c-.16-.374-.24-.788-.414-1.162-.08-.173-.22-.354-.334-.513-.127-.18-.267-.307-.368-.52-.033-.073-.08-.194-.027-.274.014-.054.042-.075.094-.09.088-.072.335.022.422.062.247.1.455.194.662.334.094.066.195.193.315.226h.14c.214.047.455.014.655.073.355.114.675.28.962.46a5.953 5.953 0 012.085 2.286c.08.154.115.295.188.455.14.33.313.663.455.982.14.315.275.636.476.897.1.14.502.213.682.286.133.06.34.115.46.188.23.14.454.3.67.454.11.076.443.243.463.378z" />
    </symbol>
    <symbol id="netlify" role="img" viewBox="0 0 24 24">
        <title>Netlify</title>
        <path
            d="M17.3877 8.3286l-.0088-.0037c-.005-.002-.01-.0038-.0144-.0082a.0689.0689 0 0 1-.0176-.0582l.4839-2.9581 2.269 2.2696L17.74 8.574a.052.052 0 0 1-.0206.0037H17.71a.0647.0647 0 0 1-.0126-.0106 1.074 1.074 0 0 0-.3097-.2385zm3.291-.1802l2.4262 2.426c.5039.5045.7561.7562.8481 1.0479.0138.0431.025.0863.0338.1308l-5.798-2.4555a.4557.4557 0 0 0-.0093-.0038c-.0232-.0094-.0501-.02-.0501-.0439 0-.0237.0275-.035.0507-.0444l.0075-.0031zm3.2092 4.3833c-.1252.2354-.3693.4795-.7824.8932l-2.7353 2.7347-3.5377-.7367-.0188-.0038c-.0313-.005-.0645-.0107-.0645-.0388a1.0678 1.0678 0 0 0-.41-.7467c-.0144-.0144-.0106-.037-.0063-.0576 0-.003 0-.0063.0013-.0088l.6654-4.0848.0025-.0138c.0038-.0313.0094-.0676.0376-.0676a1.0829 1.0829 0 0 0 .726-.4162c.0056-.0063.0094-.0131.017-.0169.02-.0094.0437 0 .0644.0088l6.0402 2.555zm-4.1467 4.257l-4.498 4.4979.77-4.732.0012-.0063a.083.083 0 0 1 .0038-.0182c.0063-.015.0226-.0213.0382-.0275l.0075-.0031a1.158 1.158 0 0 0 .435-.3236c.015-.0176.0332-.0345.0564-.0376a.0563.0563 0 0 1 .0181 0l3.1672.651zm-5.45 5.4499l-.507.507-5.6052-8.1007a.2654.2654 0 0 0-.0062-.0088c-.0088-.012-.0182-.0238-.0163-.0376.0006-.01.0069-.0188.0138-.0263l.0062-.0081c.017-.025.0313-.05.047-.077l.0125-.0219.0019-.0019c.0087-.015.0169-.0294.0319-.0376.0131-.0063.0313-.0038.0457-.0006l6.2098 1.2807a.1027.1027 0 0 1 .0476.0206c.008.0081.01.017.0119.027a1.0998 1.0998 0 0 0 .6434.7354c.0175.0088.01.0282.002.0488a.149.149 0 0 0-.0095.0282c-.0782.4757-.7492 4.568-.9295 5.6728zm-1.059 1.0584c-.3737.37-.594.5659-.8432.6447a1.2519 1.2519 0 0 1-.7549 0c-.2916-.0926-.5439-.3442-1.0478-.8487l-5.629-5.629 1.4704-2.2802a.0938.0938 0 0 1 .025-.0294c.0157-.0113.0382-.0063.057 0a1.5235 1.5235 0 0 0 1.0253-.052c.0169-.0063.0338-.0106.0469.0013a.119.119 0 0 1 .0175.02l5.6327 8.174zm-8.8175-6.3756L3.1234 15.63l2.55-1.0879a.0526.0526 0 0 1 .0207-.0044c.0213 0 .0338.0213.045.0407a1.8214 1.8214 0 0 0 .0814.1152l.0082.01c.0075.0106.0025.0213-.005.0313l-1.4084 2.1864zm-1.8628-1.8628L.9183 13.4249c-.278-.2779-.4795-.4794-.6197-.6528l4.9674 1.0303a.5258.5258 0 0 0 .0187.003c.0307.005.0645.0107.0645.0395 0 .0313-.037.0457-.0682.0576l-.0144.0063zM.0132 11.932a1.2519 1.2519 0 0 1 .0563-.3098c.0927-.2917.3443-.5434.8488-1.0478l2.0906-2.0906a1361.7196 1361.7196 0 0 0 2.8955 4.1855c.017.0226.0357.0476.0163.0664-.0914.1008-.1828.211-.2473.3305a.1001.1001 0 0 1-.0313.0388c-.008.005-.0169.003-.0262.0013h-.0013l-5.6014-1.175zm3.5553-4.0078l2.811-2.811c.2641.1157 1.2256.522 2.0856.885.651.2754 1.2443.5258 1.4308.6071.0188.0076.0357.015.0439.0338.005.0113.0025.0257 0 .0376a1.2537 1.2537 0 0 0 .3273 1.1442c.0188.0188 0 .0457-.0163.0689l-.0088.0131-2.8542 4.421c-.0075.0124-.0144.023-.0269.0312-.015.0094-.0363.005-.0538.0006a1.4234 1.4234 0 0 0-.34-.0463c-.1026 0-.214.0188-.3266.0395h-.0007c-.0125.0019-.0238.0044-.0338-.0031a.1314.1314 0 0 1-.0281-.032zm3.3787-3.3788l3.6391-3.639c.504-.5039.7562-.7561 1.0478-.8481a1.2519 1.2519 0 0 1 .755 0c.2916.092.5438.3442 1.0477.848l.7887.7888-2.5882 4.0084a.097.097 0 0 1-.0257.03c-.0156.0107-.0375.0063-.0563 0a1.3126 1.3126 0 0 0-1.2018.2316c-.0169.0176-.042.0075-.0632-.0019-.338-.147-2.967-1.258-3.343-1.4177zm7.8278-2.3009l2.3898 2.3898-.5758 3.5665v.0094a.0845.0845 0 0 1-.005.0238c-.0063.0125-.0188.015-.0313.0188a1.1454 1.1454 0 0 0-.343.1709.0964.0964 0 0 0-.0125.0106c-.007.0075-.0138.0144-.025.0157a.0714.0714 0 0 1-.027-.0044l-3.6416-1.5473-.007-.0031c-.0231-.0094-.0506-.0207-.0506-.0445a1.3758 1.3758 0 0 0-.194-.5727c-.0176-.0288-.037-.0588-.022-.0883zm-2.461 5.3868l3.4138 1.446c.0188.0087.0394.0168.0476.0362a.0663.0663 0 0 1 0 .0357.848.848 0 0 0-.0188.1646v.0958c0 .0238-.0244.0338-.047.0432l-.0069.0025c-.5408.231-7.5924 3.238-7.603 3.238-.0107 0-.022 0-.0326-.0107-.0188-.0188 0-.0451.0169-.0689a.4757.4757 0 0 0 .0087-.0125l2.8054-4.344.005-.0074c.0163-.0263.035-.0557.0651-.0557l.0282.0043c.0638.0088.1202.017.1771.017.4257 0 .82-.2072 1.0579-.5615a.1001.1001 0 0 1 .0212-.025c.017-.0126.042-.0063.0614.0024zm-3.9095 5.7492l7.6863-3.278s.0113 0 .022.0106c.0419.042.0776.0701.112.0964l.0169.0107c.0156.0088.0313.0188.0325.035 0 .0063 0 .01-.0013.0157l-.6584 4.0447-.0025.0163c-.0044.0313-.0088.067-.0382.067a1.0822 1.0822 0 0 0-.8594.5301l-.0031.005c-.0088.0144-.017.0282-.0313.0357-.0131.0063-.03.0038-.0438.0006L8.5064 13.706c-.0063-.0013-.0952-.3249-.102-.3255z" />
    </symbol>
    <symbol id="nextdotjs" role="img" viewBox="0 0 24 24">
        <title>Next.js</title>
        <path
            d="M11.5725 0c-.1763 0-.3098.0013-.3584.0067-.0516.0053-.2159.021-.3636.0328-3.4088.3073-6.6017 2.1463-8.624 4.9728C1.1004 6.584.3802 8.3666.1082 10.255c-.0962.659-.108.8537-.108 1.7474s.012 1.0884.108 1.7476c.652 4.506 3.8591 8.2919 8.2087 9.6945.7789.2511 1.6.4223 2.5337.5255.3636.04 1.9354.04 2.299 0 1.6117-.1783 2.9772-.577 4.3237-1.2643.2065-.1056.2464-.1337.2183-.1573-.0188-.0139-.8987-1.1938-1.9543-2.62l-1.919-2.592-2.4047-3.5583c-1.3231-1.9564-2.4117-3.556-2.4211-3.556-.0094-.0026-.0187 1.5787-.0235 3.509-.0067 3.3802-.0093 3.5162-.0516 3.596-.061.115-.108.1618-.2064.2134-.075.0374-.1408.0445-.495.0445h-.406l-.1078-.068a.4383.4383 0 01-.1572-.1712l-.0493-.1056.0053-4.703.0067-4.7054.0726-.0915c.0376-.0493.1174-.1125.1736-.143.0962-.047.1338-.0517.5396-.0517.4787 0 .5584.0187.6827.1547.0353.0377 1.3373 1.9987 2.895 4.3608a10760.433 10760.433 0 004.7344 7.1706l1.9002 2.8782.096-.0633c.8518-.5536 1.7525-1.3418 2.4657-2.1627 1.5179-1.7429 2.4963-3.868 2.8247-6.134.0961-.6591.1078-.854.1078-1.7475 0-.8937-.012-1.0884-.1078-1.7476-.6522-4.506-3.8592-8.2919-8.2087-9.6945-.7672-.2487-1.5836-.42-2.4985-.5232-.169-.0176-1.0835-.0366-1.6123-.037zm4.0685 7.217c.3473 0 .4082.0053.4857.047.1127.0562.204.1642.237.2767.0186.061.0234 1.3653.0186 4.3044l-.0067 4.2175-.7436-1.14-.7461-1.14v-3.066c0-1.982.0093-3.0963.0234-3.1502.0375-.1313.1196-.2346.2323-.2955.0961-.0494.1313-.054.4997-.054z" />
    </symbol>
    <symbol id="nodedotjs" role="img" viewBox="0 0 24 24">
        <title>Node.js</title>
        <path
            d="M11.998,24c-0.321,0-0.641-0.084-0.922-0.247l-2.936-1.737c-0.438-0.245-0.224-0.332-0.08-0.383 c0.585-0.203,0.703-0.25,1.328-0.604c0.065-0.037,0.151-0.023,0.218,0.017l2.256,1.339c0.082,0.045,0.197,0.045,0.272,0l8.795-5.076 c0.082-0.047,0.134-0.141,0.134-0.238V6.921c0-0.099-0.053-0.192-0.137-0.242l-8.791-5.072c-0.081-0.047-0.189-0.047-0.271,0 L3.075,6.68C2.99,6.729,2.936,6.825,2.936,6.921v10.15c0,0.097,0.054,0.189,0.139,0.235l2.409,1.392 c1.307,0.654,2.108-0.116,2.108-0.89V7.787c0-0.142,0.114-0.253,0.256-0.253h1.115c0.139,0,0.255,0.112,0.255,0.253v10.021 c0,1.745-0.95,2.745-2.604,2.745c-0.508,0-0.909,0-2.026-0.551L2.28,18.675c-0.57-0.329-0.922-0.945-0.922-1.604V6.921 c0-0.659,0.353-1.275,0.922-1.603l8.795-5.082c0.557-0.315,1.296-0.315,1.848,0l8.794,5.082c0.57,0.329,0.924,0.944,0.924,1.603 v10.15c0,0.659-0.354,1.273-0.924,1.604l-8.794,5.078C12.643,23.916,12.324,24,11.998,24z M19.099,13.993 c0-1.9-1.284-2.406-3.987-2.763c-2.731-0.361-3.009-0.548-3.009-1.187c0-0.528,0.235-1.233,2.258-1.233 c1.807,0,2.473,0.389,2.747,1.607c0.024,0.115,0.129,0.199,0.247,0.199h1.141c0.071,0,0.138-0.031,0.186-0.081 c0.048-0.054,0.074-0.123,0.067-0.196c-0.177-2.098-1.571-3.076-4.388-3.076c-2.508,0-4.004,1.058-4.004,2.833 c0,1.925,1.488,2.457,3.895,2.695c2.88,0.282,3.103,0.703,3.103,1.269c0,0.983-0.789,1.402-2.642,1.402 c-2.327,0-2.839-0.584-3.011-1.742c-0.02-0.124-0.126-0.215-0.253-0.215h-1.137c-0.141,0-0.254,0.112-0.254,0.253 c0,1.482,0.806,3.248,4.655,3.248C17.501,17.007,19.099,15.91,19.099,13.993z" />
    </symbol>
    <symbol id="npm" role="img" viewBox="0 0 24 24">
        <title>npm</title>
        <path
            d="M1.763 0C.786 0 0 .786 0 1.763v20.474C0 23.214.786 24 1.763 24h20.474c.977 0 1.763-.786 1.763-1.763V1.763C24 .786 23.214 0 22.237 0zM5.13 5.323l13.837.019-.009 13.836h-3.464l.01-10.382h-3.456L12.04 19.17H5.113z" />
    </symbol>
    <symbol id="php" role="img" viewBox="0 0 24 24">
        <title>PHP</title>
        <path
            d="M7.01 10.207h-.944l-.515 2.648h.838c.556 0 .97-.105 1.242-.314.272-.21.455-.559.55-1.049.092-.47.05-.802-.124-.995-.175-.193-.523-.29-1.047-.29zM12 5.688C5.373 5.688 0 8.514 0 12s5.373 6.313 12 6.313S24 15.486 24 12c0-3.486-5.373-6.312-12-6.312zm-3.26 7.451c-.261.25-.575.438-.917.551-.336.108-.765.164-1.285.164H5.357l-.327 1.681H3.652l1.23-6.326h2.65c.797 0 1.378.209 1.744.628.366.418.476 1.002.33 1.752a2.836 2.836 0 0 1-.305.847c-.143.255-.33.49-.561.703zm4.024.715l.543-2.799c.063-.318.039-.536-.068-.651-.107-.116-.336-.174-.687-.174H11.46l-.704 3.625H9.388l1.23-6.327h1.367l-.327 1.682h1.218c.767 0 1.295.134 1.586.401s.378.7.263 1.299l-.572 2.944h-1.389zm7.597-2.265a2.782 2.782 0 0 1-.305.847c-.143.255-.33.49-.561.703a2.44 2.44 0 0 1-.917.551c-.336.108-.765.164-1.286.164h-1.18l-.327 1.682h-1.378l1.23-6.326h2.649c.797 0 1.378.209 1.744.628.366.417.477 1.001.331 1.751zM17.766 10.207h-.943l-.516 2.648h.838c.557 0 .971-.105 1.242-.314.272-.21.455-.559.551-1.049.092-.47.049-.802-.125-.995s-.524-.29-1.047-.29z" />
    </symbol>
    <symbol id="playwright" role="img" viewBox="0 0 24 24">
        <title>Playwright</title>
        <path
            d="M23.996 7.462c-.056.837-.257 2.135-.716 3.85-.995 3.715-4.27 10.874-10.42 9.227-6.15-1.65-5.407-9.487-4.412-13.201.46-1.716.934-2.94 1.305-3.694.42-.853.846-.289 1.815.523.684.573 2.41 1.791 5.011 2.488 2.601.697 4.706.506 5.583.352 1.245-.219 1.897-.494 1.834.455Zm-9.807 3.863s-.127-1.819-1.773-2.286c-1.644-.467-2.613 1.04-2.613 1.04Zm4.058 4.539-7.769-2.172s.446 2.306 3.338 3.153c2.862.836 4.43-.98 4.43-.981Zm2.701-2.51s-.13-1.818-1.773-2.286c-1.644-.469-2.612 1.038-2.612 1.038ZM8.57 18.23c-4.749 1.279-7.261-4.224-8.021-7.08C.197 9.831.044 8.832.003 8.188c-.047-.73.455-.52 1.415-.354.677.118 2.3.261 4.308-.28a11.28 11.28 0 0 0 2.41-.956c-.058.197-.114.4-.17.61-.433 1.618-.827 4.055-.632 6.426-1.976.732-2.267 2.423-2.267 2.423l2.524-.715c.227 1.002.6 1.987 1.15 2.838a5.914 5.914 0 0 1-.171.049Zm-4.188-6.298c1.265-.333 1.363-1.631 1.363-1.631l-3.374.888s.745 1.076 2.01.743Z" />
    </symbol>
    <symbol id="pnpm" role="img" viewBox="0 0 24 24">
        <title>pnpm</title>
        <path
            d="M0 0v7.5h7.5V0zm8.25 0v7.5h7.498V0zm8.25 0v7.5H24V0zM8.25 8.25v7.5h7.498v-7.5zm8.25 0v7.5H24v-7.5zM0 16.5V24h7.5v-7.5zm8.25 0V24h7.498v-7.5zm8.25 0V24H24v-7.5z" />
    </symbol>
    <symbol id="postgresql" role="img" viewBox="0 0 24 24">
        <title>PostgreSQL</title>
        <path
            d="M23.5594 14.7228a.5269.5269 0 0 0-.0563-.1191c-.139-.2632-.4768-.3418-1.0074-.2321-1.6533.3411-2.2935.1312-2.5256-.0191 1.342-2.0482 2.445-4.522 3.0411-6.8297.2714-1.0507.7982-3.5237.1222-4.7316a1.5641 1.5641 0 0 0-.1509-.235C21.6931.9086 19.8007.0248 17.5099.0005c-1.4947-.0158-2.7705.3461-3.1161.4794a9.449 9.449 0 0 0-.5159-.0816 8.044 8.044 0 0 0-1.3114-.1278c-1.1822-.0184-2.2038.2642-3.0498.8406-.8573-.3211-4.7888-1.645-7.2219.0788C.9359 2.1526.3086 3.8733.4302 6.3043c.0409.818.5069 3.334 1.2423 5.7436.4598 1.5065.9387 2.7019 1.4334 3.582.553.9942 1.1259 1.5933 1.7143 1.7895.4474.1491 1.1327.1441 1.8581-.7279.8012-.9635 1.5903-1.8258 1.9446-2.2069.4351.2355.9064.3625 1.39.3772a.0569.0569 0 0 0 .0004.0041 11.0312 11.0312 0 0 0-.2472.3054c-.3389.4302-.4094.5197-1.5002.7443-.3102.064-1.1344.2339-1.1464.8115-.0025.1224.0329.2309.0919.3268.2269.4231.9216.6097 1.015.6331 1.3345.3335 2.5044.092 3.3714-.6787-.017 2.231.0775 4.4174.3454 5.0874.2212.5529.7618 1.9045 2.4692 1.9043.2505 0 .5263-.0291.8296-.0941 1.7819-.3821 2.5557-1.1696 2.855-2.9059.1503-.8707.4016-2.8753.5388-4.1012.0169-.0703.0357-.1207.057-.1362.0007-.0005.0697-.0471.4272.0307a.3673.3673 0 0 0 .0443.0068l.2539.0223.0149.001c.8468.0384 1.9114-.1426 2.5312-.4308.6438-.2988 1.8057-1.0323 1.5951-1.6698zM2.371 11.8765c-.7435-2.4358-1.1779-4.8851-1.2123-5.5719-.1086-2.1714.4171-3.6829 1.5623-4.4927 1.8367-1.2986 4.8398-.5408 6.108-.13-.0032.0032-.0066.0061-.0098.0094-2.0238 2.044-1.9758 5.536-1.9708 5.7495-.0002.0823.0066.1989.0162.3593.0348.5873.0996 1.6804-.0735 2.9184-.1609 1.1504.1937 2.2764.9728 3.0892.0806.0841.1648.1631.2518.2374-.3468.3714-1.1004 1.1926-1.9025 2.1576-.5677.6825-.9597.5517-1.0886.5087-.3919-.1307-.813-.5871-1.2381-1.3223-.4796-.839-.9635-2.0317-1.4155-3.5126zm6.0072 5.0871c-.1711-.0428-.3271-.1132-.4322-.1772.0889-.0394.2374-.0902.4833-.1409 1.2833-.2641 1.4815-.4506 1.9143-1.0002.0992-.126.2116-.2687.3673-.4426a.3549.3549 0 0 0 .0737-.1298c.1708-.1513.2724-.1099.4369-.0417.156.0646.3078.26.3695.4752.0291.1016.0619.2945-.0452.4444-.9043 1.2658-2.2216 1.2494-3.1676 1.0128zm2.094-3.988-.0525.141c-.133.3566-.2567.6881-.3334 1.003-.6674-.0021-1.3168-.2872-1.8105-.8024-.6279-.6551-.9131-1.5664-.7825-2.5004.1828-1.3079.1153-2.4468.079-3.0586-.005-.0857-.0095-.1607-.0122-.2199.2957-.2621 1.6659-.9962 2.6429-.7724.4459.1022.7176.4057.8305.928.5846 2.7038.0774 3.8307-.3302 4.7363-.084.1866-.1633.3629-.2311.5454zm7.3637 4.5725c-.0169.1768-.0358.376-.0618.5959l-.146.4383a.3547.3547 0 0 0-.0182.1077c-.0059.4747-.054.6489-.115.8693-.0634.2292-.1353.4891-.1794 1.0575-.11 1.4143-.8782 2.2267-2.4172 2.5565-1.5155.3251-1.7843-.4968-2.0212-1.2217a6.5824 6.5824 0 0 0-.0769-.2266c-.2154-.5858-.1911-1.4119-.1574-2.5551.0165-.5612-.0249-1.9013-.3302-2.6462.0044-.2932.0106-.5909.019-.8918a.3529.3529 0 0 0-.0153-.1126 1.4927 1.4927 0 0 0-.0439-.208c-.1226-.4283-.4213-.7866-.7797-.9351-.1424-.059-.4038-.1672-.7178-.0869.067-.276.1831-.5875.309-.9249l.0529-.142c.0595-.16.134-.3257.213-.5012.4265-.9476 1.0106-2.2453.3766-5.1772-.2374-1.0981-1.0304-1.6343-2.2324-1.5098-.7207.0746-1.3799.3654-1.7088.5321a5.6716 5.6716 0 0 0-.1958.1041c.0918-1.1064.4386-3.1741 1.7357-4.4823a4.0306 4.0306 0 0 1 .3033-.276.3532.3532 0 0 0 .1447-.0644c.7524-.5706 1.6945-.8506 2.802-.8325.4091.0067.8017.0339 1.1742.081 1.939.3544 3.2439 1.4468 4.0359 2.3827.8143.9623 1.2552 1.9315 1.4312 2.4543-1.3232-.1346-2.2234.1268-2.6797.779-.9926 1.4189.543 4.1729 1.2811 5.4964.1353.2426.2522.4522.2889.5413.2403.5825.5515.9713.7787 1.2552.0696.087.1372.1714.1885.245-.4008.1155-1.1208.3825-1.0552 1.717-.0123.1563-.0423.4469-.0834.8148-.0461.2077-.0702.4603-.0994.7662zm.8905-1.6211c-.0405-.8316.2691-.9185.5967-1.0105a2.8566 2.8566 0 0 0 .135-.0406 1.202 1.202 0 0 0 .1342.103c.5703.3765 1.5823.4213 3.0068.1344-.2016.1769-.5189.3994-.9533.6011-.4098.1903-1.0957.333-1.7473.3636-.7197.0336-1.0859-.0807-1.1721-.151zm.5695-9.2712c-.0059.3508-.0542.6692-.1054 1.0017-.055.3576-.112.7274-.1264 1.1762-.0142.4368.0404.8909.0932 1.3301.1066.887.216 1.8003-.2075 2.7014a3.5272 3.5272 0 0 1-.1876-.3856c-.0527-.1276-.1669-.3326-.3251-.6162-.6156-1.1041-2.0574-3.6896-1.3193-4.7446.3795-.5427 1.3408-.5661 2.1781-.463zm.2284 7.0137a12.3762 12.3762 0 0 0-.0853-.1074l-.0355-.0444c.7262-1.1995.5842-2.3862.4578-3.4385-.0519-.4318-.1009-.8396-.0885-1.2226.0129-.4061.0666-.7543.1185-1.0911.0639-.415.1288-.8443.1109-1.3505.0134-.0531.0188-.1158.0118-.1902-.0457-.4855-.5999-1.938-1.7294-3.253-.6076-.7073-1.4896-1.4972-2.6889-2.0395.5251-.1066 1.2328-.2035 2.0244-.1859 2.0515.0456 3.6746.8135 4.8242 2.2824a.908.908 0 0 1 .0667.1002c.7231 1.3556-.2762 6.2751-2.9867 10.5405zm-8.8166-6.1162c-.025.1794-.3089.4225-.6211.4225a.5821.5821 0 0 1-.0809-.0056c-.1873-.026-.3765-.144-.5059-.3156-.0458-.0605-.1203-.178-.1055-.2844.0055-.0401.0261-.0985.0925-.1488.1182-.0894.3518-.1226.6096-.0867.3163.0441.6426.1938.6113.4186zm7.9305-.4114c.0111.0792-.049.201-.1531.3102-.0683.0717-.212.1961-.4079.2232a.5456.5456 0 0 1-.075.0052c-.2935 0-.5414-.2344-.5607-.3717-.024-.1765.2641-.3106.5611-.352.297-.0414.6111.0088.6356.1851z" />
    </symbol>
    <symbol id="products" viewBox="0 0 34 23" fill="none">
        <path d="M1 3.58472H22.0643V12.7192H1V3.58472Z" stroke-width="2" />
        <path d="M8.75489 12.7251H33.0004L33.0005 22.0584H8.75501L8.75489 12.7251Z" stroke-width="2" />
        <path d="M26.9443 9.64038H30.5174V12.2193H26.9443V9.64038Z" />
        <path d="M17.2021 0.5H20.7752V3.07895H17.2021V0.5Z" />
        <path d="M9.64648 0.5H13.2196V3.07895H9.64648V0.5Z" />
        <path d="M2.09082 0.5H5.66392V3.07895H2.09082V0.5Z" />
        <path d="M3.88574 6.26025H4.25258V9.7168H3.88574V6.26025Z" />
        <path d="M29.3965 16.0452H29.7633V19.5017H29.3965V16.0452Z" />
    </symbol>
    <symbol id="puppeteer" role="img" viewBox="0 0 24 24">
        <title>Puppeteer</title>
        <path
            d="M17.89 17.86h.397v.174h.028a.466.466 0 0 1 .619-.155l-.11.373a.364.364 0 0 0-.184-.043.288.288 0 0 0-.243.11.471.471 0 0 0-.082.29v.635h-.424zm-.26 1.048a.766.766 0 0 1-.27.28.741.741 0 0 1-.398.101.822.822 0 0 1-.3-.054.752.752 0 0 1-.237-.155.704.704 0 0 1-.214-.529c0-.1.018-.194.056-.282a.719.719 0 0 1 .156-.235.725.725 0 0 1 .529-.22.75.75 0 0 1 .302.056.642.642 0 0 1 .353.384.846.846 0 0 1 .037.402h-1.02c.02.09.063.156.127.198a.387.387 0 0 0 .214.062.345.345 0 0 0 .32-.18zm-.376-.54a.227.227 0 0 0-.03-.074.21.21 0 0 0-.058-.07.264.264 0 0 0-.093-.054.325.325 0 0 0-.43.198zm-1.242.54a.766.766 0 0 1-.27.28.741.741 0 0 1-.397.101.822.822 0 0 1-.3-.054.752.752 0 0 1-.237-.155.704.704 0 0 1-.215-.529c0-.1.019-.194.057-.282a.719.719 0 0 1 .155-.235.725.725 0 0 1 .529-.22c.115 0 .215.018.302.056a.642.642 0 0 1 .353.384.846.846 0 0 1 .037.402h-1.02c.02.09.063.156.127.198a.387.387 0 0 0 .215.062.345.345 0 0 0 .32-.18zm-.376-.54a.227.227 0 0 0-.028-.074.21.21 0 0 0-.06-.07.264.264 0 0 0-.093-.054.325.325 0 0 0-.43.198zm-1.918-.144l-.243-.004.004-.388.25.012-.007-.41.412.004-.016.39.367.02-.012.355-.365.008.013.47c-.012.092.022.145.027.194.08.1.137.068.137.068.02-.008.162-.027.177-.038l.04.388c-.138.082-.377.036-.377.036-.253-.037-.383-.217-.384-.293-.025-.068-.018-.21-.029-.29zm-.412.717c-.037.126-.172.218-.283.285a.772.772 0 0 1-.406.11.944.944 0 0 1-.32-.077c-.09-.038-.165-.113-.233-.18-.068-.065-.093-.142-.131-.23a.822.822 0 0 1-.045-.31c-.015-.194.126-.378.212-.505.28-.238.49-.22.49-.22.387-.075.696.288.718.437.03.086.022.18.022.28-.005.054 0 .05-.031.125h-1.037c.02.09.063.192.104.24.048.06.128.06.207.06.079 0 .163.002.214-.032.053-.034.172-.072.203-.125zm-.37-.558a.41.41 0 0 0-.04-.097c-.014-.026-.05-.046-.076-.066-.024-.023-.071-.037-.109-.05a.31.31 0 0 0-.121-.023.274.274 0 0 0-.168.053c-.057.037-.097.12-.123.19zm-2.34-.372h.028a.388.388 0 0 1 .147-.138.498.498 0 0 1 .254-.06.623.623 0 0 1 .467.207.696.696 0 0 1 .147.232c.036.09.053.19.053.3a.8.8 0 0 1-.053.3.729.729 0 0 1-.147.234.647.647 0 0 1-.467.203.518.518 0 0 1-.254-.056.409.409 0 0 1-.147-.142h-.028l.028.198v.565H10.2V17.86h.396zm.336.198a.34.34 0 0 0-.31.201.37.37 0 0 0-.026.141c0 .053.008.101.025.145a.362.362 0 0 0 .074.107c.032.028.068.05.107.068a.378.378 0 0 0 .257 0 .348.348 0 0 0 .108-.068.304.304 0 0 0 .073-.107.358.358 0 0 0 .028-.145.338.338 0 0 0-.336-.342zm-2.026-.198h.03a.388.388 0 0 1 .146-.138.498.498 0 0 1 .254-.06.623.623 0 0 1 .466.207.696.696 0 0 1 .147.232c.036.09.054.19.054.3a.8.8 0 0 1-.054.3.729.729 0 0 1-.147.234.647.647 0 0 1-.466.203.518.518 0 0 1-.254-.056.409.409 0 0 1-.147-.142h-.029l.03.198v.565H8.51V17.86h.395zm.337.198a.34.34 0 0 0-.31.201.37.37 0 0 0-.027.141c0 .053.01.101.026.145a.362.362 0 0 0 .073.107c.032.028.068.05.108.068a.378.378 0 0 0 .257 0 .348.348 0 0 0 .107-.068.303.303 0 0 0 .074-.107.358.358 0 0 0 .028-.145.338.338 0 0 0-.21-.316.32.32 0 0 0-.126-.026zm-1.433.86h-.028a.47.47 0 0 1-.424.22c-.174 0-.303-.055-.387-.167a.703.703 0 0 1-.128-.438v-.825h.424v.777c0 .076.018.138.054.187.036.047.091.07.167.07a.245.245 0 0 0 .217-.11.497.497 0 0 0 .077-.288v-.636h.424v1.385H7.81zm-2.594.175V17.22h.724a.82.82 0 0 1 .285.048.677.677 0 0 1 .23.136.589.589 0 0 1 .15.206.67.67 0 0 1 .053.27.657.657 0 0 1-.054.267.617.617 0 0 1-.379.342.818.818 0 0 1-.285.048h-.283v.707zm.738-1.125c.092 0 .16-.023.206-.068a.234.234 0 0 0 .068-.172.234.234 0 0 0-.068-.173c-.045-.045-.114-.068-.206-.068h-.297v.48zM18.04 2.758l-.594.05.236 2.932.626.363zm-12.016.01L5.728 6.01l.624-.3.266-2.89zm-.49 5.183l-.044.557-1.247 3.137c-.216.224-.308.514-.307.825L3.93 22.84c0 .669.49 1.16 1.158 1.16H18.82c.67 0 1.25-.444 1.25-1.11V12.485c0-.306-.1-.56-.286-.774L18.44 7.748l-.006-.068-.575.257.267 3.33H5.846l.237-2.615.226-.588L6.143 8l.002-.03zm13.112 2.34l.323.987c-.088-.014-.158-.006-.245-.01zm-13.316.232l-.084.744c-.058-.005-.12.005-.172.007zm-.18 1.134l13.67.008c.47 0 .853.344.853.815v.796H4.313v-.796c0-.47.364-.823.837-.823zm.135.553a.27.27 0 0 0-.272.27c0 .36.542.36.542 0a.27.27 0 0 0-.27-.27zm.92 0c-.36 0-.36.54 0 .54s.362-.54.002-.54zm.896 0c-.39-.034-.39.572 0 .538.33-.028.33-.51 0-.538zm-2.788 1.424h15.36v9.153c0 .595-.38.846-.853.845l-13.668-.004a.828.828 0 0 1-.84-.841zm1.883 4.42c.07-.117.07-.11.068-.186-.008-.073-.004-.076-.053-.135-.054-.054-.123-.138-.2-.134h-.387l-.02.55h.407c.122-.002.16-.084.185-.094zm-.185-.83a.58.58 0 0 1 .442.171c.11.117.164.273.164.465a.65.65 0 0 1-.16.462c-.117.12-.263.21-.43.203l-.4.008-.004.774-.412-.013-.005-2.088zm1.793 1.26l-.012-.624.366-.004.004 1.435-.36.004v-.122a.582.582 0 0 1-.432.15.557.557 0 0 1-.413-.156c-.103-.11-.13-.31-.123-.46l-.004-.847h.372l-.008.77a.328.328 0 0 0 .075.23.25.25 0 0 0 .198.09c.225 0 .336-.156.336-.468zm1.805.077a.36.36 0 0 0-.11-.272c-.07-.073-.115-.118-.218-.115-.1 0-.186.018-.266.094a.388.388 0 0 0-.116.293c0 .12.038.217.117.29.07.073.168.114.27.114.102.003.166-.053.238-.126.087-.094.06-.21.085-.278zm-.262-.76c.176 0 .333.11.466.245a.71.71 0 0 1 .197.515.7.7 0 0 1-.197.512c-.093.16-.31.255-.486.254-.16.005-.36-.066-.428-.197l.004.76-.4.006-.02-2.04.416-.02v.157c.126-.103.285-.2.448-.193zm2.002.764c-.014-.16-.044-.203-.117-.283-.072-.074-.117-.087-.22-.085-.1 0-.178-.005-.257.07a.388.388 0 0 0-.116.294c0 .12.038.217.116.29.07.073.168.114.27.114.102.003.154-.065.226-.137.073-.08.086-.175.098-.263zm-.318-.75c.177 0 .389.096.522.23a.712.712 0 0 1 .198.516.7.7 0 0 1-.198.512c-.105.15-.344.255-.522.254a.475.475 0 0 1-.392-.197v.75l-.405.01-.023-2.034h.428v.137c.126-.103.23-.183.392-.177zm1.268.576l.637-.008c-.017-.074-.063-.12-.124-.166a.357.357 0 0 0-.406.003c-.085.068-.054.056-.107.17zm.313-.575c.179-.003.425.078.552.203.133.13.157.308.166.512l-.031.125h-1.03c.02.095.044.186.104.244.059.056.153.07.234.07a.5.5 0 0 0 .383-.17l.316.141c-.046.14-.187.223-.304.296a.757.757 0 0 1-.408.094c-.184.003-.378-.116-.507-.247a.718.718 0 0 1-.2-.523c0-.21.094-.382.23-.518.13-.132.31-.232.495-.227zm1.673 1.127c.08-.003.11.002.178-.038l.04.388c-.107.063-.135.038-.26.042a.633.633 0 0 1-.416-.155c-.094-.09-.097-.26-.097-.443l-.012-.513-.243-.004.004-.388.25.012-.007-.41.412.004-.016.39.367.02-.012.355-.365.008.003.507c.002.155.042.225.175.225zm.75-.54h.654a.32.32 0 0 0-.12-.186.357.357 0 0 0-.407.003.3.3 0 0 0-.127.184zm.338-.587c.185 0 .368.092.5.22.133.13.173.295.183.5v.12h-1.03a.4.4 0 0 0 .12.228.31.31 0 0 0 .218.086c.155 0 .297-.06.367-.18l.3.15c-.05.13-.12.19-.238.262a.958.958 0 0 1-.452.125.712.712 0 0 1-.502-.224.77.77 0 0 1-.208-.542c0-.21.106-.382.24-.518.132-.132.316-.232.5-.227zm1.27.587h.654a.32.32 0 0 0-.12-.186.357.357 0 0 0-.407.003.3.3 0 0 0-.127.184zm.337-.587a.74.74 0 0 1 .5.22c.134.13.174.295.184.5v.12h-1.03a.4.4 0 0 0 .12.228.31.31 0 0 0 .217.086c.154 0 .297-.06.368-.18l.3.15c-.05.13-.12.19-.238.262a.957.957 0 0 1-.454.125.713.713 0 0 1-.5-.224.77.77 0 0 1-.208-.542c0-.21.106-.382.24-.518.13-.132.315-.232.5-.227zm1.938.04l-.067.364-.18-.023c-.322 0-.36.207-.36.595v.49l-.393.005.008-1.43h.365l-.004.22c.145-.17.215-.286.63-.22zM17.535 7.91l.02-.366 1.317-.687.007.396zM5.04 6.84l1.35.68-.008.393-1.314-.65zm7.21-1.748l4.839 2.448v.392l-4.851-2.46zM6.874 7.51l4.894-2.42-.007.374-4.893 2.444zm3.467-3.974L5.418 1.099 6.64.494l5.352 2.744L17.335.466l1.257.65-4.926 2.478c-.196.098-.13.388.067.486l4.838 2.42-1.22.622-5.353-2.697L6.62 7.129l-1.273-.634 4.998-2.483a.266.266 0 0 0-.004-.477zM5.059 1.888l.007-.377 4.607 2.276-.348.2zm9.648 2.077l-.41-.184 4.596-2.303-.028.412zm.422.306l4.124-2.07a.124.124 0 0 0 .07-.11v-.98c0-.046-.008-.136-.05-.157l-1.94-.94a.124.124 0 0 0-.113 0l-5.167 2.623a.123.123 0 0 1-.11 0L6.679.015a.124.124 0 0 0-.11 0L4.616.938c-.04.02-.02.11-.02.157v.995c0 .047.026.09.07.11l4.14 2.047L4.69 6.239c-.04.02-.108.062-.11.108l.017 1.034a.123.123 0 0 0 .068.113l1.933.986c.034.018.122.03.157.014l5.186-2.602a.124.124 0 0 1 .11 0l5.12 2.603a.124.124 0 0 0 .11 0l1.972-.954c.042-.02.103-.05.104-.096l-.007-1.033c0-.047-.047-.15-.09-.17z" />
    </symbol>
    <symbol id="python" role="img" viewBox="0 0 24 24">
        <title>Python</title>
        <path
            d="M14.25.18l.9.2.73.26.59.3.45.32.34.34.25.34.16.33.1.3.04.26.02.2-.01.13V8.5l-.05.63-.13.55-.21.46-.26.38-.3.31-.33.25-.35.19-.35.14-.33.1-.3.07-.26.04-.21.02H8.77l-.69.05-.59.14-.5.22-.41.27-.33.32-.27.35-.2.36-.15.37-.1.35-.07.32-.04.27-.02.21v3.06H3.17l-.21-.03-.28-.07-.32-.12-.35-.18-.36-.26-.36-.36-.35-.46-.32-.59-.28-.73-.21-.88-.14-1.05-.05-1.23.06-1.22.16-1.04.24-.87.32-.71.36-.57.4-.44.42-.33.42-.24.4-.16.36-.1.32-.05.24-.01h.16l.06.01h8.16v-.83H6.18l-.01-2.75-.02-.37.05-.34.11-.31.17-.28.25-.26.31-.23.38-.2.44-.18.51-.15.58-.12.64-.1.71-.06.77-.04.84-.02 1.27.05zm-6.3 1.98l-.23.33-.08.41.08.41.23.34.33.22.41.09.41-.09.33-.22.23-.34.08-.41-.08-.41-.23-.33-.33-.22-.41-.09-.41.09zm13.09 3.95l.28.06.32.12.35.18.36.27.36.35.35.47.32.59.28.73.21.88.14 1.04.05 1.23-.06 1.23-.16 1.04-.24.86-.32.71-.36.57-.4.45-.42.33-.42.24-.4.16-.36.09-.32.05-.24.02-.16-.01h-8.22v.82h5.84l.01 2.76.02.36-.05.34-.11.31-.17.29-.25.25-.31.24-.38.2-.44.17-.51.15-.58.13-.64.09-.71.07-.77.04-.84.01-1.27-.04-1.07-.14-.9-.2-.73-.25-.59-.3-.45-.33-.34-.34-.25-.34-.16-.33-.1-.3-.04-.25-.02-.2.01-.13v-5.34l.05-.64.13-.54.21-.46.26-.38.3-.32.33-.24.35-.2.35-.14.33-.1.3-.06.26-.04.21-.02.13-.01h5.84l.69-.05.59-.14.5-.21.41-.28.33-.32.27-.35.2-.36.15-.36.1-.35.07-.32.04-.28.02-.21V6.07h2.09l.14.01zm-6.47 14.25l-.23.33-.08.41.08.41.23.33.33.23.41.08.41-.08.33-.23.23-.33.08-.41-.08-.41-.23-.33-.33-.23-.41-.08-.41.08z" />
    </symbol>
    <symbol id="react" role="img" viewBox="0 0 24 24">
        <title>React</title>
        <path
            d="M14.23 12.004a2.236 2.236 0 0 1-2.235 2.236 2.236 2.236 0 0 1-2.236-2.236 2.236 2.236 0 0 1 2.235-2.236 2.236 2.236 0 0 1 2.236 2.236zm2.648-10.69c-1.346 0-3.107.96-4.888 2.622-1.78-1.653-3.542-2.602-4.887-2.602-.41 0-.783.093-1.106.278-1.375.793-1.683 3.264-.973 6.365C1.98 8.917 0 10.42 0 12.004c0 1.59 1.99 3.097 5.043 4.03-.704 3.113-.39 5.588.988 6.38.32.187.69.275 1.102.275 1.345 0 3.107-.96 4.888-2.624 1.78 1.654 3.542 2.603 4.887 2.603.41 0 .783-.09 1.106-.275 1.374-.792 1.683-3.263.973-6.365C22.02 15.096 24 13.59 24 12.004c0-1.59-1.99-3.097-5.043-4.032.704-3.11.39-5.587-.988-6.38-.318-.184-.688-.277-1.092-.278zm-.005 1.09v.006c.225 0 .406.044.558.127.666.382.955 1.835.73 3.704-.054.46-.142.945-.25 1.44-.96-.236-2.006-.417-3.107-.534-.66-.905-1.345-1.727-2.035-2.447 1.592-1.48 3.087-2.292 4.105-2.295zm-9.77.02c1.012 0 2.514.808 4.11 2.28-.686.72-1.37 1.537-2.02 2.442-1.107.117-2.154.298-3.113.538-.112-.49-.195-.964-.254-1.42-.23-1.868.054-3.32.714-3.707.19-.09.4-.127.563-.132zm4.882 3.05c.455.468.91.992 1.36 1.564-.44-.02-.89-.034-1.345-.034-.46 0-.915.01-1.36.034.44-.572.895-1.096 1.345-1.565zM12 8.1c.74 0 1.477.034 2.202.093.406.582.802 1.203 1.183 1.86.372.64.71 1.29 1.018 1.946-.308.655-.646 1.31-1.013 1.95-.38.66-.773 1.288-1.18 1.87-.728.063-1.466.098-2.21.098-.74 0-1.477-.035-2.202-.093-.406-.582-.802-1.204-1.183-1.86-.372-.64-.71-1.29-1.018-1.946.303-.657.646-1.313 1.013-1.954.38-.66.773-1.286 1.18-1.868.728-.064 1.466-.098 2.21-.098zm-3.635.254c-.24.377-.48.763-.704 1.16-.225.39-.435.782-.635 1.174-.265-.656-.49-1.31-.676-1.947.64-.15 1.315-.283 2.015-.386zm7.26 0c.695.103 1.365.23 2.006.387-.18.632-.405 1.282-.66 1.933-.2-.39-.41-.783-.64-1.174-.225-.392-.465-.774-.705-1.146zm3.063.675c.484.15.944.317 1.375.498 1.732.74 2.852 1.708 2.852 2.476-.005.768-1.125 1.74-2.857 2.475-.42.18-.88.342-1.355.493-.28-.958-.646-1.956-1.1-2.98.45-1.017.81-2.01 1.085-2.964zm-13.395.004c.278.96.645 1.957 1.1 2.98-.45 1.017-.812 2.01-1.086 2.964-.484-.15-.944-.318-1.37-.5-1.732-.737-2.852-1.706-2.852-2.474 0-.768 1.12-1.742 2.852-2.476.42-.18.88-.342 1.356-.494zm11.678 4.28c.265.657.49 1.312.676 1.948-.64.157-1.316.29-2.016.39.24-.375.48-.762.705-1.158.225-.39.435-.788.636-1.18zm-9.945.02c.2.392.41.783.64 1.175.23.39.465.772.705 1.143-.695-.102-1.365-.23-2.006-.386.18-.63.406-1.282.66-1.933zM17.92 16.32c.112.493.2.968.254 1.423.23 1.868-.054 3.32-.714 3.708-.147.09-.338.128-.563.128-1.012 0-2.514-.807-4.11-2.28.686-.72 1.37-1.536 2.02-2.44 1.107-.118 2.154-.3 3.113-.54zm-11.83.01c.96.234 2.006.415 3.107.532.66.905 1.345 1.727 2.035 2.446-1.595 1.483-3.092 2.295-4.11 2.295-.22-.005-.406-.05-.553-.132-.666-.38-.955-1.834-.73-3.703.054-.46.142-.944.25-1.438zm4.56.64c.44.02.89.034 1.345.034.46 0 .915-.01 1.36-.034-.44.572-.895 1.095-1.345 1.565-.455-.47-.91-.993-1.36-1.565z" />
    </symbol>
    <symbol id="resume" viewBox="0 0 35 45" stroke="none">
        <path fill-rule="evenodd" clip-rule="evenodd"
            d="M9.5 2.5V0.5H17.5H25.5V2.5V4H34.5V24.5V45H17.5H0.5V24.5V4H9.5V2.5ZM11.5 2V6.5H23.5V2H11.5ZM3.5 6V24V42H17.5H31.5V24V6H25.5V8H23V8.5H12V8H9.5V6H3.5Z" />
        <path
            d="M15 15C14.5 16 14.7 17.6999 15.4 18.7999C16.4819 20.5 16.56 21.47 15.5 22C14.8 22.35 13.7 22.4999 13.3 22.4999C12.8 22.4999 12.5 24.4999 12.5 24.4999C12.5 24.4999 14.8 24.4999 17.5 24.4999C20.3 24.4999 22.5 24.5 22.5 24.5C22.5 23.9 22.4 22.4999 22 22.4999C18.5 22.5 18.1 21.2001 19.5 18.5C20.2 16.7 20.1667 15.5 19.5 14.5C18.5 13 15.7803 13.4394 15 15Z" />
        <path d="M9.5 28.5V30.5H25.5V28.5H17.5H9.5Z" />
        <path d="M9.5 33.5001V35.5H22.5V33.5001H9.5Z" />
    </symbol>
    <symbol id="socketdotio" role="img" viewBox="0 0 24 24">
        <title>Socket.io</title>
        <path
            d="M11.9362.0137a12.1694 12.1694 0 00-2.9748.378C4.2816 1.5547.5678 5.7944.0918 10.6012c-.59 4.5488 1.7079 9.2856 5.6437 11.6345 3.8608 2.4179 9.0926 2.3199 12.8734-.223 3.3969-2.206 5.5118-6.2277 5.3858-10.2845-.058-4.0159-2.31-7.9167-5.7588-9.9796C16.354.5876 14.1431.0047 11.9362.0137zm-.063 1.696c4.9448-.007 9.7886 3.8137 10.2815 8.9245.945 5.6597-3.7528 11.4125-9.4875 11.5795-5.4538.544-10.7245-4.0798-10.8795-9.5566-.407-4.4338 2.5159-8.8346 6.6977-10.2995a9.1126 9.1126 0 013.3878-.647zm5.0908 3.2248c-2.6869 2.0849-5.2598 4.3078-7.8886 6.4567 1.2029.017 2.4118.016 3.6208.01 1.41-2.165 2.8589-4.3008 4.2678-6.4667zm-5.6647 7.6536c-1.41 2.166-2.86 4.3088-4.2699 6.4737 2.693-2.0799 5.2548-4.3198 7.9017-6.4557a255.4132 255.4132 0 00-3.6318-.018z" />
    </symbol>
    <symbol id="svelte" role="img" viewBox="0 0 24 24">
        <title>Svelte</title>
        <path
            d="M10.354 21.125a4.44 4.44 0 0 1-4.765-1.767 4.109 4.109 0 0 1-.703-3.107 3.898 3.898 0 0 1 .134-.522l.105-.321.287.21a7.21 7.21 0 0 0 2.186 1.092l.208.063-.02.208a1.253 1.253 0 0 0 .226.83 1.337 1.337 0 0 0 1.435.533 1.231 1.231 0 0 0 .343-.15l5.59-3.562a1.164 1.164 0 0 0 .524-.778 1.242 1.242 0 0 0-.211-.937 1.338 1.338 0 0 0-1.435-.533 1.23 1.23 0 0 0-.343.15l-2.133 1.36a4.078 4.078 0 0 1-1.135.499 4.44 4.44 0 0 1-4.765-1.766 4.108 4.108 0 0 1-.702-3.108 3.855 3.855 0 0 1 1.742-2.582l5.589-3.563a4.072 4.072 0 0 1 1.135-.499 4.44 4.44 0 0 1 4.765 1.767 4.109 4.109 0 0 1 .703 3.107 3.943 3.943 0 0 1-.134.522l-.105.321-.286-.21a7.204 7.204 0 0 0-2.187-1.093l-.208-.063.02-.207a1.255 1.255 0 0 0-.226-.831 1.337 1.337 0 0 0-1.435-.532 1.231 1.231 0 0 0-.343.15L8.62 9.368a1.162 1.162 0 0 0-.524.778 1.24 1.24 0 0 0 .211.937 1.338 1.338 0 0 0 1.435.533 1.235 1.235 0 0 0 .344-.151l2.132-1.36a4.067 4.067 0 0 1 1.135-.498 4.44 4.44 0 0 1 4.765 1.766 4.108 4.108 0 0 1 .702 3.108 3.857 3.857 0 0 1-1.742 2.583l-5.589 3.562a4.072 4.072 0 0 1-1.135.499m10.358-17.95C18.484-.015 14.082-.96 10.9 1.068L5.31 4.63a6.412 6.412 0 0 0-2.896 4.295 6.753 6.753 0 0 0 .666 4.336 6.43 6.43 0 0 0-.96 2.396 6.833 6.833 0 0 0 1.168 5.167c2.229 3.19 6.63 4.135 9.812 2.108l5.59-3.562a6.41 6.41 0 0 0 2.896-4.295 6.756 6.756 0 0 0-.665-4.336 6.429 6.429 0 0 0 .958-2.396 6.831 6.831 0 0 0-1.167-5.168Z" />
    </symbol>
    <symbol id="swift" role="img" viewBox="0 0 24 24">
        <title>Swift</title>
        <path
            d="M7.508 0c-.287 0-.573 0-.86.002-.241.002-.483.003-.724.01-.132.003-.263.009-.395.015A9.154 9.154 0 0 0 4.348.15 5.492 5.492 0 0 0 2.85.645 5.04 5.04 0 0 0 .645 2.848c-.245.48-.4.972-.495 1.5-.093.52-.122 1.05-.136 1.576a35.2 35.2 0 0 0-.012.724C0 6.935 0 7.221 0 7.508v8.984c0 .287 0 .575.002.862.002.24.005.481.012.722.014.526.043 1.057.136 1.576.095.528.25 1.02.495 1.5a5.03 5.03 0 0 0 2.205 2.203c.48.244.97.4 1.498.495.52.093 1.05.124 1.576.138.241.007.483.009.724.01.287.002.573.002.86.002h8.984c.287 0 .573 0 .86-.002.241-.001.483-.003.724-.01a10.523 10.523 0 0 0 1.578-.138 5.322 5.322 0 0 0 1.498-.495 5.035 5.035 0 0 0 2.203-2.203c.245-.48.4-.972.495-1.5.093-.52.124-1.05.138-1.576.007-.241.009-.481.01-.722.002-.287.002-.575.002-.862V7.508c0-.287 0-.573-.002-.86a33.662 33.662 0 0 0-.01-.724 10.5 10.5 0 0 0-.138-1.576 5.328 5.328 0 0 0-.495-1.5A5.039 5.039 0 0 0 21.152.645 5.32 5.32 0 0 0 19.654.15a10.493 10.493 0 0 0-1.578-.138 34.98 34.98 0 0 0-.722-.01C17.067 0 16.779 0 16.492 0H7.508zm6.035 3.41c4.114 2.47 6.545 7.162 5.549 11.131-.024.093-.05.181-.076.272l.002.001c2.062 2.538 1.5 5.258 1.236 4.745-1.072-2.086-3.066-1.568-4.088-1.043a6.803 6.803 0 0 1-.281.158l-.02.012-.002.002c-2.115 1.123-4.957 1.205-7.812-.022a12.568 12.568 0 0 1-5.64-4.838c.649.48 1.35.902 2.097 1.252 3.019 1.414 6.051 1.311 8.197-.002C9.651 12.73 7.101 9.67 5.146 7.191a10.628 10.628 0 0 1-1.005-1.384c2.34 2.142 6.038 4.83 7.365 5.576C8.69 8.408 6.208 4.743 6.324 4.86c4.436 4.47 8.528 6.996 8.528 6.996.154.085.27.154.36.213.085-.215.16-.437.224-.668.708-2.588-.09-5.548-1.893-7.992z" />
    </symbol>
    <symbol id="threedotjs" role="img" viewBox="0 0 24 24">
        <title>Three.js</title>
        <path
            d="M.38 0a.268.268 0 0 0-.256.332l2.894 11.716a.268.268 0 0 0 .01.04l2.89 11.708a.268.268 0 0 0 .447.128L23.802 7.15a.268.268 0 0 0-.112-.45l-5.784-1.667a.268.268 0 0 0-.123-.035L6.38 1.715a.268.268 0 0 0-.144-.04L.456.01A.268.268 0 0 0 .38 0zm.374.654L5.71 2.08 1.99 5.664zM6.61 2.34l4.864 1.4-3.65 3.515zm-.522.12l1.217 4.926-4.877-1.4zm6.28 1.538l4.878 1.404-3.662 3.53zm-.52.13l1.208 4.9-4.853-1.392zm6.3 1.534l4.947 1.424-3.715 3.574zm-.524.12l1.215 4.926-4.876-1.398zm-15.432.696l4.964 1.424-3.726 3.586zM8.047 8.15l4.877 1.4-3.66 3.527zm-.518.137l1.236 5.017-4.963-1.432zm6.274 1.535l4.965 1.425-3.73 3.586zm-.52.127l1.235 5.012-4.958-1.43zm-9.63 2.438l4.873 1.406-3.656 3.523zm5.854 1.687l4.863 1.403-3.648 3.51zm-.54.04l1.214 4.927-4.875-1.4zm-3.896 4.02l5.037 1.442-3.782 3.638z" />
    </symbol>
    <symbol id="typescript" role="img" viewBox="0 0 24 24">
        <title>TypeScript</title>
        <path
            d="M1.125 0C.502 0 0 .502 0 1.125v21.75C0 23.498.502 24 1.125 24h21.75c.623 0 1.125-.502 1.125-1.125V1.125C24 .502 23.498 0 22.875 0zm17.363 9.75c.612 0 1.154.037 1.627.111a6.38 6.38 0 0 1 1.306.34v2.458a3.95 3.95 0 0 0-.643-.361 5.093 5.093 0 0 0-.717-.26 5.453 5.453 0 0 0-1.426-.2c-.3 0-.573.028-.819.086a2.1 2.1 0 0 0-.623.242c-.17.104-.3.229-.393.374a.888.888 0 0 0-.14.49c0 .196.053.373.156.529.104.156.252.304.443.444s.423.276.696.41c.273.135.582.274.926.416.47.197.892.407 1.266.628.374.222.695.473.963.753.268.279.472.598.614.957.142.359.214.776.214 1.253 0 .657-.125 1.21-.373 1.656a3.033 3.033 0 0 1-1.012 1.085 4.38 4.38 0 0 1-1.487.596c-.566.12-1.163.18-1.79.18a9.916 9.916 0 0 1-1.84-.164 5.544 5.544 0 0 1-1.512-.493v-2.63a5.033 5.033 0 0 0 3.237 1.2c.333 0 .624-.03.872-.09.249-.06.456-.144.623-.25.166-.108.29-.234.373-.38a1.023 1.023 0 0 0-.074-1.089 2.12 2.12 0 0 0-.537-.5 5.597 5.597 0 0 0-.807-.444 27.72 27.72 0 0 0-1.007-.436c-.918-.383-1.602-.852-2.053-1.405-.45-.553-.676-1.222-.676-2.005 0-.614.123-1.141.369-1.582.246-.441.58-.804 1.004-1.089a4.494 4.494 0 0 1 1.47-.629 7.536 7.536 0 0 1 1.77-.201zm-15.113.188h9.563v2.166H9.506v9.646H6.789v-9.646H3.375z" />
    </symbol>
    <symbol id="vercel" role="img" viewBox="0 0 24 24">
        <title>Vercel</title>
        <path d="M24 22.525H0l12-21.05 12 21.05z" />
    </symbol>
    <symbol id="visualstudiocode" role="img" viewBox="0 0 24 24">
        <title>Visual Studio Code</title>
        <path
            d="M23.15 2.587L18.21.21a1.494 1.494 0 0 0-1.705.29l-9.46 8.63-4.12-3.128a.999.999 0 0 0-1.276.057L.327 7.261A1 1 0 0 0 .326 8.74L3.899 12 .326 15.26a1 1 0 0 0 .001 1.479L1.65 17.94a.999.999 0 0 0 1.276.057l4.12-3.128 9.46 8.63a1.492 1.492 0 0 0 1.704.29l4.942-2.377A1.5 1.5 0 0 0 24 20.06V3.939a1.5 1.5 0 0 0-.85-1.352zm-5.146 14.861L10.826 12l7.178-5.448v10.896z" />
    </symbol>
    <symbol id="webpack" role="img" viewBox="0 0 24 24">
        <title>Webpack</title>
        <path
            d="M22.1987 18.498l-9.7699 5.5022v-4.2855l6.0872-3.3338 3.6826 2.117zm.6683-.6026V6.3884l-3.5752 2.0544v7.396zm-21.0657.6026l9.7699 5.5022v-4.2855L5.484 16.3809l-3.6826 2.117zm-.6683-.6026V6.3884l3.5751 2.0544v7.396zm.4183-12.2515l10.0199-5.644v4.1434L5.152 7.6586l-.0489.028zm20.8975 0l-10.02-5.644v4.1434l6.4192 3.5154.0489.028 3.5518-2.0427zm-10.8775 13.096l-6.0056-3.2873V8.9384l6.0054 3.4525v6.349zm.8575 0l6.0053-3.2873V8.9384l-6.0053 3.4525zM5.9724 8.1845l6.0287-3.3015L18.03 8.1845l-6.0288 3.4665z" />
    </symbol>
    <symbol id="yarn" role="img" viewBox="0 0 24 24">
        <title>Yarn</title>
        <path
            d="M12 0C5.375 0 0 5.375 0 12s5.375 12 12 12 12-5.375 12-12S18.625 0 12 0zm.768 4.105c.183 0 .363.053.525.157.125.083.287.185.755 1.154.31-.088.468-.042.551-.019.204.056.366.19.463.375.477.917.542 2.553.334 3.605-.241 1.232-.755 2.029-1.131 2.576.324.329.778.899 1.117 1.825.278.774.31 1.478.273 2.015a5.51 5.51 0 0 0 .602-.329c.593-.366 1.487-.917 2.553-.931.714-.009 1.269.445 1.353 1.103a1.23 1.23 0 0 1-.945 1.362c-.649.158-.95.278-1.821.843-1.232.797-2.539 1.242-3.012 1.39a1.686 1.686 0 0 1-.704.343c-.737.181-3.266.315-3.466.315h-.046c-.783 0-1.214-.241-1.45-.491-.658.329-1.51.19-2.122-.134a1.078 1.078 0 0 1-.58-1.153 1.243 1.243 0 0 1-.153-.195c-.162-.25-.528-.936-.454-1.946.056-.723.556-1.367.88-1.71a5.522 5.522 0 0 1 .408-2.256c.306-.727.885-1.348 1.32-1.737-.32-.537-.644-1.367-.329-2.21.227-.602.412-.936.82-1.08h-.005c.199-.074.389-.153.486-.259a3.418 3.418 0 0 1 2.298-1.103c.037-.093.079-.185.125-.283.31-.658.639-1.029 1.024-1.168a.94.94 0 0 1 .328-.06zm.006.7c-.507.016-1.001 1.519-1.001 1.519s-1.27-.204-2.266.871c-.199.218-.468.334-.746.44-.079.028-.176.023-.417.672-.371.991.625 2.094.625 2.094s-1.186.839-1.626 1.881c-.486 1.144-.338 2.261-.338 2.261s-.843.732-.899 1.487c-.051.663.139 1.2.343 1.515.227.343.51.176.51.176s-.561.653-.037.931c.477.25 1.283.394 1.71-.037.31-.31.371-1.001.486-1.283.028-.065.12.111.209.199.097.093.264.195.264.195s-.755.324-.445 1.066c.102.246.468.403 1.066.398.222-.005 2.664-.139 3.313-.296.375-.088.505-.283.505-.283s1.566-.431 2.998-1.357c.917-.598 1.293-.76 2.034-.936.612-.148.57-1.098-.241-1.084-.839.009-1.575.44-2.196.825-1.163.718-1.742.672-1.742.672l-.018-.032c-.079-.13.371-1.293-.134-2.678-.547-1.515-1.413-1.881-1.344-1.997.297-.5 1.038-1.297 1.334-2.78.176-.899.13-2.377-.269-3.151-.074-.144-.732.241-.732.241s-.616-1.371-.788-1.483a.271.271 0 0 0-.157-.046z" />
    </symbol>
    <symbol id="tonejs" role="img" viewBox="0 0 200 200" color="#33FF00" fill="none">
        <title>ToneJS</title>
        <path d="M0 200V91L99 39V160L200 107V200H0z" fill="currentColor" />
        <path d="M0 0V91L99 39V160L200 107V0H0z" stroke="currentColor" stroke-width="10" />
    </symbol>
</svg>