<svg xmlns="http://www.w3.org/2000/svg" style="display: none;">
<symbol id="amazon_aws" viewBox="0 0 35 21" fill="none">
<path d="M10.0114 7.38087C10.0114 7.8016 10.0614 8.13946 10.1389 8.38808C10.2271 8.63669 10.344 8.90868 10.4991 9.20191C10.5596 9.29647 10.582 9.38466 10.582 9.46222C10.582 9.57802 10.5097 9.68958 10.3663 9.80539L9.65231 10.2761C9.56413 10.343 9.46426 10.3759 9.35907 10.3812C9.24327 10.3812 9.13171 10.326 9.02121 10.2208C8.86609 10.0604 8.73329 9.88295 8.61217 9.68958C8.48467 9.4739 8.36886 9.25291 8.26368 9.02555C7.37866 10.0657 6.27158 10.5863 4.9382 10.5863C3.98624 10.5863 3.22871 10.3154 2.67517 9.77245C2.12164 9.22423 1.84009 8.50494 1.84009 7.59761C1.84009 6.64034 2.17795 5.85412 2.8696 5.26765C3.56126 4.68117 4.47391 4.38794 5.64155 4.38794C6.02297 4.38794 6.42139 4.42087 6.83681 4.47612C7.25754 4.53137 7.68889 4.62593 8.13725 4.72473V3.90027C8.13725 3.04287 7.95982 2.43939 7.60602 2.09091C7.24585 1.74242 6.63813 1.57031 5.76373 1.57031C5.37062 1.57031 4.96157 1.61493 4.54084 1.71374C4.12542 1.81892 3.71638 1.9411 3.32327 2.10153C3.19046 2.16209 3.05766 2.20672 2.92485 2.25134C2.8696 2.26834 2.80904 2.27896 2.74742 2.28428C2.58699 2.28428 2.50943 2.16847 2.50943 1.93048V1.37694C2.50943 1.19951 2.53174 1.06139 2.58699 0.983833C2.66986 0.87865 2.78036 0.795778 2.90254 0.745843C3.30096 0.540789 3.77163 0.369734 4.32516 0.236927C4.90633 0.0871213 5.49811 0.0159368 6.0899 0.0212491C7.44028 0.0212491 8.41986 0.325111 9.05627 0.940272C9.67568 1.54906 9.99123 2.47339 9.99123 3.71859V7.38193L10.0114 7.38087ZM5.42374 9.10204C5.79454 9.10204 6.18233 9.03511 6.58607 8.89699C6.99511 8.76418 7.35528 8.51557 7.65915 8.17771C7.84189 7.96203 7.98001 7.72404 8.04694 7.45312C8.11388 7.18219 8.15744 6.84964 8.15744 6.46822V5.99224C7.81426 5.90937 7.47109 5.84243 7.11729 5.79887C6.76881 5.75425 6.41501 5.73194 6.05484 5.73194C5.29625 5.73194 4.74377 5.88175 4.37298 6.18561C3.99687 6.48947 3.81944 6.92189 3.81944 7.48605C3.81944 8.01728 3.95224 8.41039 4.23486 8.68131C4.50578 8.96392 4.9042 9.10204 5.4248 9.10204H5.42374ZM14.5045 10.3249C14.2995 10.3249 14.1614 10.292 14.0732 10.2091C13.985 10.1422 13.9021 9.98176 13.8352 9.77245L11.1791 1.02952C11.1291 0.879712 11.0909 0.730968 11.0792 0.57585C11.0792 0.393108 11.1674 0.293237 11.3448 0.293237H12.4572C12.6729 0.293237 12.8174 0.326174 12.8939 0.403733C12.9884 0.470667 13.0543 0.631098 13.1212 0.846776L15.0251 8.33389L16.7899 0.846776C16.8451 0.619411 16.9121 0.470667 17.0002 0.403733C17.1384 0.320861 17.2935 0.28155 17.4539 0.293237H18.3559C18.5716 0.293237 18.7214 0.326174 18.8096 0.403733C18.8978 0.470667 18.9807 0.631098 19.0253 0.846776L20.8123 8.42207L22.7662 0.846776C22.8384 0.619411 22.916 0.470667 22.9935 0.403733C23.1264 0.320861 23.2815 0.28155 23.4366 0.293237H24.4884C24.6712 0.293237 24.771 0.381421 24.771 0.57585C24.771 0.631098 24.7604 0.686345 24.7487 0.758592C24.7317 0.85315 24.7041 0.946647 24.6712 1.04121L21.9428 9.77883C21.8758 10.0062 21.7993 10.1549 21.7048 10.2219C21.5773 10.3047 21.4285 10.3441 21.2787 10.3324H20.3045C20.0888 10.3324 19.9443 10.2994 19.8508 10.2219C19.7626 10.1443 19.6851 9.99451 19.6404 9.7682L17.8863 2.47446L16.1428 9.75652C16.0876 9.98388 16.0207 10.1326 15.9272 10.2102C15.839 10.2877 15.6785 10.3207 15.4735 10.3207L14.5045 10.3249ZM29.0304 10.6299C28.4439 10.6299 27.8575 10.5576 27.2933 10.4248C26.7291 10.292 26.2861 10.1422 25.9929 9.97113C25.8101 9.87126 25.689 9.76077 25.6444 9.65558C25.5997 9.55571 25.5721 9.45053 25.5721 9.34003V8.76418C25.5721 8.52619 25.6667 8.41039 25.8324 8.41039C25.8994 8.41039 25.9705 8.42101 26.0375 8.44332C26.1044 8.47095 26.2085 8.51557 26.3201 8.55913C26.7079 8.73019 27.1222 8.86299 27.5653 8.95224C28.019 9.0468 28.4567 9.09036 28.9104 9.09036C29.6243 9.09036 30.1779 8.96286 30.5593 8.71425C30.9354 8.48688 31.1628 8.07784 31.1511 7.64117C31.1564 7.34793 31.0459 7.06532 30.8472 6.84964C30.6422 6.63928 30.2554 6.44591 29.7019 6.26317L28.0636 5.75425C27.2391 5.49395 26.625 5.11253 26.2542 4.60361C25.8887 4.13295 25.6901 3.55816 25.6847 2.96C25.6847 2.48402 25.7899 2.0686 25.995 1.70418C26.2 1.344 26.471 1.02952 26.8088 0.779841C27.1467 0.51954 27.5334 0.326173 27.9818 0.193366C28.4354 0.0552473 28.9114 0 29.4097 0C29.6583 0 29.9186 0.0106243 30.1683 0.0446229C30.4286 0.077559 30.6666 0.122182 30.9046 0.172117C31.1256 0.227365 31.3412 0.282613 31.5463 0.349547C31.7514 0.416482 31.9118 0.487666 32.0223 0.554601C32.1551 0.621535 32.2709 0.720344 32.3601 0.837214C32.4377 0.947709 32.4706 1.08052 32.4653 1.21332V1.74455C32.4653 1.98254 32.3708 2.10472 32.205 2.10472C32.0499 2.08772 31.9065 2.04416 31.7737 1.97191C31.0926 1.66805 30.351 1.51825 29.6041 1.52887C28.9571 1.52887 28.4471 1.62874 28.0986 1.84442C27.7448 2.0601 27.5674 2.38627 27.5674 2.85163C27.5674 3.16718 27.6779 3.4381 27.9053 3.65378C28.1326 3.86946 28.5523 4.08514 29.1505 4.27957L30.7548 4.78317C31.5686 5.04347 32.1604 5.40895 32.5089 5.87325C32.8574 6.33223 33.0295 6.86345 33.0295 7.4563C33.0295 7.93759 32.9243 8.38064 32.7362 8.76737C32.5312 9.14879 32.2603 9.48665 31.9118 9.76395C31.558 10.0466 31.1426 10.2452 30.656 10.395C30.147 10.5502 29.6158 10.633 29.0347 10.633L29.0304 10.6299ZM31.1713 16.1238C27.4474 18.8745 22.0458 20.329 17.3976 20.329C10.8848 20.329 5.01364 17.9215 0.581077 13.916C0.232592 13.6005 0.548141 13.1691 0.968873 13.423C5.76054 16.2014 11.6763 17.8885 17.7907 17.8885C21.9183 17.8885 26.4508 17.0248 30.6283 15.2653C31.2477 14.9774 31.779 15.6691 31.1702 16.1227L31.1713 16.1238ZM32.7214 14.3591C32.2454 13.7503 29.5723 14.0658 28.3664 14.2156C28.0062 14.2603 27.9456 13.9394 28.2782 13.7014C30.4031 12.2129 33.8943 12.639 34.3044 13.1372C34.7082 13.6515 34.1886 17.1438 32.2018 18.815C31.898 19.0753 31.5984 18.9425 31.7365 18.5993C32.1901 17.4816 33.1974 14.9636 32.7214 14.3601V14.3591Z" fill="#33FF00"/>
</symbol>

<symbol id="arch_linux" viewBox="0 0 35 33" fill="none">
<path d="M16.6944 0.00106245C15.2558 3.52101 14.392 5.82763 12.793 9.24771C13.7726 10.2879 14.9785 11.5001 16.9324 12.8665C14.8297 11.9974 13.3965 11.1293 12.3223 10.2273C10.2749 14.5048 7.06523 20.5864 0.557617 32.2841C5.67658 29.3294 9.63852 27.5083 13.3348 26.8113C13.1797 26.1303 13.0862 25.3951 13.0915 24.6195L13.0969 24.459C13.1797 21.1771 14.8839 18.6601 16.9037 18.8312C18.9234 19.0022 20.4948 21.7976 20.4172 25.0785C20.4002 25.6926 20.3291 26.2844 20.2069 26.8379C23.865 27.5519 27.7876 29.3666 32.8343 32.2831C31.8377 30.4514 30.9527 28.7971 30.1006 27.2257C28.7672 26.1909 27.3722 24.8405 24.5332 23.3796C26.4871 23.8885 27.8811 24.475 28.9712 25.1284C20.3439 9.07559 19.6523 6.93897 16.6922 0L16.6944 0.00106245ZM32.9958 29.4016V28.5219H32.6632V28.3997H33.4601V28.5219H33.1275V29.4016H32.9947H32.9958ZM33.5993 29.4016V28.3997H33.799L34.037 29.1084C34.0593 29.1753 34.0753 29.2242 34.0816 29.2582C34.0923 29.2253 34.1146 29.17 34.1369 29.0978L34.3749 28.4008H34.5576V29.4027H34.4301V28.5612L34.1369 29.4027H34.0147L33.7268 28.5506V29.4027H33.5993V29.4016Z" fill="#33FF00"/>
</symbol>

<symbol id="blogpost" viewBox="0 0 34 27" fill="none">
<path d="M5.1 0.578857V22.9622C5.1 23.3379 4.95074 23.6982 4.68507 23.9639C4.41939 24.2296 4.05906 24.3789 3.68333 24.3789C3.30761 24.3789 2.94728 24.2296 2.6816 23.9639C2.41592 23.6982 2.26667 23.3379 2.26667 22.9622V6.24552H0V22.9622C0.00110612 23.9387 0.389526 24.875 1.08004 25.5655C1.77056 26.256 2.70679 26.6444 3.68333 26.6455H30.3167C31.2932 26.6444 32.2294 26.256 32.92 25.5655C33.6105 24.875 33.9989 23.9387 34 22.9622V0.578857H5.1ZM31.7333 22.9622C31.7329 23.3378 31.5835 23.6979 31.3179 23.9634C31.0523 24.229 30.6923 24.3784 30.3167 24.3789H7.08333C7.27087 23.9301 7.36719 23.4485 7.36667 22.9622V2.84552H31.7333V22.9622Z" fill="#33FF00"/>
<path d="M19.8338 5.1123H9.63379V16.4456H19.8338V5.1123ZM17.5671 14.179H11.9005V7.37897H17.5671V14.179Z" fill="#33FF00"/>
<path d="M29.4663 5.1123H22.0996V7.37897H29.4663V5.1123Z" fill="#33FF00"/>
<path d="M29.4663 9.64551H22.0996V11.9122H29.4663V9.64551Z" fill="#33FF00"/>
<path d="M29.4663 14.179H22.0996V16.4456H29.4663V14.179Z" fill="#33FF00"/>
</symbol>

<symbol id="code" viewBox="0 0 43 35" fill="none">
<path d="M6.16895 18.5664L15.4854 21.9355V25.9053L2.8291 20.5439V17.7314L6.16895 18.5664ZM15.4854 15.8125L6.1543 19.2402L2.8291 20.0312V17.2188L15.4854 11.8574V15.8125ZM28.083 6.67188L20.2607 29.8311H17.126L24.9482 6.67188H28.083ZM39.5967 19.1523L30.207 15.7979V11.8574L42.9658 17.2188V20.0459L39.5967 19.1523ZM30.207 21.9648L39.6113 18.5371L42.9658 17.7314V20.5439L30.207 25.9053V21.9648Z" fill="#33FF00"/>
</symbol>

<symbol id="contact" viewBox="0 0 26 32" fill="none">
<path d="M23.4575 17.9468C23.4224 18.8433 23.2905 19.7266 23.062 20.5967C22.8335 21.4668 22.4863 22.2534 22.0205 22.9565C21.5635 23.6597 20.979 24.2222 20.2671 24.644C19.5552 25.0659 18.6938 25.2769 17.6831 25.2769C17.1118 25.2769 16.5977 25.1758 16.1406 24.9736C15.6836 24.7715 15.2969 24.4858 14.9805 24.1167C14.6641 23.7388 14.4312 23.2861 14.2817 22.7588C14.1323 22.2314 14.0796 21.6382 14.1235 20.979L14.7959 13.3853H17.4326L16.7734 20.979C16.7207 21.436 16.7251 21.8096 16.7866 22.0996C16.8569 22.3896 16.9624 22.6138 17.103 22.772C17.2524 22.9302 17.4194 23.0444 17.604 23.1147C17.7974 23.1763 17.9863 23.207 18.1709 23.207C18.5928 23.207 18.9795 23.0752 19.3311 22.8115C19.6826 22.5479 19.9858 22.1831 20.2407 21.7173C20.4956 21.2515 20.6978 20.7065 20.8472 20.0825C20.9966 19.4497 21.0801 18.7686 21.0977 18.0391C21.1592 16.8701 21.1021 15.7891 20.9263 14.7959C20.7593 13.8027 20.4692 12.915 20.0562 12.1328C19.6519 11.3418 19.1245 10.6738 18.4741 10.1289C17.8237 9.5752 17.0503 9.15332 16.1538 8.86328C15.2573 8.56445 14.2334 8.41504 13.082 8.41504C12.001 8.41504 11.0034 8.58203 10.0894 8.91602C9.18408 9.25 8.37109 9.729 7.65039 10.353C6.93848 10.9771 6.32324 11.7241 5.80469 12.5942C5.29492 13.4556 4.89062 14.418 4.5918 15.4814C4.30176 16.5361 4.13037 17.6699 4.07764 18.8828C4.01611 20.1572 4.08203 21.3174 4.27539 22.3633C4.47754 23.4092 4.79834 24.3276 5.23779 25.1187C5.68604 25.9185 6.24414 26.5864 6.91211 27.1226C7.58008 27.6587 8.35791 28.063 9.24561 28.3354C10.1333 28.6079 11.1221 28.7441 12.2119 28.7441C12.9766 28.7441 13.7544 28.6562 14.5454 28.4805C15.3452 28.3135 16.0176 28.0981 16.5625 27.8345L17.0635 29.7988C16.4482 30.1943 15.6792 30.4888 14.7563 30.6821C13.8423 30.8755 12.9766 30.9722 12.1592 30.9722C10.7617 30.9722 9.4873 30.8008 8.33594 30.458C7.19336 30.124 6.18262 29.623 5.30371 28.9551C4.4248 28.2959 3.69092 27.4785 3.10205 26.5029C2.52197 25.5273 2.09131 24.4023 1.81006 23.1279C1.5376 21.8535 1.43213 20.4385 1.49365 18.8828C1.55518 17.4414 1.7793 16.0835 2.16602 14.8091C2.55273 13.5347 3.08008 12.3789 3.74805 11.3418C4.41602 10.3047 5.21582 9.4126 6.14746 8.66553C7.08789 7.90967 8.14258 7.32959 9.31152 6.92529C10.4805 6.521 11.7549 6.31885 13.1348 6.31885C14.5059 6.31885 15.7495 6.49902 16.8657 6.85938C17.9907 7.21973 18.9751 7.73828 19.8188 8.41504C20.6626 9.08301 21.3657 9.896 21.9282 10.854C22.4907 11.8032 22.8994 12.8755 23.1543 14.0708C23.4092 15.2661 23.5103 16.5581 23.4575 17.9468ZM10.1421 19.3311C10.0981 19.9111 10.1025 20.4253 10.1553 20.8735C10.208 21.3218 10.3091 21.6997 10.4585 22.0073C10.6079 22.3149 10.8013 22.5479 11.0386 22.7061C11.2847 22.8555 11.5747 22.9302 11.9087 22.9302C12.0933 22.9302 12.2954 22.8862 12.5151 22.7983C12.7349 22.7017 12.959 22.5435 13.1875 22.3237C13.416 22.104 13.6313 21.8008 13.8335 21.4141C14.0444 21.0186 14.2202 20.522 14.3608 19.9243L15.4814 21.2559C15.2793 21.915 15.0288 22.4951 14.73 22.9961C14.4312 23.4883 14.0884 23.9014 13.7017 24.2354C13.3237 24.5693 12.9106 24.8198 12.4624 24.9868C12.0142 25.1538 11.5308 25.2373 11.0122 25.2373C10.3706 25.2373 9.79932 25.1011 9.29834 24.8286C8.79736 24.5474 8.37988 24.1475 8.0459 23.6289C7.71191 23.1104 7.47021 22.4907 7.3208 21.77C7.18018 21.0405 7.15381 20.2275 7.2417 19.3311C7.33838 18.4346 7.51416 17.604 7.76904 16.8394C8.02393 16.0747 8.34033 15.3936 8.71826 14.7959C9.09619 14.1895 9.52686 13.6753 10.0103 13.2534C10.5024 12.8228 11.0342 12.4976 11.6055 12.2778C12.1768 12.0581 12.7744 11.9482 13.3984 11.9482C14.4092 11.9482 15.2046 12.0933 15.7847 12.3833C16.3647 12.6733 16.9141 13.0073 17.4326 13.3853L16.0879 15.1914C15.833 14.9629 15.499 14.7432 15.0859 14.5322C14.6816 14.3125 14.1982 14.2026 13.6357 14.2026C13.1172 14.2026 12.6602 14.3125 12.2646 14.5322C11.8779 14.752 11.5396 15.0815 11.2495 15.521C10.9683 15.9517 10.7354 16.4878 10.5508 17.1294C10.3662 17.7622 10.23 18.4961 10.1421 19.3311Z" fill="#33FF00"/>
</symbol>

<symbol id="css3_shiled" viewBox="0 0 30 34" fill="none">
<path d="M0.662109 0L3.31047 30.039L15.2335 34L27.1566 30.039L29.805 0H0.662109ZM24.4245 6.07143L24.0602 9.66086L15.287 13.4094H23.7493L22.7779 24.5359L15.3258 26.7143L7.82761 24.4982L7.3419 18.8894H11.0528L11.2956 21.7964L15.287 22.8055L19.4386 21.6374L19.7191 16.9624L7.08325 16.9247L6.81004 13.4106L15.8115 9.66207H6.48461L6.04382 6.07264L24.4245 6.07143Z" fill="#33FF00"/>
</symbol>

<symbol id="docker" viewBox="0 0 35 25" fill="none">
<path d="M7.43629 19.6983C6.46817 19.6983 5.58825 18.9076 5.58825 17.9438C5.58825 16.9799 6.3789 16.1839 7.43629 16.1839C8.499 16.1839 9.29709 16.9756 9.29709 17.9438C9.29709 18.9076 8.41185 19.6983 7.44267 19.6983H7.43629ZM30.124 10.118C29.9295 8.71205 29.0613 7.56645 27.9146 6.69185L27.4672 6.33797L27.1069 6.77474C26.4098 7.56645 26.1282 8.97241 26.2153 10.0234C26.2993 10.8215 26.5522 11.6122 27.0017 12.2264C26.6362 12.4145 26.1941 12.5803 25.8498 12.7631C25.0421 13.0277 24.2557 13.117 23.4704 13.117H0.744445L0.655177 13.6366C0.489396 15.3146 0.744445 17.0681 1.45327 18.6568L1.80184 19.2721V19.354C3.92724 22.8747 7.70728 24.4581 11.8306 24.4581C19.7573 24.4581 26.2547 21.032 29.3365 13.643C31.3567 13.7312 33.395 13.2052 34.3514 11.2678L34.6064 10.8311L34.1856 10.5643C33.0347 9.86189 31.4619 9.76838 30.1463 10.1223L30.1176 10.1276L30.124 10.118ZM18.7775 8.71205H15.3354V12.1425H18.7775V8.71205ZM18.7775 4.40066H15.3354V7.83107H18.7775V4.40066ZM18.7775 0H15.3354V3.43147H18.7775V0ZM22.9836 8.71205H19.5628V12.1425H22.9943V8.71205H22.9836ZM10.2376 8.71205H6.81674V12.1425H10.2482V8.71205H10.2376ZM14.5267 8.71205H11.1292V12.1425H14.55V8.71205H14.5267ZM5.98676 8.71205H2.58717V12.1425H6.03033V8.71205H5.98676ZM14.5267 4.40066H11.1292V7.83107H14.55V4.40491L14.5267 4.40066ZM10.2142 4.40066H6.82205V7.83107H10.2429V4.40491L10.2206 4.40066H10.2142Z" fill="#33FF00"/>
</symbol>

<symbol id="email" viewBox="0 0 34 34" fill="none">
<path d="M28.9 3.3999H5.1C3.7474 3.3999 2.45019 3.93722 1.49376 4.89366C0.53732 5.85009 0 7.1473 0 8.4999V25.4999C0 26.8525 0.53732 28.1497 1.49376 29.1061C2.45019 30.0626 3.7474 30.5999 5.1 30.5999H28.9C30.2526 30.5999 31.5498 30.0626 32.5062 29.1061C33.4627 28.1497 34 26.8525 34 25.4999V8.4999C34 7.1473 33.4627 5.85009 32.5062 4.89366C31.5498 3.93722 30.2526 3.3999 28.9 3.3999V3.3999ZM27.761 6.7999L17 14.8749L6.239 6.7999H27.761ZM28.9 27.1999H5.1C4.64913 27.1999 4.21673 27.0208 3.89792 26.702C3.57911 26.3832 3.4 25.9508 3.4 25.4999V8.9249L15.98 18.3599C16.2743 18.5806 16.6322 18.6999 17 18.6999C17.3678 18.6999 17.7257 18.5806 18.02 18.3599L30.6 8.9249V25.4999C30.6 25.9508 30.4209 26.3832 30.1021 26.702C29.7833 27.0208 29.3509 27.1999 28.9 27.1999Z" fill="#33FF00"/>
</symbol>

<symbol id="experience" viewBox="0 0 34 34" fill="none">
<path fill-rule="evenodd" clip-rule="evenodd" d="M10.2642 7.05667C10.2642 5.29252 11.703 3.84912 13.4617 3.84912H19.8567C21.6153 3.84912 23.0542 5.29252 23.0542 7.05667V10.2642H29.1615C29.3213 10.2642 29.4492 10.3604 29.4492 10.5529V18.2831L29.4173 19.8869H19.1853V17.9623H15.3483V19.8869H3.86914V10.5529C3.86914 10.3925 3.96507 10.2642 4.15692 10.2642H10.2642V7.05667ZM19.8567 7.05667H13.4617V10.2642H19.8567V7.05667Z" fill="#33FF00"/>
<path d="M15.3483 22.8057H3.86914V29.2208C3.86914 29.3812 3.99704 29.5095 4.15692 29.5095H29.1295C29.2894 29.5095 29.4173 29.3812 29.4173 29.2208V22.8057H19.1853V24.3774H15.3483V22.8057Z" fill="#33FF00"/>
</symbol>

<symbol id="frame.active" viewBox="0 0 60 60" fill="none">
<rect y="0.5" width="60" height="60" />
</symbol>

<symbol id="frame.inactive" viewBox="0 0 60 60" fill="none">
<rect x="2" y="2.5" width="56" height="56" stroke-width="4"/>
</symbol>

<symbol id="git" viewBox="0 0 35 34" fill="none">
<path d="M34.1911 15.4825L19.3463 0.642968C18.4943 -0.214323 17.1059 -0.214323 16.2475 0.642968L13.171 3.72475L17.0825 7.63089C17.995 7.32707 19.0361 7.53103 19.7553 8.2566C20.4862 8.98747 20.6901 10.0381 20.381 10.9453L24.1437 14.7134C25.0563 14.3979 26.1079 14.6029 26.8324 15.3327C27.8565 16.3504 27.8565 17.9991 26.8324 19.0179C25.8147 20.0356 24.1713 20.0356 23.1526 19.0179C22.3888 18.2541 22.1954 17.1259 22.5768 16.191L19.052 12.6833V21.9286C19.3006 22.0508 19.5386 22.2165 19.7436 22.4215C20.756 23.4456 20.756 25.088 19.7436 26.1067C18.7259 27.1244 17.0708 27.1244 16.0478 26.1067C15.0301 25.089 15.0301 23.4456 16.0478 22.4215C16.3081 22.1666 16.596 21.9785 16.9051 21.8521V12.5186C16.6013 12.3858 16.307 12.2031 16.0531 11.9492C15.284 11.1801 15.096 10.0519 15.4943 9.10539L11.6541 5.24386L1.47387 15.4187C0.6272 16.2707 0.6272 17.6592 1.47387 18.5175L16.3187 33.357C17.176 34.2143 18.5591 34.2143 19.4175 33.357L34.1901 18.5844C35.0473 17.7325 35.0473 16.344 34.1901 15.4857L34.1911 15.4825Z" fill="#33FF00"/>
</symbol>

<symbol id="github" viewBox="0 0 34 34" fill="none">
<path d="M17.0011 0.00106255C7.60904 0.00106255 0 7.61648 0 17.0021C0 24.5177 4.8708 30.8877 11.6213 33.1351C12.4745 33.2955 12.7827 32.7695 12.7827 32.3148C12.7827 31.911 12.7731 30.8431 12.7667 29.4257C8.03513 30.45 7.03844 27.1401 7.03844 27.1401C6.26383 25.1807 5.14601 24.6547 5.14601 24.6547C3.60741 23.6038 5.2682 23.6262 5.2682 23.6262C6.97256 23.742 7.86937 25.3741 7.86937 25.3741C9.38565 27.9752 11.8476 27.223 12.822 26.7852C12.9707 25.6897 13.4138 24.9363 13.8962 24.5166C10.122 24.0905 6.15332 22.6295 6.15332 16.1149C6.15332 14.2543 6.81211 12.7391 7.90124 11.549C7.71317 11.1229 7.13726 9.39096 8.05107 7.04907C8.05107 7.04907 9.47384 6.59535 12.7264 8.79274C14.0875 8.41553 15.5326 8.22745 16.9766 8.21789C18.4217 8.22745 19.8657 8.41659 21.2269 8.79274C24.4603 6.59535 25.882 7.04907 25.882 7.04907C26.7947 9.39096 26.2188 11.1219 26.0531 11.549C27.1316 12.7391 27.7904 14.2554 27.7904 16.1149C27.7904 22.6444 23.8164 24.0841 20.0379 24.4996C20.6287 25.0086 21.1823 26.0552 21.1823 27.6437C21.1823 29.9176 21.161 31.7495 21.161 32.3031C21.161 32.7451 21.4585 33.2764 22.3341 33.1053C29.1345 30.8814 34 24.506 34 17.0011C34 7.61541 26.391 0 16.9989 0L17.0011 0.00106255Z" fill="#33FF00"/>
</symbol>

<symbol id="graphql" viewBox="0 0 32 34" fill="none">
<path d="M18.8939 3.89713L25.8828 7.93663C27.0399 6.71904 28.965 6.6691 30.1826 7.82613C30.3877 8.02587 30.5704 8.25218 30.7139 8.5008C31.549 9.95638 31.0464 11.8157 29.5845 12.6508C29.3412 12.7889 29.0755 12.8994 28.7929 12.9663V21.04C30.4196 21.4278 31.4215 23.0545 31.0337 24.6811C30.9667 24.969 30.8509 25.2453 30.7075 25.5003C29.866 26.9505 28.0131 27.4478 26.5575 26.6074C26.2813 26.4522 26.0263 26.2419 25.8159 26.0039L18.8652 30.0158C19.3912 31.6041 18.5274 33.319 16.939 33.8449C16.6287 33.9501 16.3079 34 15.987 34C14.3158 34 12.9547 32.6496 12.9547 30.973C12.9547 30.6851 12.9994 30.3919 13.0822 30.1092L6.08801 26.0751C4.93099 27.2873 3.01111 27.3373 1.7999 26.1749C0.593998 25.0179 0.549375 23.1033 1.70003 21.8921C2.10376 21.4714 2.61906 21.1728 3.18323 21.0347V12.961C1.55659 12.5732 0.549375 10.936 0.942488 9.30296C1.00942 9.02034 1.11992 8.74942 1.26335 8.5008C2.09845 7.05053 3.95777 6.5533 5.40804 7.39371C5.65665 7.53714 5.88933 7.71457 6.08908 7.92494L13.0833 3.89075C12.6073 2.28643 13.5263 0.598169 15.1254 0.127496C15.4016 0.0393113 15.6948 0 15.9891 0C17.6604 0 19.0214 1.3504 19.0214 3.02166C19.0214 3.32021 18.9768 3.61345 18.8939 3.89607V3.89713ZM18.164 5.14234C18.1364 5.16996 18.1141 5.19759 18.0811 5.22521L27.2343 21.074C27.2725 21.0634 27.3172 21.0517 27.3501 21.0411V12.9568C25.7288 12.5584 24.7439 10.9147 25.1476 9.2934C25.1529 9.26046 25.1646 9.22115 25.1699 9.18821L18.164 5.14234ZM13.8918 5.22521L13.809 5.14234L6.80305 9.18184C7.26841 10.7862 6.33769 12.4638 4.73337 12.9281C4.69512 12.9387 4.66112 12.9451 4.62287 12.9557V21.04L4.74506 21.073L13.8982 5.22415L13.8918 5.22521ZM16.8359 5.9445C16.2824 6.09962 15.6959 6.09962 15.1477 5.9445L5.99452 21.7933C6.40994 22.1917 6.70318 22.706 6.84662 23.2712H25.1359C25.274 22.707 25.5673 22.1917 25.988 21.788L16.8359 5.9445ZM18.2299 28.931L25.1912 24.9085C25.1689 24.8415 25.1529 24.7757 25.1359 24.7087H6.8413L6.80837 24.8245L13.809 28.864C14.3572 28.2946 15.1317 27.9397 15.9891 27.9397C16.8806 27.9397 17.6774 28.3211 18.2299 28.9299V28.931Z" fill="#33FF00"/>
</symbol>

<symbol id="html5" viewBox="0 0 31 34" fill="none">
<path d="M0.259766 0H30.0098L27.3036 30.5469L15.1018 34L2.97127 30.5469L0.259766 0ZM10.2207 13.8125L9.89452 9.96094L24.1437 9.96625L24.4699 6.25281L5.79858 6.2475L6.78883 17.5971H19.7163L19.2573 22.4506L15.1348 23.5854L10.9506 22.44L10.6797 19.4512H6.98327L7.45395 25.3619L15.1348 27.4146L22.755 25.3672L23.8069 13.8125H10.2207Z" fill="#33FF00"/>
</symbol>

<symbol id="information" viewBox="0 0 10 41" fill="none">
<path d="M8.34717 13.5088L5.15137 32H0.332031L3.54492 13.5088H8.34717ZM4.07471 8.7749C4.05192 8.00016 4.30257 7.37923 4.82666 6.91211C5.36214 6.44499 6.00586 6.20573 6.75781 6.19434C7.47559 6.18294 8.10221 6.39941 8.6377 6.84375C9.17318 7.27669 9.44092 7.86344 9.44092 8.604C9.4637 9.37874 9.20736 9.99967 8.67188 10.4668C8.13639 10.9339 7.49837 11.1732 6.75781 11.1846C6.04004 11.196 5.41341 10.9852 4.87793 10.5522C4.35384 10.1193 4.0861 9.52686 4.07471 8.7749Z" fill="#33FF00"/>
</symbol>

<symbol id="iu" viewBox="0 0 36 42" fill="none">
<rect x="0.5" y="0.5" width="34.9623" height="41" stroke="#33FF00"/>
<path d="M22.4223 9.36785H30.5959V11.8147H28.7998V27.1989L25.7802 30.2184H20.6001V33.7066H22.4483V36.8563H13.702V33.7066H15.5762V30.2184H10.4221L7.35047 27.1468V11.7887H5.52832V9.34182H13.7801V11.7887H12.0881V25.0123H15.5501V7.59777H13.6759V5.15088H22.4223V7.57173H20.5741L20.6261 24.9863H24.0362V11.8147H22.4223V9.36785Z" fill="#33FF00"/>
</symbol>

<symbol id="javascript" viewBox="0 0 35 34" fill="none">
<path d="M0.266602 0H34.2666V34H0.266602V0ZM31.4829 25.8931C31.2342 24.3376 30.2206 23.0371 27.2275 21.8206C26.1874 21.3339 25.025 20.9908 24.6818 20.2045C24.5543 19.7391 24.532 19.4852 24.6149 19.2079C24.8305 18.2888 25.91 18.0179 26.7622 18.2729C27.3157 18.4439 27.8247 18.8647 28.1455 19.5457C29.6118 18.5884 29.6118 18.5884 30.6307 17.952C30.2493 17.3602 30.0612 17.0999 29.8009 16.8512C28.9095 15.8493 27.7205 15.3404 25.7889 15.385L24.787 15.5125C23.8297 15.7452 22.917 16.2541 22.3634 16.9352C20.7527 18.7616 21.218 21.9491 23.1709 23.2719C25.1025 24.7159 27.9299 25.0314 28.2954 26.3936C28.6332 28.0542 27.0618 28.5855 25.5063 28.3911C24.3609 28.1361 23.7245 27.5613 23.0211 26.4988L20.4307 27.9873C20.724 28.6684 21.0672 28.9616 21.5761 29.5587C24.039 32.0439 30.2036 31.9164 31.3097 28.1361C31.3479 28.0086 31.6475 27.1341 31.4149 25.8007L31.4829 25.8931ZM18.7552 15.6273H15.573C15.573 18.3717 15.556 21.1002 15.556 23.851C15.556 25.5946 15.6442 27.1989 15.3626 27.6919C14.8919 28.6662 13.6913 28.5441 13.143 28.373C12.5842 28.0968 12.2962 27.7142 11.97 27.1607C11.8755 27.0109 11.8096 26.8844 11.7873 26.8844L9.20329 28.4782C9.63466 29.3696 10.2658 30.1389 11.0797 30.6255C12.292 31.3501 13.9187 31.5828 15.6229 31.2014C16.73 30.8805 17.6874 30.2218 18.1846 29.2039C18.9092 27.8864 18.7541 26.2714 18.7488 24.4609C18.7658 21.5496 18.7488 18.6394 18.7488 15.7059L18.7552 15.6273Z" fill="#33FF00"/>
</symbol>

<symbol id="jest" viewBox="0 0 32 34" fill="none">
<path d="M30.9613 16.7439C30.9613 14.7412 29.6056 12.9872 27.6635 12.4783L31.8962 0H10.9238L15.1693 12.5229C13.2866 13.0711 11.9915 14.7912 11.9862 16.7503C11.9862 18.2282 12.7225 19.5392 13.8465 20.3466C13.3993 20.983 12.8829 21.5706 12.3135 22.106C11.268 23.1037 10.0388 23.8941 8.70013 24.4423C7.51552 23.6444 7.00767 22.2335 7.46664 20.9788C12.2805 19.4786 11.2181 12.3848 6.18323 12.3635C3.74813 12.3678 1.77307 14.3386 1.77307 16.7737C1.77307 17.9753 2.2586 19.076 3.05118 19.8664C2.97893 19.9992 2.912 20.1437 2.83975 20.2871C2.18211 21.6481 1.43415 23.1812 1.1473 24.9023C0.577834 28.3499 1.51277 31.1165 3.77044 32.6825C4.98693 33.541 6.44777 34.0053 7.94261 34C10.5264 34 13.156 32.6995 15.6952 31.4374C17.5098 30.546 19.3797 29.6111 21.2166 29.1585C21.8977 28.9927 22.6063 28.8939 23.3532 28.7813C24.8693 28.5656 26.4353 28.3393 27.8409 27.5202C29.4675 26.5906 30.6022 24.9863 30.9336 23.143C31.1769 21.7374 30.9336 20.3211 30.3036 19.076C30.7297 18.395 30.9623 17.6045 30.9623 16.7461L30.9613 16.7439ZM29.0415 16.7439C29.0415 18.1113 27.928 19.2226 26.5628 19.2226C24.2159 19.2173 23.1875 16.2573 25.0286 14.7954L25.034 14.7859C25.1179 14.7253 25.2071 14.6637 25.2889 14.6074C25.2889 14.6074 25.3059 14.6074 25.3059 14.5978C25.3442 14.5755 25.3824 14.5479 25.4217 14.5256C25.4334 14.5256 25.4387 14.5203 25.4483 14.5203C25.4876 14.498 25.5376 14.482 25.5875 14.4597C25.6374 14.4374 25.6863 14.4215 25.7267 14.3991C25.7362 14.3991 25.7426 14.3938 25.7532 14.3938C25.7925 14.3821 25.8372 14.3609 25.8754 14.3556C25.8807 14.3556 25.9041 14.3439 25.9147 14.3439C25.9647 14.3322 26.0029 14.3216 26.0518 14.3152H26.0571L26.2069 14.2823C26.2164 14.2823 26.2334 14.2823 26.2451 14.2706C26.2834 14.2706 26.3227 14.2589 26.3673 14.2589H26.4109C26.4608 14.2589 26.5097 14.2536 26.5713 14.2536H26.6988C26.7381 14.2536 26.771 14.2536 26.8093 14.2589H26.8263C26.9038 14.2706 26.9867 14.2812 27.0643 14.3046C28.2149 14.5479 29.0404 15.5657 29.0404 16.7439H29.0415ZM13.6691 1.97081H29.1519L25.5992 12.4506C25.4494 12.4793 25.3059 12.5282 25.1561 12.5781L21.4164 4.95306L17.6639 12.5293C17.5204 12.4836 17.359 12.4517 17.1996 12.4241L13.6691 1.97081ZM20.7077 15.8866C20.525 14.9782 20.0607 14.1484 19.3786 13.5237L21.4153 9.41315L23.4732 13.6119C22.8581 14.2207 22.4161 15.0015 22.2398 15.8866H20.7077ZM15.777 14.3311C15.8205 14.3195 15.8662 14.3099 15.9162 14.3046H15.9427C15.982 14.2929 16.0203 14.2929 16.0585 14.2823H16.0978C16.1361 14.2823 16.1701 14.2706 16.2083 14.2706H16.5897C16.6291 14.2706 16.662 14.2823 16.6907 14.2823C16.7119 14.2823 16.7172 14.2823 16.7406 14.294C16.7789 14.3057 16.8075 14.3057 16.8458 14.311C16.8575 14.311 16.8681 14.311 16.8894 14.3205L17.0222 14.3492H17.0338C17.0721 14.3609 17.1178 14.3715 17.156 14.3928C17.1613 14.3928 17.173 14.3981 17.1943 14.3981C17.223 14.4098 17.2612 14.4204 17.2952 14.4363C17.2995 14.4363 17.3111 14.448 17.3218 14.448C17.36 14.4703 17.3993 14.482 17.4376 14.498H17.4493C17.4928 14.5149 17.5374 14.5373 17.5767 14.5702H17.5884C17.6267 14.5872 17.6649 14.6138 17.7042 14.6371C17.7138 14.6371 17.7138 14.6488 17.7255 14.6488C17.7648 14.6658 17.7924 14.6988 17.8307 14.7157L17.8424 14.7274C17.9582 14.8156 18.0687 14.9144 18.1813 15.0154L18.1855 15.0207C18.6286 15.485 18.8729 16.099 18.8665 16.7344C18.7614 19.9334 14.0134 19.9334 13.9082 16.7344C13.9029 15.6008 14.6774 14.6095 15.7781 14.3333L15.777 14.3311ZM6.08761 14.2589C7.45496 14.2589 8.56626 15.3766 8.56626 16.7439C8.56626 18.1113 7.4539 19.2226 6.08761 19.2226C4.72238 19.2226 3.60895 18.1102 3.60895 16.7439C3.60895 15.3776 4.72238 14.2589 6.08761 14.2589V14.2589ZM28.9851 22.7987C28.7588 24.0705 27.9737 25.1775 26.8507 25.8203C25.7766 26.4397 24.4539 26.6394 23.0716 26.8317C22.2908 26.9327 21.5109 27.0697 20.747 27.2471C18.6997 27.7518 16.73 28.7303 14.8197 29.6769C12.3804 30.8892 10.0781 32.0281 7.94261 32.0281C6.84725 32.0334 5.7795 31.6966 4.88812 31.0549C2.72395 29.5601 2.83019 26.7552 3.08942 25.2168C3.3221 23.7772 3.9808 22.4333 4.61083 21.1445C4.65651 21.067 4.68307 20.9947 4.72238 20.9182C4.93806 20.9947 5.16435 21.0553 5.40234 21.0957C5.02518 23.1812 6.08761 25.3401 8.15723 26.4025L8.52801 26.5948L8.93174 26.4514C10.6529 25.8362 12.2518 24.846 13.6574 23.5191C14.4383 22.7934 15.1236 21.9753 15.7047 21.084C15.9332 21.1222 16.1595 21.1339 16.3858 21.1339C18.3884 21.1286 20.1372 19.7782 20.6472 17.8361H22.3014C22.8039 19.7782 24.558 21.1339 26.5628 21.1339C27.3819 21.1339 28.1395 20.9076 28.7865 20.5251C29.0415 21.2614 29.1233 22.0306 28.9851 22.7998V22.7987Z" fill="#33FF00"/>
</symbol>

<symbol id="json" viewBox="0 0 35 34" fill="none">
<path d="M17.5264 33.9543C18.2074 33.949 18.8768 33.9097 19.5461 33.8215C21.0792 33.6218 22.5837 33.2074 24.001 32.5986C25.9984 31.7465 27.8247 30.512 29.3738 28.9958C30.7964 27.5955 31.9853 25.9466 32.8321 24.1372C33.5514 22.5882 34.0656 20.9169 34.276 19.2181C34.4863 17.5744 34.4693 15.8926 34.2154 14.2596C34.005 12.8986 33.6173 11.5758 33.0924 10.3083C32.7492 9.51678 32.3455 8.74757 31.8801 8.01766C30.2259 5.41677 27.829 3.3248 25.0687 1.92554C24.0838 1.42194 23.049 1.01289 21.9919 0.697344H21.9812C22.1523 0.785528 22.3244 0.880086 22.4742 0.979957C22.64 1.08514 22.8121 1.19032 22.9725 1.30082C23.7747 1.84267 24.5216 2.46846 25.1803 3.18243C26.6858 4.80373 27.7259 6.79584 28.3177 8.91012C28.7215 10.2988 28.9371 11.7373 29.02 13.1823C29.0806 14.2341 29.0806 15.2965 28.9531 16.342C28.7427 18.1407 28.1669 19.8948 27.216 21.4333C26.5137 22.5733 25.6 23.5858 24.5216 24.388C22.7568 25.699 20.4428 26.4853 18.235 25.9647C17.8749 25.8765 17.5104 25.7596 17.1779 25.5992C16.7901 25.4217 16.4087 25.2061 16.0708 24.9628C15.4121 24.5197 14.8203 23.9949 14.3114 23.3967C13.692 22.6604 13.182 21.82 12.8229 20.9233C12.3798 19.778 12.1418 18.5551 12.1259 17.3205C12.0813 15.5165 12.4415 13.7071 13.3318 12.124C13.93 11.0669 14.7321 10.1426 15.6894 9.40735C16.0102 9.15236 16.3481 8.93668 16.686 8.72632L16.7083 8.71569C16.0496 8.57226 15.3526 8.50533 14.6662 8.54995C14.0745 8.5882 13.5039 8.69976 12.9291 8.88781C12.4202 9.05887 11.9325 9.26923 11.4853 9.52422C11.1251 9.73459 10.766 9.97258 10.4504 10.2265C10.1519 10.4815 9.85226 10.7354 9.57602 11.0127C7.98765 12.6447 7.06969 14.8089 6.70951 17.039C6.49915 18.4223 6.49915 19.8173 6.58202 21.2229C6.73183 23.198 7.13556 25.1689 7.92071 26.9719C8.40732 28.1012 9.04373 29.135 9.82994 30.054C11.0422 31.449 12.569 32.5391 14.2678 33.2138C15.2251 33.5952 16.2429 33.8725 17.2618 33.9777C17.367 34 17.4722 34 17.5551 34L17.5264 33.9543ZM13.3711 33.3902C13.1384 33.2903 12.9281 33.1798 12.7347 33.0693C12.5243 32.9471 12.3087 32.8313 12.0983 32.6985C11.2685 32.1896 10.5269 31.5861 9.84588 30.8944C8.29682 29.2838 7.25562 27.2587 6.66383 25.1115C6.2601 23.6453 6.04442 22.1345 5.96155 20.6184C5.90099 19.6218 5.9233 18.6433 6.02848 17.669C6.21654 15.8873 6.73076 14.1278 7.62216 12.6C8.25326 11.4706 9.12766 10.4751 10.1455 9.6889C10.8425 9.15767 11.634 8.70932 12.4585 8.41608C13.6261 7.99004 14.8766 7.86254 16.0889 8.03466C16.5595 8.09522 17.0238 8.2004 17.4499 8.35021C17.4881 8.35021 17.4881 8.35021 17.5104 8.39483C17.5327 8.41714 17.5774 8.41714 17.5986 8.43308C17.6592 8.4607 17.742 8.50001 17.8313 8.53826C18.1692 8.70932 18.506 8.92606 18.8279 9.13642C20.1007 10.0278 21.1408 11.256 21.7996 12.6776C22.3914 13.9727 22.6687 15.4219 22.691 16.8445C22.7133 18.3723 22.436 19.8991 21.7783 21.2994C20.9921 22.976 19.6587 24.3986 18.0427 25.3112C18.1702 25.3559 18.2977 25.3718 18.4241 25.4164C18.745 25.477 19.0606 25.5216 19.3984 25.5216C21.4787 25.5885 23.4984 24.5866 24.9816 23.1863C25.2579 22.9313 25.5128 22.6551 25.7455 22.3619C26.0664 21.9804 26.3649 21.598 26.6199 21.1942C26.9578 20.663 27.234 20.1318 27.489 19.5623C27.8099 18.7984 28.0585 18.0132 28.2083 17.2047C28.4845 15.7821 28.5068 14.3382 28.4187 12.9166C28.2306 10.0501 27.4667 7.18363 25.8125 4.81011C25.5575 4.44994 25.3035 4.10782 25.0262 3.79228C24.5556 3.26105 24.0467 2.76807 23.5154 2.32609C22.9236 1.83948 22.2649 1.39113 21.5839 1.03095C20.8869 0.715406 20.0561 0.394544 19.188 0.184178L18.762 0.0959942C18.4688 0.0513711 18.1702 0.0354342 17.8653 0.0131227C17.4063 -0.00918889 16.9186 -0.00387661 16.4267 0.0354342C15.4301 0.0959942 14.4293 0.2628 13.438 0.511414C8.68462 1.73961 4.52298 5.05447 2.30989 9.44772C1.60123 10.848 1.09763 12.3472 0.804389 13.8856C0.466529 15.645 0.422968 17.4608 0.654583 19.2308C0.825638 20.6747 1.18581 22.0973 1.75529 23.4477C2.08146 24.2552 2.47988 25.0414 2.92824 25.783C4.4773 28.3116 6.7297 30.3707 9.31359 31.7922C10.2879 32.3458 11.311 32.7665 12.3682 33.1309C12.689 33.2361 13.0099 33.3413 13.3477 33.4241L13.3711 33.3902Z" fill="#33FF00"/>
</symbol>

<symbol id="link" viewBox="0 0 35 17" fill="none">
<path d="M2.33333 8.16667C2.33509 6.62011 2.95024 5.1374 4.04382 4.04382C5.1374 2.95023 6.62011 2.33509 8.16667 2.33333H16.3333V0H8.16667C6.00073 0 3.92351 0.860415 2.39196 2.39196C0.860414 3.92351 0 6.00073 0 8.16667C0 10.3326 0.860414 12.4098 2.39196 13.9414C3.92351 15.4729 6.00073 16.3333 8.16667 16.3333H16.3333V14H8.16667C6.62011 13.9982 5.1374 13.3831 4.04382 12.2895C2.95024 11.1959 2.33509 9.71322 2.33333 8.16667V8.16667Z" fill="#33FF00"/>
<path d="M26.8337 0H18.667V2.33333H26.8337C28.3808 2.33333 29.8645 2.94792 30.9584 4.04188C32.0524 5.13584 32.667 6.61957 32.667 8.16667C32.667 9.71376 32.0524 11.1975 30.9584 12.2915C29.8645 13.3854 28.3808 14 26.8337 14H18.667V16.3333H26.8337C28.9996 16.3333 31.0768 15.4729 32.6084 13.9414C34.1399 12.4098 35.0003 10.3326 35.0003 8.16667C35.0003 6.00073 34.1399 3.92351 32.6084 2.39196C31.0768 0.860415 28.9996 0 26.8337 0Z" fill="#33FF00"/>
<path d="M25.9587 7.04761H9.04199V9.38094H25.9587V7.04761Z" fill="#33FF00"/>
</symbol>

<symbol id="linkedin_in" viewBox="0 0 35 34" fill="none">
<path d="M7.87872 34H0.829792V11.3001H7.87872V34ZM4.35001 8.20371C2.09629 8.20371 0.267578 6.33614 0.267578 4.08243C0.267578 1.82871 2.09508 0 4.35001 0C6.60494 0 8.43244 1.8275 8.43244 4.08243C8.43244 6.33614 6.60372 8.20371 4.35001 8.20371ZM34.2603 34H27.2271V22.95C27.2271 20.3162 27.1737 16.9393 23.5624 16.9393C19.8977 16.9393 19.3355 19.8001 19.3355 22.7606V34H12.2939V11.3001H19.0538V14.3966H19.1521C20.0932 12.6128 22.3919 10.7306 25.821 10.7306C32.9549 10.7306 34.2664 15.4287 34.2664 21.5305V34H34.2603Z" fill="#33FF00"/>
</symbol>

<symbol id="linux" viewBox="0 0 29 34" fill="none">
<path d="M14.8662 0C14.6453 0 14.419 0.0116859 14.1853 0.0286836C8.1989 0.503557 9.78712 6.83945 9.69789 8.95248C9.5874 10.4961 9.27294 11.7189 8.21059 13.2306C6.95382 14.7189 5.19456 17.1262 4.35955 19.6313C3.96754 20.8094 3.77844 22.0226 3.95585 23.1625C3.90061 23.2061 3.84537 23.256 3.79543 23.3495C3.42998 23.732 3.15802 24.2026 2.8595 24.5394C2.57797 24.8209 2.17428 24.9165 1.73021 25.1045C1.28827 25.2968 0.795341 25.4859 0.507442 26.0723C0.37996 26.339 0.313031 26.6258 0.319405 26.9254C0.319405 27.2016 0.358713 27.4895 0.396957 27.6829C0.480884 28.247 0.562685 28.7123 0.4522 29.0554C0.0984353 30.0169 0.0601904 30.6755 0.30347 31.1578C0.550999 31.6338 1.06093 31.8218 1.63035 32.0109C2.78195 32.2924 4.33617 32.2032 5.56532 32.8565C6.87521 33.5205 8.20952 33.8084 9.27188 33.5269C10.0123 33.3612 10.6434 32.8682 10.9812 32.1883C11.8109 32.183 12.7235 31.8059 14.18 31.7124C15.1701 31.6285 16.4099 32.0938 17.8313 31.9939C17.8695 32.1883 17.9195 32.2754 17.997 32.4699V32.4752C18.5494 33.5758 19.5735 34.074 20.6699 33.9911C21.7588 33.903 22.921 33.2337 23.8612 32.1384C24.7578 31.059 26.2462 30.6044 27.231 30.0137C27.7239 29.73 28.1223 29.3497 28.1499 28.8015C28.1829 28.2374 27.8684 27.651 27.1428 26.8542V26.7151L27.1375 26.7098C26.8942 26.4282 26.7838 25.9523 26.6563 25.3999C26.5341 24.8294 26.4013 24.2876 25.9594 23.9168C25.8701 23.8393 25.782 23.8223 25.6885 23.7288C25.6109 23.6735 25.5153 23.6406 25.4218 23.6353C26.0305 21.825 25.7926 20.0275 25.1722 18.4053C24.42 16.4081 23.0974 14.6658 22.0956 13.4707C20.9663 12.0482 19.8604 10.699 19.8827 8.70176C19.9209 5.65173 20.2195 0.014873 14.8641 0.00318707L14.8662 0ZM15.6131 4.82416H15.6354C15.9339 4.82416 16.1931 4.9134 16.4598 5.10143C16.7307 5.29372 16.9304 5.57206 17.0791 5.85889C17.2289 6.22434 17.3075 6.50587 17.3171 6.88194C17.3171 6.85538 17.3224 6.8267 17.3224 6.80014V6.94887C17.3224 6.93719 17.3171 6.92762 17.3171 6.91594L17.3118 6.88194C17.3118 7.22615 17.2406 7.56929 17.1025 7.88374C17.0356 8.06116 16.9368 8.22264 16.7976 8.35968C16.7594 8.33843 16.7201 8.31612 16.6754 8.29913C16.5267 8.2322 16.3939 8.21095 16.2717 8.11215C16.1729 8.07284 16.0678 8.03991 15.9615 8.0176C16.0285 7.9358 16.1666 7.82956 16.2218 7.73608C16.2941 7.55866 16.3323 7.36531 16.344 7.16665V7.13797C16.3493 6.94993 16.3153 6.75659 16.2547 6.57386C16.1942 6.38582 16.1177 6.29021 16.0008 6.10324C15.8787 6.00869 15.7629 5.9152 15.6184 5.9152H15.5971C15.4644 5.9152 15.3475 5.95344 15.2264 6.10324C15.0936 6.23497 14.9937 6.39645 14.9385 6.57386C14.8609 6.75659 14.8163 6.94887 14.811 7.13797V7.16665C14.811 7.29307 14.8227 7.42056 14.8376 7.54804C14.5614 7.45455 14.2182 7.35363 13.9749 7.26014C13.9632 7.16665 13.9526 7.0721 13.9526 6.97862V6.94993C13.9431 6.57492 14.0132 6.2031 14.164 5.86102C14.2798 5.55081 14.4902 5.28416 14.7728 5.10781C15.015 4.92615 15.3082 4.82628 15.6131 4.82628V4.82416ZM11.4189 4.90809H11.4688C11.6686 4.90809 11.8513 4.97501 12.034 5.09612C12.2433 5.27885 12.4111 5.50513 12.5216 5.75372C12.6491 6.03737 12.7203 6.32421 12.7426 6.70028V6.70559C12.7479 6.89363 12.7479 6.99455 12.7373 7.08273V7.19853C12.6937 7.21021 12.6597 7.22083 12.6215 7.23146C12.4058 7.30901 12.2348 7.41949 12.0616 7.51511C12.0786 7.38762 12.0786 7.26014 12.0669 7.13797V7.11566C12.051 6.92869 12.0117 6.83414 11.9511 6.64504C11.9076 6.50162 11.8237 6.36882 11.7132 6.26365C11.6462 6.2031 11.5528 6.1691 11.4593 6.17441H11.4253C11.3265 6.17973 11.2426 6.22966 11.1661 6.36245C11.0715 6.46762 11.0163 6.60042 10.995 6.7449C10.9557 6.89363 10.944 7.05404 10.961 7.21552V7.23146C10.978 7.42587 11.011 7.52042 11.0768 7.70739C11.1374 7.89543 11.216 7.99104 11.3095 8.08453C11.3265 8.10153 11.3382 8.11321 11.3594 8.11746C11.2606 8.20139 11.1937 8.21839 11.1119 8.31187C11.0556 8.35118 10.9961 8.40111 10.9238 8.4128C10.7741 8.23432 10.6466 8.04204 10.5361 7.84231C10.399 7.54379 10.3268 7.22296 10.3151 6.89575C10.2928 6.57598 10.3321 6.25409 10.4256 5.94919C10.5095 5.67298 10.6423 5.4127 10.8293 5.19173C11.012 5.0037 11.1947 4.91021 11.421 4.91021L11.4189 4.90809ZM13.3609 7.32601C13.8315 7.32601 14.3967 7.41418 15.0819 7.89012C15.4973 8.17377 15.8245 8.27257 16.5766 8.54878C16.9421 8.74319 17.1514 8.93123 17.2565 9.11926V8.93123C17.3575 9.14051 17.3681 9.37848 17.2789 9.59414C17.1014 10.0371 16.548 10.5078 15.7692 10.7893V10.7946C15.3921 10.9826 15.0607 11.2652 14.6729 11.4533C14.2809 11.6413 13.8368 11.8686 13.2398 11.8304C13.0241 11.84 12.8095 11.8081 12.6034 11.7358C12.4494 11.654 12.2943 11.5584 12.1498 11.4543C11.8736 11.2663 11.6356 10.9837 11.2819 10.7957V10.7904H11.2765C10.7061 10.4419 10.4022 10.0648 10.3024 9.78324C10.2089 9.40185 10.2971 9.12033 10.5796 8.93229C10.8941 8.74425 11.1151 8.54984 11.2595 8.45635C11.4083 8.35118 11.4646 8.31187 11.5092 8.27363H11.5145V8.26832C11.7525 7.98042 12.1275 7.60435 12.7044 7.41525C12.8966 7.36531 13.1197 7.32707 13.362 7.32707L13.3609 7.32601ZM17.3224 10.3569C17.8323 12.3658 19.0222 15.282 19.786 16.6928C20.1897 17.4503 20.9971 19.0438 21.3456 20.9762C21.5665 20.9709 21.8098 21.0028 22.0711 21.0697C22.989 18.7017 21.302 16.1563 20.5329 15.4477C20.2173 15.1662 20.2014 14.9771 20.3554 14.9771C21.1915 15.7292 22.2857 17.2027 22.6841 18.8781C22.8669 19.6355 22.9125 20.445 22.7181 21.2461C22.8116 21.2843 22.9062 21.3342 23.006 21.3395C24.4668 22.0991 25.0086 22.6686 24.7483 23.5195V23.4589C24.6665 23.4547 24.5772 23.4589 24.4944 23.4589H24.4721C24.6888 22.796 24.2129 22.2861 22.9625 21.722C21.6675 21.1579 20.6327 21.2461 20.4553 22.3807C20.4436 22.4412 20.4394 22.4741 20.4341 22.5751C20.3331 22.608 20.2343 22.6462 20.1355 22.6632C19.5268 23.0457 19.1996 23.6151 19.0126 24.346C18.8299 25.1035 18.7747 25.9831 18.7247 26.9966C18.6907 27.4725 18.4814 28.1854 18.27 28.9099C16.1453 30.4312 13.1962 31.0899 10.6965 29.3858C10.535 29.1096 10.347 28.8547 10.126 28.6284C10.0208 28.451 9.88805 28.2969 9.734 28.1577C9.99322 28.1577 10.2153 28.1142 10.3927 28.0632C10.5966 27.9644 10.7581 27.7923 10.8399 27.5883C10.9897 27.2112 10.8399 26.6025 10.347 25.9385C9.86149 25.2809 9.03073 24.533 7.81858 23.7872C6.92301 23.2231 6.41945 22.5538 6.1868 21.8112C5.95414 21.0538 5.98708 20.2729 6.16449 19.4825C6.51294 17.9666 7.40426 16.4899 7.97474 15.5646C8.12347 15.4764 8.02467 15.759 7.39363 16.9488C6.83377 18.0112 5.77779 20.4844 7.22047 22.404C7.27678 21.0049 7.58592 19.6217 8.13941 18.332C8.93511 16.5228 10.6073 13.3698 10.7401 10.869C10.807 10.9242 11.045 11.0634 11.1491 11.1569C11.454 11.3449 11.6856 11.6275 11.9851 11.8155C12.2837 12.097 12.6597 12.2915 13.2249 12.2915C13.2801 12.2968 13.3301 12.2968 13.3789 12.2968C13.9601 12.2968 14.4147 12.1087 14.7898 11.9196C15.1988 11.7252 15.5323 11.4437 15.8404 11.3502H15.8457C16.5044 11.1622 17.0303 10.7797 17.3235 10.359L17.3224 10.3569ZM20.4213 23.0457C20.4765 23.8966 20.9089 24.8103 21.6717 24.9972C22.5014 25.1853 23.7019 24.5266 24.2054 23.9136L24.5039 23.902C24.9512 23.8903 25.323 23.9136 25.7033 24.2791L25.7087 24.2844C26.0019 24.5659 26.141 25.0365 26.2621 25.5242C26.3843 26.0936 26.4778 26.6301 26.8432 27.0338C27.5285 27.7806 27.7558 28.3171 27.7452 28.6496C27.7229 29.0193 27.4785 29.2074 27.0366 29.4899C26.1453 30.0604 24.5634 30.4971 23.5563 31.7156C22.6809 32.7609 21.6143 33.3304 20.672 33.4026C19.7318 33.4802 18.9181 33.1211 18.4421 32.131L18.4368 32.1256C18.1383 31.5605 18.2658 30.6755 18.5144 29.7343C18.764 28.7877 19.1231 27.8263 19.173 27.0455C19.223 26.033 19.2782 25.1534 19.4439 24.4714C19.615 23.8127 19.8816 23.3421 20.3576 23.0829L20.4181 23.0489L20.4213 23.0457ZM5.10001 23.1169H5.11701C5.19456 23.1169 5.2668 23.1222 5.33798 23.1392C5.86915 23.2167 6.33978 23.6098 6.78809 24.2015L8.07673 26.5589L8.08204 26.5642C8.42518 27.3164 9.14971 28.0685 9.76375 28.8833C10.3789 29.729 10.8548 30.4864 10.7995 31.1068V31.1185C10.7156 32.1692 10.1186 32.7386 9.20601 32.95C8.29239 33.1381 7.05262 32.95 5.81391 32.2914C4.44241 31.5339 2.80957 31.6274 1.76421 31.4383C1.24472 31.3448 0.901576 31.1504 0.740098 30.8689C0.586057 30.5874 0.579683 30.0158 0.917512 29.1256V29.1213C1.08324 28.6454 0.963193 28.0536 0.879267 27.5331C0.801715 26.9679 0.76347 26.5302 0.939821 26.2041C1.1661 25.7281 1.50393 25.64 1.91825 25.4466C2.33363 25.2586 2.82657 25.1651 3.21326 24.7826H3.21858V24.7773C3.57871 24.4023 3.85068 23.9317 4.16513 23.5928C4.43179 23.3049 4.70162 23.1169 5.10001 23.1169V23.1169ZM15.2434 10.2634C14.6283 10.5449 13.9038 11.0209 13.1346 11.0209C12.3655 11.0209 11.762 10.6459 11.3254 10.3622C11.1044 10.1699 10.927 9.98084 10.7942 9.88629C10.5616 9.69931 10.5892 9.41141 10.6891 9.41141C10.8431 9.43266 10.8718 9.6037 10.9706 9.69931C11.1098 9.7928 11.2755 9.98084 11.4795 10.1699C11.8948 10.4515 12.4483 10.8328 13.1335 10.8328C13.8209 10.8328 14.6283 10.4515 15.1148 10.1699C15.3911 9.9819 15.7448 9.69931 16.0327 9.51127C16.2537 9.31686 16.2441 9.12883 16.4247 9.12883C16.6074 9.15114 16.4757 9.31686 16.2208 9.59945C15.9605 9.79386 15.5621 10.0754 15.2423 10.2634H15.2434ZM13.7104 8.0176V7.99104C13.7051 7.96236 13.7263 7.93049 13.754 7.9188C13.8528 7.85825 14.0079 7.8795 14.1194 7.92411C14.2076 7.92411 14.3457 8.0176 14.3351 8.1164C14.3234 8.18333 14.2129 8.21095 14.1407 8.21095C14.0642 8.21095 14.0079 8.1504 13.942 8.11215C13.8698 8.08984 13.7306 8.10047 13.7093 8.0176H13.7104ZM12.9296 8.0176C12.9009 8.10153 12.7681 8.08984 12.6969 8.11215C12.63 8.1504 12.5747 8.21095 12.4972 8.21095C12.425 8.21095 12.3092 8.18227 12.3028 8.11215C12.2932 8.0176 12.425 7.92411 12.5142 7.92411C12.63 7.87843 12.7734 7.85719 12.8839 7.9188C12.9062 7.93049 12.9349 7.96236 12.9232 7.99104V8.0176H12.9296Z" fill="#33FF00"/>
</symbol>

<symbol id="mongodb" viewBox="0 0 16 34" fill="none">
<path d="M15.3248 13.4937C13.5365 5.60819 9.31151 3.02258 8.85754 2.03171C8.35891 1.32896 7.82201 0 7.82201 0C7.8167 0.0276423 7.8167 0.0446529 7.81138 0.0722952V0.0893058C7.81138 0.111632 7.80607 0.122264 7.80607 0.14459V0.166917H7.80075V0.199875V0.238149H7.79544C7.79544 0.24878 7.79544 0.265791 7.79012 0.271107V0.304065C7.79012 0.314697 7.79012 0.326392 7.7848 0.331707V0.35935C7.7848 0.37636 7.7848 0.392308 7.77949 0.404003V0.409318C7.77949 0.431645 7.77417 0.459287 7.76886 0.481614V0.492245C7.76354 0.497561 7.76354 0.502877 7.76354 0.509256V0.531582H7.75822V0.56454H7.75291V0.586867H7.74228V0.619825H7.73696V0.647467H7.73165V0.669794H7.72633V0.69212H7.72101V0.714447H7.7157V0.736773H7.71038V0.753784H7.70507V0.77611H7.69975V0.781426V0.798437H7.69444C7.68912 0.798437 7.68912 0.803752 7.68912 0.803752V0.814384L7.6838 0.825016C7.6838 0.835647 7.67849 0.847342 7.67317 0.857974C7.66786 0.86329 7.66786 0.86329 7.66786 0.868605V0.879237H7.66254V0.889869H7.65191V0.917511H7.64128V0.934522H7.63596V0.939837H7.63064V0.950469H7.62533V0.96748H7.62001V0.978111H7.60938V0.995122H7.60407V1.00575H7.59875V1.01639H7.59343V1.0334H7.58812V1.04403H7.5828V1.04934H7.57749V1.05998H7.56686V1.07699H7.56154V1.0823H7.55622V1.09293H7.55091V1.10994H7.54559V1.11526H7.54028V1.12589H7.53496V1.13121H7.52964V1.14822H7.51901V1.15353H7.5137V1.16417H7.50838V1.16948H7.50307V1.18011H7.49775V1.18543V1.19074C7.49243 1.19074 7.49243 1.19606 7.49243 1.19606V1.20138H7.48712C7.4818 1.21201 7.47649 1.21839 7.47011 1.22902C7.47011 1.22902 7.45948 1.23965 7.45948 1.24603C7.45416 1.24603 7.45416 1.25134 7.45416 1.25134V1.25666H7.44884V1.26198H7.44353V1.26729V1.27261H7.4329V1.27792H7.42758V1.28324H7.42226V1.28856V1.29919H7.41695V1.3045H7.41163V1.30982H7.40632V1.32045H7.401V1.30982H7.39037V1.31513H7.38505V1.32577H7.37974V1.3364H7.37442V1.34171H7.36911V1.34703H7.36379V1.35235H7.35848V1.36298H7.34784V1.36829H7.34253V1.37892H7.33721V1.38424H7.3319V1.38956H7.32658V1.40657H7.32126V1.41188H7.31595V1.4172H7.31063V1.42251H7.30532V1.42783H7.29468V1.43846H7.28937V1.44378H7.28405V1.44909H7.27874V1.45972H7.27342V1.46504H7.26279V1.47036H7.25747V1.47567H7.25216V1.4863H7.24684V1.49694H7.24153V1.50225H7.23621V1.50757H7.22558V1.51288H7.22026V1.5182H7.21495V1.52883H7.20963V1.53415H7.20432V1.54478H7.199V1.55009H7.19368V1.55541H7.18837V1.56073H7.18305V1.56604H7.17242V1.57136C7.16711 1.57136 7.16711 1.57667 7.16711 1.57667L7.16179 1.58199L7.15647 1.5873V1.59794H7.15116V1.60325H7.14584V1.60857H7.14053V1.61388H7.13521L7.12458 1.62452V1.62983C7.11395 1.63515 7.11395 1.64046 7.10225 1.65216C7.10225 1.65216 7.09162 1.66279 7.08524 1.66279C7.06823 1.67342 7.04697 1.69575 7.02996 1.71276C7.01933 1.71807 7.00763 1.72977 6.997 1.73508C6.97467 1.75741 6.95235 1.77336 6.93002 1.79037C6.89706 1.82333 6.86304 1.84565 6.82477 1.87861H6.81945C6.74184 1.94559 6.6536 2.02214 6.55898 2.10613H6.55366C6.31551 2.31664 6.03271 2.58774 5.71163 2.90882L5.68399 2.93646C3.75647 4.92989 0.716887 9.08793 0.401127 15.805C0.368169 16.3589 0.373484 16.9011 0.406442 17.4274V17.438C0.561664 20.0853 1.392 22.3445 2.43283 24.1827C2.84215 24.9142 3.29081 25.5787 3.74478 26.1762C5.30657 28.2366 6.90131 29.4603 7.30532 29.759C7.93152 31.2039 7.87517 33.6959 7.87517 33.6959L8.78843 34C8.78843 34 8.60025 31.5909 8.86073 30.4225C8.94365 30.062 9.13183 29.7527 9.35404 29.4869C9.50926 29.3816 9.9526 29.0605 10.4842 28.5736C10.5118 28.546 10.5288 28.5236 10.5512 28.496C12.7051 26.4856 16.7313 21.5355 15.3524 13.4735L15.3248 13.4937Z" fill="#33FF00"/>
</symbol>

<symbol id="music_icon" viewBox="0 0 52 52" fill="none">
<path d="M5.65527 8.13665L5.65527 43.4182C5.65527 44.5679 6.57682 45.5 7.71361 45.5H7.93027C9.06706 45.5 9.98861 44.5679 9.98861 43.4182L9.98861 8.13665C9.98861 6.98689 9.06706 6.05482 7.93027 6.05482H7.71361C6.57682 6.05482 5.65527 6.98689 5.65527 8.13665Z" fill="#33FF00"/>
<path d="M12.9883 14.437L12.9883 37.118C12.9883 37.8571 13.947 38.4563 15.1296 38.4563H15.355C16.5376 38.4563 17.4963 37.8571 17.4963 37.118V14.437C17.4963 13.6979 16.5376 13.0987 15.355 13.0987H15.1296C13.947 13.0987 12.9883 13.6979 12.9883 14.437Z" fill="#33FF00"/>
<path d="M20.4971 19.4772V32.0778C20.4971 32.4884 21.3359 32.8213 22.3707 32.8213H22.5679C23.6027 32.8213 24.4416 32.4884 24.4416 32.0778V19.4772C24.4416 19.0666 23.6027 18.7337 22.5679 18.7337H22.3707C21.3359 18.7337 20.4971 19.0666 20.4971 19.4772Z" fill="#33FF00"/>
<path d="M27.4414 14.437V37.118C27.4414 37.8571 28.4001 38.4563 29.5827 38.4563H29.8081C30.9907 38.4563 31.9494 37.8571 31.9494 37.118V14.437C31.9494 13.6979 30.9907 13.0987 29.8081 13.0987H29.5827C28.4001 13.0987 27.4414 13.6979 27.4414 14.437Z" fill="#33FF00"/>
<path d="M34.9492 19.4772V32.0778C34.9492 32.4884 35.7881 32.8213 36.8229 32.8213H37.0201C38.0549 32.8213 38.8937 32.4884 38.8937 32.0778V19.4772C38.8937 19.0666 38.0549 18.7337 37.0201 18.7337H36.8229C35.7881 18.7337 34.9492 19.0666 34.9492 19.4772Z" fill="#33FF00"/>
<path d="M41.8936 8.13665V43.4182C41.8936 44.5679 42.8151 45.5 43.9519 45.5H44.1686C45.3053 45.5 46.2269 44.5679 46.2269 43.4182V8.13665C46.2269 6.98689 45.3053 6.05482 44.1686 6.05482H43.9519C42.8151 6.05482 41.8936 6.98689 41.8936 8.13665Z" fill="#33FF00"/>
</symbol>

<symbol id="mysql" viewBox="0 0 35 24" fill="none">
<path d="M23.5524 2.3407C23.3866 2.3407 23.2761 2.36302 23.1646 2.39064V2.40764H23.1816C23.2591 2.55108 23.3866 2.66265 23.4855 2.79547C23.563 2.94528 23.6289 3.09935 23.7012 3.24917L23.7235 3.22686C23.8563 3.13229 23.9232 2.98354 23.9232 2.75615C23.868 2.68921 23.8563 2.61802 23.8074 2.5564C23.7522 2.46183 23.63 2.41295 23.5524 2.3407ZM8.48355 21.0338H7.17239C7.12776 18.8206 6.99494 16.7391 6.79094 14.7862H6.78031L4.78275 21.0338H3.78078L1.79916 14.7862H1.78216C1.63871 16.6562 1.54415 18.743 1.5059 21.0338H0.310547C0.388112 18.2447 0.581493 15.633 0.891752 13.1977H2.51849L4.41086 18.9534H4.42149L6.33086 13.1977H7.88003C8.22323 16.0538 8.4283 18.6655 8.48886 21.0338H8.48355ZM14.1724 15.2515C13.6411 18.1512 12.9324 20.2603 12.0643 21.5715C11.3779 22.5841 10.6309 23.093 9.81703 23.093C9.60134 23.093 9.3357 23.0261 9.01482 22.8933V22.1963C9.17526 22.2186 9.35802 22.2345 9.56308 22.2345C9.94453 22.2345 10.2495 22.124 10.4822 21.9189C10.7584 21.6639 10.8976 21.377 10.8976 21.0615C10.8976 20.8405 10.7924 20.3974 10.5714 19.7227L9.13807 15.2515H10.428L11.4576 18.5943C11.6903 19.3582 11.7902 19.8842 11.7455 20.1881C12.315 18.6825 12.7082 17.0334 12.9303 15.2515H14.1724ZM31.6372 21.0338H27.9077V13.1977H29.1636V20.0712H31.6372V21.0338ZM26.9334 21.223L25.4947 20.5143C25.6222 20.4091 25.7433 20.2933 25.8549 20.1604C26.4691 19.4464 26.774 18.3786 26.774 16.9728C26.774 14.3771 25.7561 13.0829 23.7192 13.0829C22.7226 13.0829 21.9427 13.4091 21.3838 14.0679C20.7749 14.7872 20.4647 15.8498 20.4647 17.2502C20.4647 18.6283 20.7356 19.6356 21.2786 20.2826C21.7769 20.8585 22.5239 21.1518 23.5258 21.1518C23.8967 21.1518 24.2399 21.1072 24.5501 21.0137L26.4265 22.1091L26.9408 21.224L26.9334 21.223ZM22.2689 19.4624C21.948 18.9534 21.7928 18.1342 21.7928 17.0047C21.7928 15.0295 22.391 14.0445 23.5917 14.0445C24.2175 14.0445 24.6819 14.2825 24.9751 14.7532C25.2907 15.2675 25.4511 16.0761 25.4511 17.1939C25.4511 19.1808 24.8476 20.1828 23.6523 20.1828C23.0211 20.1828 22.5621 19.9448 22.2635 19.4741L22.2689 19.4624ZM19.9217 18.8652C19.9217 19.5293 19.6784 20.0776 19.1854 20.4973C18.6987 20.9233 18.0506 21.139 17.2261 21.139C16.4568 21.139 15.7205 20.8957 14.9958 20.408L15.3337 19.7333C15.9532 20.0436 16.5121 20.1987 17.0221 20.1987C17.4928 20.1987 17.8636 20.0935 18.1292 19.8884C18.3949 19.6781 18.5553 19.3848 18.5553 19.014C18.5553 18.5486 18.2291 18.1501 17.6362 17.8186C17.0879 17.5147 15.9872 16.8889 15.9872 16.8889C15.389 16.4522 15.0957 15.9868 15.0957 15.2175C15.0957 14.5811 15.3167 14.0721 15.7598 13.6843C16.2082 13.2859 16.7777 13.0925 17.4864 13.0925C18.211 13.0925 18.8751 13.2859 19.4733 13.6737L19.1694 14.3484C18.6605 14.1327 18.1569 14.0222 17.6638 14.0222C17.2601 14.0222 16.9498 14.1221 16.7341 14.3155C16.5184 14.5088 16.3856 14.7522 16.3856 15.0571C16.3856 15.5225 16.7182 15.9209 17.326 16.2631C17.8848 16.567 19.0079 17.2098 19.0079 17.2098C19.6221 17.6412 19.927 18.1066 19.927 18.8642L19.9217 18.8652ZM33.2098 10.57C32.4511 10.553 31.8646 10.6306 31.3726 10.841C31.2345 10.8962 31.0071 10.8962 30.9848 11.0737C31.0624 11.1512 31.073 11.2734 31.1399 11.3775C31.2558 11.5656 31.4502 11.8206 31.633 11.9534C31.8327 12.1086 32.0314 12.2637 32.2365 12.3965C32.6073 12.6239 33.0228 12.7567 33.3872 12.983C33.5923 13.1159 33.8027 13.2869 34.0067 13.4261C34.1119 13.4984 34.1777 13.6259 34.3105 13.6694V13.6418C34.2436 13.5589 34.2277 13.4367 34.1607 13.3379C34.0662 13.2434 33.9727 13.1605 33.8781 13.067C33.6018 12.6962 33.264 12.3753 32.8931 12.1096C32.5892 11.9046 31.9252 11.6166 31.803 11.2681L31.786 11.2458C31.991 11.2288 32.2344 11.1512 32.433 11.096C32.7539 11.0131 33.0525 11.029 33.3851 10.9462C33.5349 10.9079 33.6837 10.8633 33.8388 10.8133V10.7305C33.6677 10.5594 33.5402 10.3267 33.3628 10.1663C32.8814 9.75081 32.3502 9.34173 31.8019 9.00385C31.5033 8.81047 31.1272 8.68828 30.8116 8.52783C30.7011 8.47258 30.5077 8.44496 30.4461 8.35039C30.275 8.14001 30.1752 7.86906 30.053 7.61937C29.782 7.09873 29.5164 6.5239 29.2784 5.97032C29.1073 5.59949 29.0074 5.23398 28.7971 4.89078C27.8227 3.27998 26.7602 2.3067 25.1334 1.34936C24.7849 1.1496 24.3642 1.06673 23.9211 0.961535C23.6831 0.950909 23.4504 0.933909 23.2124 0.923284C23.0573 0.856344 22.9085 0.679963 22.7757 0.590711C22.2338 0.247512 20.8387 -0.488823 20.4456 0.48552C20.1905 1.10498 20.8217 1.7085 21.0438 2.01876C21.2042 2.23976 21.4093 2.48414 21.5251 2.72747C21.592 2.89322 21.608 3.06535 21.6749 3.23642C21.8247 3.65187 21.9682 4.1162 22.1679 4.50402C22.2731 4.70378 22.3836 4.9131 22.5164 5.09054C22.594 5.19573 22.7268 5.24036 22.7544 5.41142C22.6216 5.60481 22.611 5.88744 22.5387 6.12013C22.1955 7.19329 22.3284 8.51615 22.8097 9.30773C22.9648 9.54574 23.324 10.0664 23.8063 9.86663C24.2324 9.69556 24.1389 9.15792 24.26 8.6819C24.2877 8.56609 24.2707 8.49383 24.327 8.41627V8.43858C24.4651 8.70421 24.5979 8.95922 24.7201 9.22486C25.0081 9.69025 25.5223 10.1716 25.9484 10.4925C26.1758 10.6635 26.3522 10.9578 26.6348 11.062V11.0344H26.6125C26.5519 10.9515 26.4744 10.9122 26.3968 10.8463C26.2257 10.6752 26.0366 10.4648 25.8985 10.2768C25.5053 9.7455 25.1515 9.15898 24.8412 8.55546C24.6861 8.25689 24.5533 7.936 24.4322 7.64274C24.3769 7.53224 24.3769 7.36011 24.2824 7.30486C24.1389 7.50993 23.9285 7.68631 23.8287 7.94663C23.6459 8.35039 23.6289 8.85403 23.5577 9.37467C23.5248 9.3853 23.5407 9.37467 23.5248 9.39699C23.2209 9.31942 23.1157 9.00916 23.0041 8.74353C22.7162 8.06882 22.6716 6.98929 22.9159 6.2147C22.9829 6.01494 23.2645 5.39017 23.1539 5.2021C23.0934 5.01935 22.9053 4.91416 22.8054 4.77072C22.6779 4.59327 22.5504 4.36695 22.4622 4.1672C22.2349 3.63593 22.1244 3.04941 21.8757 2.51815C21.7652 2.27483 21.5655 2.01982 21.405 1.7935C21.2223 1.53849 21.0236 1.3568 20.8844 1.05716C20.8344 0.951972 20.7686 0.780904 20.8461 0.669338C20.8631 0.591773 20.9014 0.564147 20.9789 0.541834C21.1011 0.436643 21.455 0.56946 21.5771 0.630024C21.9257 0.768154 22.2189 0.90097 22.5122 1.10073C22.645 1.19529 22.7884 1.37167 22.9606 1.42161H23.1603C23.4642 1.48855 23.8021 1.43861 24.0847 1.5268C24.5884 1.68724 25.0421 1.91994 25.4511 2.17388C26.6911 2.96547 27.709 4.08326 28.4007 5.41674C28.5166 5.63243 28.5665 5.83219 28.6717 6.05851C28.8651 6.52921 29.1148 6.99885 29.3135 7.44724C29.5121 7.89563 29.7013 8.34933 29.9882 8.72015C30.1316 8.91991 30.6969 9.02404 30.9561 9.12392C31.1442 9.21211 31.4375 9.28967 31.6032 9.38955C31.9294 9.5893 32.2503 9.81562 32.5552 10.0366C32.7104 10.1418 33.1811 10.3798 33.2087 10.5679L33.2098 10.57Z" fill="#33FF00"/>
</symbol>

<symbol id="netlify" viewBox="0 0 35 34" fill="none">
<path d="M24.0965 12.0162C24.257 12.098 24.4058 12.2085 24.5269 12.3424L27.854 10.859L24.75 7.78163L24.0519 11.9716L24.0965 12.0162ZM17.1894 9.22043C17.3552 9.46377 17.454 9.74006 17.488 10.0333L22.441 12.132C22.5897 12.0162 22.7608 11.9323 22.9436 11.8823L23.7565 6.85077L20.7397 3.6852L17.1873 9.1418L17.1894 9.22043ZM34.0959 16.9968L28.788 11.6889L25.174 13.167L34.0523 16.9415C34.0523 16.9415 34.1299 16.9968 34.0959 16.9968ZM33.2107 17.8607L24.6884 14.218C24.4504 14.5336 24.0902 14.744 23.697 14.7929L22.7842 20.4004C23.0552 20.6766 23.2103 21.0475 23.2103 21.4343L28.3566 22.5139L33.0779 17.8256V17.7374L33.2107 17.8607ZM21.9203 13.0501L17.2946 11.079C16.9674 11.5773 16.4095 11.8706 15.8165 11.8483H15.5349L11.6999 17.765L21.9383 13.3317V13.3434C21.933 13.2659 21.933 13.1894 21.9383 13.1054C21.9436 13.0884 21.9383 13.0671 21.9213 13.0501H21.9203ZM27.5437 23.4065L23.0169 22.4704C22.8458 22.6924 22.6248 22.8582 22.3634 22.9581L21.2838 29.6495L27.5713 23.4172C27.5713 23.4172 27.5596 23.4512 27.5426 23.4512L27.5437 23.4065ZM21.2115 22.9453C20.7748 22.7679 20.4538 22.3928 20.337 21.938L11.9082 20.207L11.786 20.4014L19.4358 31.4644L19.8949 31.0107L21.1956 22.974C21.1956 22.974 21.2391 23.007 21.2115 22.991V22.9453ZM12.0856 19.1879L20.4156 20.904C20.6589 20.4779 21.0957 20.2016 21.5834 20.1634L22.4856 14.6505L22.2911 14.4847L11.9369 18.9233C11.9921 19.0051 12.0421 19.0944 12.0856 19.1879V19.1879ZM8.59277 20.5767L8.41531 20.4014L4.82363 21.8774L6.56634 23.6106L8.54814 20.5332L8.59277 20.5767ZM10.9624 21.1421C10.7127 21.2579 10.4364 21.3131 10.1665 21.3195C9.94444 21.3195 9.73404 21.2855 9.52364 21.2143L7.33781 24.3969L16.9238 33.8936L18.6112 32.2157L10.9624 21.1421ZM9.61715 17.4005C9.7606 17.3846 9.91043 17.3846 10.0592 17.4005C10.2207 17.3793 10.3865 17.3793 10.5469 17.4005L14.4202 11.3786C14.1174 11.0641 13.9495 10.6433 13.9495 10.2108C13.9335 10.0833 13.9335 9.95046 13.9495 9.824L9.24523 7.6488L5.45908 11.334L9.61715 17.4005ZM10.0443 6.9124L14.6317 8.86658C14.9632 8.59029 15.384 8.44577 15.8165 8.46278C16.0046 8.46809 16.1916 8.49572 16.3744 8.55098L19.9565 2.96155L16.995 0L10.0443 6.82314C10.0443 6.82314 10.0326 6.8954 10.0443 6.9124ZM8.32818 18.4802C8.42169 18.3091 8.53752 18.1486 8.67141 18.0041L4.74712 12.148L0.104492 16.6588L8.32818 18.4802ZM7.95732 19.4706L0.855771 17.9871L3.97671 21.1538L7.91269 19.4822L7.95732 19.4706Z" fill="#33FF00"/>
</symbol>

<symbol id="next_js" viewBox="0 0 35 34" fill="none">
<path d="M25.6098 31.8771C25.4834 31.944 25.494 31.9653 25.6151 31.9036C25.6544 31.8877 25.6874 31.8654 25.7161 31.8388C25.7161 31.8165 25.7161 31.8165 25.6098 31.8771V31.8771ZM25.8648 31.739C25.8042 31.7889 25.8042 31.7889 25.8765 31.756C25.9147 31.7336 25.9487 31.7124 25.9487 31.706C25.9487 31.6773 25.9317 31.6837 25.8648 31.739V31.739ZM26.0306 31.6391C25.97 31.689 25.97 31.689 26.0422 31.6561C26.0816 31.6338 26.1145 31.6104 26.1145 31.6051C26.1145 31.5785 26.0975 31.5838 26.0306 31.6391ZM26.1984 31.5403C26.1379 31.5902 26.1379 31.5902 26.208 31.5562C26.2473 31.5349 26.2803 31.5126 26.2803 31.5063C26.2803 31.4797 26.2633 31.485 26.1984 31.5403ZM26.4248 31.3904C26.3089 31.468 26.2686 31.5179 26.3748 31.4627C26.446 31.4191 26.5671 31.3235 26.5459 31.3235C26.5002 31.3405 26.4619 31.3692 26.4237 31.3904H26.4248ZM16.2639 0.00780956C16.1863 0.0131222 15.9536 0.0343726 15.7496 0.0513729C10.9173 0.489132 6.39622 3.09018 3.5306 7.09695C1.94638 9.29319 0.917863 11.8443 0.530042 14.5229C0.392977 15.4579 0.375977 15.7342 0.375977 17.0018C0.375977 18.2683 0.392977 18.5403 0.530042 19.4753C1.4555 25.8621 5.99884 31.2236 12.1572 33.2105C13.2654 33.5644 14.4268 33.8087 15.7496 33.9586C16.2639 34.0138 18.4877 34.0138 19.002 33.9586C21.2885 33.7036 23.2191 33.1394 25.1295 32.165C25.4228 32.0163 25.478 31.977 25.4387 31.944C24.5037 30.7104 23.5857 29.4758 22.6666 28.2305L19.9497 24.5616L16.5465 19.52C15.4117 17.8327 14.2727 16.1496 13.1156 14.4794C13.1039 14.4794 13.089 16.7202 13.0827 19.453C13.071 24.2397 13.071 24.4341 13.0104 24.5446C12.9499 24.6774 12.85 24.7879 12.7172 24.8496C12.612 24.8995 12.5174 24.9101 12.0148 24.9101H11.44L11.2902 24.8166C11.1967 24.7561 11.1191 24.6721 11.0692 24.5733L10.9969 24.4235L11.0023 17.7604L11.0139 11.0973L11.1191 10.9645C11.1861 10.8827 11.2689 10.8158 11.3624 10.7658C11.5016 10.6989 11.5569 10.6883 12.1317 10.6883C12.8064 10.6883 12.918 10.7148 13.0954 10.9093C14.4725 12.9621 15.8452 15.0202 17.1957 17.0847C19.4047 20.4337 22.4201 25.0036 23.9023 27.2455L26.5979 31.3246L26.7308 31.2364C28.026 30.3726 29.2043 29.344 30.2211 28.171C32.3632 25.7187 33.753 22.7022 34.2237 19.4828C34.3607 18.5477 34.3777 18.2704 34.3777 17.0039C34.3777 15.7363 34.3607 15.4654 34.2237 14.5304C33.2982 8.14354 28.7549 2.78205 22.5965 0.794076C21.4447 0.429631 20.26 0.181001 19.0604 0.053498C18.7385 0.0205598 16.5412 -0.0187535 16.2649 0.00993461L16.2639 0.00780956ZM23.2202 10.2898C23.3806 10.3663 23.5018 10.5108 23.557 10.6766C23.5857 10.7658 23.591 12.6136 23.5857 16.7755L23.574 22.7511L22.5232 21.1361L21.466 19.52V15.1817C21.466 12.3692 21.4777 10.7924 21.4925 10.7148C21.5425 10.5374 21.6636 10.3886 21.8251 10.2951C21.9569 10.2282 22.0079 10.2229 22.5338 10.2229C23.0257 10.2229 23.1086 10.2282 23.2191 10.2898H23.2202Z" fill="#33FF00"/>
</symbol>

<symbol id="npm" viewBox="0 0 35 14" fill="none">
<path d="M0.479492 0V11.3337H9.9198V13.2154H17.4795V11.3337H34.4795V0H0.479492ZM9.9198 9.435H8.03812V3.76869H6.1458V9.435H2.3718V1.887H9.9198V9.435ZM15.5872 9.435V11.3337H11.8132V1.887H19.3729V9.44031H15.5872V9.435ZM32.5925 9.435H30.7055V3.76869H28.8132V9.435H26.9209V3.76869H25.0392V9.435H21.2535V1.887H32.5925V9.435ZM15.5872 3.774H17.4795V7.55331H15.5872V3.774Z" fill="#33FF00"/>
</symbol>

<symbol id="products" viewBox="0 0 34 34" fill="none">
<path d="M6.07807 24.0434L6.06897 24.0391L6.05978 24.035C5.8186 23.9268 5.61283 23.7515 5.46708 23.5293C5.32237 23.3086 5.24294 23.051 5.23828 22.7865V13.3506L14.8892 17.4225V28.2108L6.07807 24.0434ZM7.16478 9.67282L16.2436 5.4101L16.2436 5.41011L16.2475 5.40826C16.4667 5.30417 16.7061 5.25024 16.9484 5.25024C17.1906 5.25024 17.43 5.30417 17.6492 5.40826L17.6492 5.40827L17.6531 5.4101L26.7319 9.67282L16.9484 13.79L7.16478 9.67282ZM27.8371 24.035L27.8281 24.039L27.8192 24.0432L19.0076 28.205V17.4225L28.6585 13.3506V22.7973C28.6518 23.0595 28.5717 23.3144 28.4276 23.5327C28.282 23.7533 28.077 23.9274 27.8371 24.035Z" stroke="#33FF00" stroke-width="2"/>
</symbol>

<symbol id="python" viewBox="0 0 35 34" fill="none">
<path d="M21.0029 0.251609L22.2747 0.531762L23.3033 0.900718L24.1353 1.32359L24.7686 1.77606L25.2475 2.25497L25.5995 2.73281L25.8247 3.19692L25.9632 3.61979L26.0234 3.98346L26.052 4.26995L26.0351 4.45179V11.9789L25.9632 12.8659L25.7813 13.6429L25.4843 14.2931L25.1206 14.827L24.6977 15.2615L24.2357 15.6135L23.7399 15.8841L23.2441 16.0818L22.7821 16.2256L22.3592 16.3186L21.9956 16.3789L21.6985 16.4075H13.2791L12.3107 16.4783L11.4787 16.6717L10.7736 16.9857L10.1953 17.3653L9.72699 17.8177L9.34641 18.3072L9.06625 18.8199L8.85588 19.3369L8.71316 19.8317L8.61484 20.2841L8.55881 20.6637L8.53238 20.9607V25.273H5.38726L5.09125 25.2275L4.69375 25.1292L4.24868 24.9643L3.75286 24.7106L3.24647 24.3427L2.74008 23.8352L2.24426 23.185L1.79285 22.353L1.39535 21.3244L1.10357 20.0854L0.905873 18.6043L0.833984 16.8705L0.917502 15.1526L1.14268 13.6884L1.48415 12.461L1.93557 11.4588L2.44301 10.6553L3.00438 10.0379L3.59957 9.5696L4.18842 9.23448L4.75507 9.0093L5.26252 8.86552L5.71393 8.79363L6.04906 8.782H6.27424L6.36304 8.79363H17.8599V7.6265H9.62762L9.61599 3.74982L9.58956 3.22652L9.66145 2.74761L9.81474 2.31311L10.0515 1.91561L10.4036 1.553L10.8444 1.22739L11.3773 0.947234L11.9999 0.688225L12.7156 0.47996L13.536 0.309754L14.4325 0.171263L15.4347 0.0835173L16.5204 0.0285439L17.7045 0L19.4932 0.0718883L21.0029 0.251609ZM12.1268 3.04257L11.8012 3.50456L11.6859 4.08283L11.8012 4.66217L12.1268 5.14001L12.5888 5.454L13.1671 5.58086L13.7453 5.454L14.2073 5.14001L14.5329 4.66217L14.6482 4.08283L14.5329 3.50456L14.2073 3.04257L13.7453 2.73387L13.1671 2.60807L12.5888 2.73387L12.1268 3.04257ZM30.5778 8.60863L30.9679 8.69743L31.4193 8.86235L31.9151 9.11607L32.4215 9.4956L32.9289 9.99142L33.4237 10.6522L33.8751 11.482L34.2673 12.5128L34.5644 13.7571L34.7621 15.2213L34.834 16.9551L34.7462 18.6899L34.5189 20.1541L34.1838 21.3646L33.7324 22.3668L33.225 23.1702L32.6583 23.8045L32.0695 24.2665L31.4743 24.608L30.9129 24.8332L30.4055 24.96L29.954 25.0319L29.6189 25.0584L29.3937 25.0425H17.8028V26.198H26.0351L26.052 30.0916L26.0784 30.598L26.0065 31.0769L25.8532 31.5114L25.6111 31.9184L25.2591 32.2705L24.8246 32.613L24.2907 32.8931L23.668 33.1352L22.9523 33.3435L22.132 33.5253L21.2302 33.6522L20.2333 33.7505L19.1422 33.8055L17.9582 33.8224L16.1695 33.7674L14.6609 33.5687L13.3933 33.2885L12.3647 32.9365L11.5327 32.5125L10.8994 32.0442L10.4205 31.5653L10.0685 31.0875L9.84328 30.6234L9.6995 30.2005L9.64453 29.8485L9.61599 29.5662L9.62762 29.3854V21.8583L9.6995 20.9544L9.88663 20.189L10.1784 19.5452L10.5474 19.0049L10.9702 18.5599L11.4343 18.2184L11.9291 17.9361L12.4196 17.7384L12.888 17.5947L13.3119 17.5133L13.6745 17.4583L14.1534 17.4128H22.3857L23.3593 17.342L24.1913 17.1485L24.8965 16.8515L25.4748 16.455L25.9389 16.0026L26.3184 15.5131L26.6049 15.0003L26.8153 14.494L26.958 14.0034L27.0584 13.552L27.1134 13.1556L27.1398 12.8585V8.54625H30.0862L30.2849 8.55788L30.5778 8.60863ZM21.4532 28.6951L21.1276 29.1634L21.0177 29.7427L21.1276 30.321L21.4532 30.783L21.9216 31.1076L22.4999 31.2175L23.0781 31.1076L23.5401 30.783L23.8657 30.321L23.981 29.7427L23.8657 29.1634L23.5401 28.6951L23.0781 28.3705L22.4999 28.2606L21.9216 28.3705L21.4532 28.6951Z" fill="#33FF00"/>
</symbol>

<symbol id="react" viewBox="0 0 35 31" fill="none">
<path d="M17.2666 12.0938C15.5953 12.0938 14.2342 13.4548 14.2342 15.1261C14.2342 16.7974 15.5953 18.1585 17.2666 18.1585C18.9379 18.1585 20.299 16.7974 20.299 15.1261C20.299 13.4548 18.9379 12.0938 17.2666 12.0938ZM8.77723 21.1526L8.10785 20.9869C3.12685 19.7246 0.266602 17.589 0.266602 15.1208C0.266602 12.6526 3.12791 10.517 8.10785 9.25476L8.77723 9.08901L8.96529 9.75307C9.46891 11.4903 10.116 13.1839 10.8969 14.8223L11.0404 15.1208L10.8969 15.4247C10.117 17.0567 9.46891 18.7503 8.96529 20.4939L8.77723 21.1526ZM7.79866 10.8039C4.01298 11.8664 1.68929 13.4984 1.68929 15.1208C1.68929 16.7433 4.01404 18.3689 7.79866 19.4378C8.26404 17.9598 8.82291 16.5212 9.47529 15.1208C8.82185 13.7204 8.26298 12.2818 7.79866 10.8039V10.8039ZM25.756 21.1526L25.5679 20.4886C25.0643 18.7514 24.4172 17.0578 23.6363 15.4247L23.4929 15.1208L23.6363 14.8169C24.4162 13.1849 25.0643 11.4913 25.5679 9.74776L25.756 9.08901L26.4254 9.25476C31.4064 10.517 34.2666 12.6526 34.2666 15.1208C34.2666 17.589 31.4053 19.7246 26.4254 20.9869L25.756 21.1526ZM25.0579 15.1208C25.739 16.5924 26.3032 18.0374 26.7345 19.4378C30.5255 18.3699 32.8439 16.7433 32.8439 15.1208C32.8439 13.4984 30.5192 11.8728 26.7345 10.8039C26.2692 12.2754 25.7103 13.7204 25.0579 15.1208ZM7.78698 10.7986L7.59891 10.1345C6.19854 5.19814 6.6246 1.65682 8.7666 0.422197C10.8693 -0.790115 14.2395 0.643197 17.7755 4.27376L18.2569 4.76676L17.7755 5.25976C16.5197 6.56557 15.3743 7.97126 14.3447 9.46514L14.1514 9.73607L13.8188 9.7637C12.0094 9.90714 10.2159 10.1951 8.45635 10.6275L7.78698 10.7986ZM10.4762 1.4082C10.0947 1.4082 9.75685 1.48576 9.47423 1.65151C8.06854 2.46538 7.81991 5.28739 8.78785 9.09432C10.2987 8.75645 11.8255 8.51845 13.3704 8.38032C14.2555 7.11807 15.2298 5.91214 16.2753 4.77739C14.0674 2.62476 11.9754 1.40713 10.4762 1.40713V1.4082ZM24.0624 30.2498C24.057 30.2498 24.057 30.2498 24.0624 30.2498C22.0425 30.2498 19.4469 28.7336 16.7577 25.9668L16.2764 25.4738L16.7577 24.9808C18.0135 23.675 19.1589 22.2693 20.1885 20.7754L20.3765 20.5045L20.7091 20.4716C22.5185 20.3334 24.312 20.0455 26.0769 19.6078L26.7462 19.442L26.9343 20.1061C28.3347 25.0424 27.9086 28.5784 25.7666 29.812C25.246 30.1106 24.6595 30.2604 24.0624 30.2487V30.2498ZM18.2569 25.4632C20.4647 27.6158 22.5568 28.8334 24.056 28.8334H24.0613C24.4374 28.8334 24.7753 28.7506 25.0579 28.5901C26.4636 27.7763 26.7186 24.9543 25.7443 21.1473C24.2334 21.4852 22.7002 21.7232 21.1617 21.856C20.2767 23.1236 19.3024 24.3242 18.2569 25.4643V25.4632ZM26.7462 10.7986L26.0769 10.6275C24.312 10.1961 22.5185 9.9082 20.7091 9.7637L20.3765 9.73607L20.1885 9.46514C19.1589 7.97126 18.0135 6.56557 16.7577 5.25976L16.2764 4.76676L16.7577 4.27376C20.2937 0.643197 23.6639 -0.790115 25.7666 0.422197C27.9086 1.65576 28.3347 5.19814 26.9343 10.1345L26.7462 10.7986ZM21.1628 8.38032C22.7789 8.53014 24.3174 8.76814 25.7454 9.09432C26.7197 5.28739 26.4647 2.46432 25.059 1.65151C23.6586 0.84401 21.0247 2.08289 18.2579 4.77845C19.3034 5.91851 20.2724 7.11914 21.1628 8.38139V8.38032ZM10.4762 30.2498C9.87798 30.2604 9.28616 30.1116 8.7666 29.8131C6.6246 28.5795 6.19854 25.0424 7.59891 20.1071L7.78698 19.4431L8.45635 19.6088C10.0947 20.0243 11.8989 20.3111 13.8188 20.4726L14.1514 20.5056L14.3394 20.7765C15.369 22.2704 16.5144 23.6761 17.7702 24.9819L18.2515 25.4749L17.7702 25.9679C15.0864 28.7346 12.4907 30.2508 10.4762 30.2508V30.2498ZM8.78891 21.1473C7.8146 24.9543 8.0696 27.7773 9.47529 28.5901C10.8757 29.387 13.5043 28.1588 16.2764 25.4632C15.2309 24.3231 14.2565 23.1225 13.3715 21.8549C11.8277 21.7221 10.2998 21.4841 8.78891 21.1463V21.1473ZM17.2666 22.0377C16.0989 22.0377 14.9036 21.9878 13.703 21.8879L13.3704 21.8603L13.177 21.584C12.5024 20.6097 11.8595 19.6088 11.2677 18.5793C10.6695 17.5497 10.1224 16.4989 9.61341 15.4247L9.46998 15.1208L9.61341 14.8169C10.1224 13.7438 10.6706 12.6919 11.2677 11.6624C11.8542 10.6498 12.496 9.63726 13.177 8.65763L13.3704 8.38139L13.703 8.35376C16.0766 8.15401 18.4619 8.15401 20.8302 8.35376L21.1628 8.38139L21.3562 8.65763C22.7119 10.6052 23.9072 12.6696 24.9198 14.8169L25.0632 15.1208L24.9198 15.4247C23.9072 17.572 22.7172 19.6364 21.3562 21.584L21.1628 21.8603L20.8302 21.8879C19.6349 21.9878 18.4343 22.0377 17.2666 22.0377V22.0377ZM14.1567 20.4992C16.2487 20.6596 18.2845 20.6596 20.3819 20.4992C21.5495 18.7896 22.5897 16.9908 23.4918 15.1198C22.595 13.2498 21.5549 11.4509 20.3765 9.74032C18.3068 9.57988 16.2264 9.57988 14.1567 9.74032C12.9784 11.4499 11.9371 13.2487 11.0414 15.1198C11.9435 16.9898 12.9837 18.7886 14.1567 20.4992Z" fill="#33FF00"/>
</symbol>

<symbol id="resume" viewBox="0 0 28 34" fill="none">
<path d="M27.5134 9.06114L19.9655 0.561296C19.8066 0.385192 19.6125 0.244302 19.3959 0.147686C19.1792 0.0510695 18.9448 0.000866653 18.7075 0.000305954H5.10778C4.54296 -0.00643118 3.98235 0.0981562 3.45796 0.308096C2.93357 0.518036 2.45567 0.829216 2.05154 1.22387C1.64742 1.61852 1.325 2.0889 1.10268 2.60817C0.880369 3.12744 0.762517 3.68541 0.755859 4.25023V29.7498C0.762517 30.3146 0.880369 30.8726 1.10268 31.3918C1.325 31.9111 1.64742 32.3815 2.05154 32.7761C2.45567 33.1708 2.93357 33.482 3.45796 33.6919C3.98235 33.9018 4.54296 34.0064 5.10778 33.9997H23.6034C24.1683 34.0064 24.7289 33.9018 25.2533 33.6919C25.7777 33.482 26.2556 33.1708 26.6597 32.7761C27.0638 32.3815 27.3862 31.9111 27.6085 31.3918C27.8309 30.8726 27.9487 30.3146 27.9554 29.7498V10.2001C27.9543 9.77881 27.7968 9.37291 27.5134 9.06114V9.06114ZM17.7556 3.40024L24.1134 10.2001H19.0135C18.8355 10.1894 18.6614 10.1433 18.5014 10.0645C18.3414 9.98576 18.1987 9.87592 18.0816 9.74141C17.9645 9.6069 17.8753 9.45041 17.8193 9.28107C17.7634 9.11174 17.7417 8.93295 17.7556 8.75515V3.40024Z" fill="#33FF00"/>
</symbol>

<symbol id="svelte" viewBox="0 0 29 34" fill="none">
<path d="M26.6389 4.48428C23.5255 -0.0362851 17.4318 -1.34353 12.7389 1.5039L4.79976 6.55097C2.62776 7.91352 1.13757 10.1302 0.70041 12.65C0.312173 14.7444 0.650418 16.91 1.64813 18.7937C0.966325 19.8191 0.506823 20.9764 0.301537 22.1953C-0.152647 24.7545 0.439813 27.3913 1.94702 29.5133C5.06568 34.0232 11.1434 35.3358 15.847 32.5213L23.7914 27.4689C25.9517 26.1064 27.4366 23.8897 27.8748 21.3699C28.2567 19.2809 27.9195 17.1206 26.9218 15.2485C29.0321 11.9352 28.9215 7.67526 26.6389 4.48428V4.48428ZM11.9465 29.9515C9.39265 30.6163 6.69414 29.6133 5.19332 27.4424C4.27325 26.1681 3.93607 24.5949 4.20198 23.0324L4.35728 22.2793L4.50087 21.8135L4.9274 22.0964C5.86342 22.8059 6.91113 23.3153 8.0301 23.6589L8.31835 23.7589L8.28538 24.0418C8.25773 24.4354 8.37366 24.8779 8.60129 25.2161C9.06717 25.8862 9.87556 26.2074 10.6563 25.9968C10.8275 25.9415 10.9945 25.8862 11.1381 25.7969L19.0496 20.7498C19.4485 20.4945 19.7038 20.1127 19.8027 19.6585C19.891 19.1873 19.7751 18.7054 19.5198 18.3236C19.0486 17.6694 18.2455 17.3759 17.4648 17.5705C17.2935 17.6311 17.1106 17.6981 16.9659 17.7864L13.9738 19.6861C11.1434 21.3699 7.48657 20.5785 5.60814 17.8694C4.69446 16.5951 4.33388 15.005 4.61043 13.4595C4.88698 11.9299 5.80173 10.5897 7.12599 9.76961L15.0205 4.72254C15.5193 4.41195 16.0565 4.18539 16.6383 4.01308C19.1922 3.34829 21.8843 4.35132 23.3915 6.51162C24.4552 8.00713 24.7541 9.91853 24.1999 11.6693L24.0563 12.1405L23.6468 11.8576C22.6991 11.1651 21.6471 10.6386 20.5281 10.2951L20.2452 10.2121L20.2728 9.92916C20.3005 9.51327 20.1846 9.07611 19.9569 8.73786C19.4911 8.06775 18.6827 7.78482 17.9019 7.98479C17.7307 8.0401 17.5637 8.09541 17.4201 8.18476L9.49264 13.2754C9.09376 13.5414 8.83849 13.9126 8.75552 14.3774C8.67255 14.8316 8.78317 15.3304 9.03845 15.6963C9.49264 16.3664 10.318 16.6494 11.0828 16.4494C11.2658 16.3941 11.437 16.3388 11.5764 16.2494L14.6014 14.321C15.0949 13.9945 15.648 13.7562 16.2139 13.6009C18.7848 12.9308 21.4663 13.9392 22.9671 16.1101C23.8872 17.3844 24.2414 18.9575 23.9861 20.503C23.7202 22.0326 22.8171 23.3728 21.5046 24.1929L13.5931 29.2282C13.0782 29.5388 12.5241 29.7824 11.9476 29.9483L11.9465 29.9515Z" fill="#33FF00"/>
</symbol>

<symbol id="typescript" viewBox="0 0 34 34">
<path d="M0 17V34H34V0H0V17ZM27.3976 15.6442C28.2614 15.8599 28.9191 16.2477 29.5279 16.8725C29.8382 17.204 30.3025 17.8128 30.3418 17.9626C30.3524 18.0073 28.8756 18.9975 27.9788 19.5511C27.9459 19.5734 27.8131 19.4353 27.6686 19.2185C27.2319 18.5821 26.7718 18.3058 26.0695 18.2559C25.0399 18.1889 24.3759 18.7266 24.3812 19.6286C24.3759 19.8496 24.4258 20.0717 24.5246 20.2651C24.752 20.7357 25.1781 21.0173 26.4945 21.5879C28.9298 22.6334 29.9699 23.3251 30.617 24.3047C31.3416 25.4001 31.5021 27.149 31.0154 28.4548C30.4736 29.8658 29.1337 30.8284 27.2521 31.144C26.6709 31.2492 25.2875 31.2322 24.6617 31.1164C23.2953 30.8731 22.0001 30.1973 21.2032 29.3123C20.8877 28.9691 20.2789 28.067 20.3182 28.0064C20.3352 27.9841 20.4733 27.8959 20.6284 27.8067C20.7836 27.7174 21.3531 27.3859 21.8907 27.0757L22.8703 26.5062L23.0754 26.8101C23.3633 27.2467 23.9881 27.8449 24.3652 28.0436C25.4501 28.6195 26.9386 28.5366 27.6749 27.8779C27.9735 27.6293 28.1403 27.2468 28.118 26.86C28.118 26.4669 28.0681 26.2905 27.863 25.9962C27.5974 25.6201 27.0608 25.2992 25.5276 24.6351C23.7734 23.8765 23.0148 23.4122 22.3295 22.6653C21.8981 22.1723 21.5772 21.5921 21.3945 20.9663C21.267 20.485 21.2341 19.278 21.3339 18.7967C21.6941 17.0978 22.9776 15.9194 24.82 15.5709C25.4182 15.4551 26.8122 15.4987 27.3987 15.6432L27.3976 15.6442ZM19.4182 17.0669L19.4289 18.4556H15.0014V31.0346H11.8692V18.4556H7.44813V17.0946C7.44813 16.3359 7.46512 15.7059 7.48637 15.6889C7.50337 15.6666 10.1926 15.6559 13.4576 15.6613L19.4013 15.6782L19.4182 17.0669Z" />
</symbol>

<symbol id="visual_studio_code" viewBox="0 0 35 34" fill="none">
<path d="M33.7832 3.57625L26.7889 0.2114C25.9751 -0.181714 25.0072 -0.015969 24.3708 0.620451L10.9741 12.8442L5.13578 8.41686C4.59392 8.00144 3.83 8.03543 3.32639 8.49442L1.45644 10.1986C0.837022 10.7575 0.837022 11.7318 1.45113 12.2906L6.51487 16.9113L1.45113 21.532C0.837022 22.0909 0.837022 23.0651 1.45644 23.624L3.32639 25.3282C3.83531 25.7872 4.59392 25.8212 5.13578 25.4058L10.9741 20.9731L24.3771 33.2022C25.0082 33.8386 25.9761 34.0043 26.79 33.6112L33.7906 30.2411C34.5269 29.8873 34.9912 29.1457 34.9912 28.3265V5.48869C34.9912 4.67484 34.5205 3.92792 33.7853 3.57412L33.7832 3.57625ZM26.4946 24.6323L16.3236 16.9124L26.4946 9.19247V24.6323Z" fill="#33FF00"/>
</symbol>

<symbol id="wordpress" viewBox="0 0 35 34" fill="none">
<path d="M30.5625 9.66769C31.7525 11.8479 32.4272 14.3438 32.4272 17C32.4272 22.6387 29.3778 27.5644 24.8346 30.209L29.5 16.7121C30.3744 14.5318 30.6624 12.7883 30.6624 11.2391C30.6624 10.6633 30.6241 10.132 30.5625 9.66769V9.66769ZM19.2564 9.8175C20.1755 9.77287 21 9.66769 21 9.66769C21.8245 9.5625 21.731 8.35019 20.9054 8.39481C20.9054 8.39481 18.4202 8.58288 16.8265 8.58288C15.3209 8.58288 12.7869 8.3725 12.7869 8.3725C11.9624 8.32788 11.8519 9.58481 12.6817 9.62838C12.6817 9.62838 13.4456 9.71125 14.2754 9.75588L16.6554 16.2743L13.2969 26.3075L7.73575 9.77181C8.65481 9.73356 9.48462 9.63369 9.48462 9.63369C10.3091 9.5285 10.2156 8.31619 9.39006 8.36081C9.39006 8.36081 6.91656 8.5595 5.3175 8.5595C5.03487 8.5595 4.69806 8.54887 4.34319 8.53719C7.10462 4.45825 11.8136 1.71913 17.1484 1.71913C21.1275 1.71913 24.7464 3.23531 27.4696 5.73113C27.4026 5.73113 27.3421 5.7205 27.2698 5.7205C25.7706 5.7205 24.7017 7.02631 24.7017 8.432C24.7017 9.69425 25.4327 10.7621 26.2073 12.0179C26.7885 13.0358 27.4632 14.348 27.4632 16.235C27.4632 17.5302 26.9649 19.057 26.3008 21.1661L24.7793 26.2406L19.2564 9.79413V9.8175ZM17.1484 32.2787C15.6492 32.2787 14.1989 32.0631 12.8315 31.6593L17.4141 18.3334L22.1124 31.2056C22.1454 31.2832 22.1847 31.3491 22.2229 31.416C20.6345 31.9749 18.9303 32.2798 17.1484 32.2798V32.2787ZM1.86438 17C1.86438 14.7868 2.34037 12.6777 3.18719 10.7801L10.4749 30.7572C5.38338 28.2784 1.86438 23.0488 1.86438 17V17ZM17.1484 0C7.77931 0 0.148438 7.63088 0.148438 17C0.148438 26.3691 7.77931 34 17.1484 34C26.5176 34 34.1484 26.3691 34.1484 17C34.1484 7.63088 26.5176 0 17.1484 0Z" fill="#33FF00"/>
</symbol>

</svg>