<svg width="35" height="17" viewBox="0 0 35 17" fill="none" xmlns="http://www.w3.org/2000/svg">
<path d="M2.33333 8.16667C2.33509 6.62011 2.95024 5.1374 4.04382 4.04382C5.1374 2.95023 6.62011 2.33509 8.16667 2.33333H16.3333V0H8.16667C6.00073 0 3.92351 0.860415 2.39196 2.39196C0.860414 3.92351 0 6.00073 0 8.16667C0 10.3326 0.860414 12.4098 2.39196 13.9414C3.92351 15.4729 6.00073 16.3333 8.16667 16.3333H16.3333V14H8.16667C6.62011 13.9982 5.1374 13.3831 4.04382 12.2895C2.95024 11.1959 2.33509 9.71322 2.33333 8.16667V8.16667Z" fill="#33FF00"/>
<path d="M26.8337 0H18.667V2.33333H26.8337C28.3808 2.33333 29.8645 2.94792 30.9584 4.04188C32.0524 5.13584 32.667 6.61957 32.667 8.16667C32.667 9.71376 32.0524 11.1975 30.9584 12.2915C29.8645 13.3854 28.3808 14 26.8337 14H18.667V16.3333H26.8337C28.9996 16.3333 31.0768 15.4729 32.6084 13.9414C34.1399 12.4098 35.0003 10.3326 35.0003 8.16667C35.0003 6.00073 34.1399 3.92351 32.6084 2.39196C31.0768 0.860415 28.9996 0 26.8337 0Z" fill="#33FF00"/>
<path d="M25.9587 7.04761H9.04199V9.38094H25.9587V7.04761Z" fill="#33FF00"/>
</svg>
