<svg width="28" height="34" viewBox="0 0 28 34" fill="none" xmlns="http://www.w3.org/2000/svg">
<path d="M27.5134 9.06114L19.9655 0.561296C19.8066 0.385192 19.6125 0.244302 19.3959 0.147686C19.1792 0.0510695 18.9448 0.000866653 18.7075 0.000305954H5.10778C4.54296 -0.00643118 3.98235 0.0981562 3.45796 0.308096C2.93357 0.518036 2.45567 0.829216 2.05154 1.22387C1.64742 1.61852 1.325 2.0889 1.10268 2.60817C0.880369 3.12744 0.762517 3.68541 0.755859 4.25023V29.7498C0.762517 30.3146 0.880369 30.8726 1.10268 31.3918C1.325 31.9111 1.64742 32.3815 2.05154 32.7761C2.45567 33.1708 2.93357 33.482 3.45796 33.6919C3.98235 33.9018 4.54296 34.0064 5.10778 33.9997H23.6034C24.1683 34.0064 24.7289 33.9018 25.2533 33.6919C25.7777 33.482 26.2556 33.1708 26.6597 32.7761C27.0638 32.3815 27.3862 31.9111 27.6085 31.3918C27.8309 30.8726 27.9487 30.3146 27.9554 29.7498V10.2001C27.9543 9.77881 27.7968 9.37291 27.5134 9.06114V9.06114ZM17.7556 3.40024L24.1134 10.2001H19.0135C18.8355 10.1894 18.6614 10.1433 18.5014 10.0645C18.3414 9.98576 18.1987 9.87592 18.0816 9.74141C17.9645 9.6069 17.8753 9.45041 17.8193 9.28107C17.7634 9.11174 17.7417 8.93295 17.7556 8.75515V3.40024Z" fill="#33FF00"/>
</svg>
