<svg width="52" height="52" viewBox="0 0 52 52" fill="none" xmlns="http://www.w3.org/2000/svg">
<path d="M5.65527 8.13665L5.65527 43.4182C5.65527 44.5679 6.57682 45.5 7.71361 45.5H7.93027C9.06706 45.5 9.98861 44.5679 9.98861 43.4182L9.98861 8.13665C9.98861 6.98689 9.06706 6.05482 7.93027 6.05482H7.71361C6.57682 6.05482 5.65527 6.98689 5.65527 8.13665Z" fill="#33FF00"/>
<path d="M12.9883 14.437L12.9883 37.118C12.9883 37.8571 13.947 38.4563 15.1296 38.4563H15.355C16.5376 38.4563 17.4963 37.8571 17.4963 37.118V14.437C17.4963 13.6979 16.5376 13.0987 15.355 13.0987H15.1296C13.947 13.0987 12.9883 13.6979 12.9883 14.437Z" fill="#33FF00"/>
<path d="M20.4971 19.4772V32.0778C20.4971 32.4884 21.3359 32.8213 22.3707 32.8213H22.5679C23.6027 32.8213 24.4416 32.4884 24.4416 32.0778V19.4772C24.4416 19.0666 23.6027 18.7337 22.5679 18.7337H22.3707C21.3359 18.7337 20.4971 19.0666 20.4971 19.4772Z" fill="#33FF00"/>
<path d="M27.4414 14.437V37.118C27.4414 37.8571 28.4001 38.4563 29.5827 38.4563H29.8081C30.9907 38.4563 31.9494 37.8571 31.9494 37.118V14.437C31.9494 13.6979 30.9907 13.0987 29.8081 13.0987H29.5827C28.4001 13.0987 27.4414 13.6979 27.4414 14.437Z" fill="#33FF00"/>
<path d="M34.9492 19.4772V32.0778C34.9492 32.4884 35.7881 32.8213 36.8229 32.8213H37.0201C38.0549 32.8213 38.8937 32.4884 38.8937 32.0778V19.4772C38.8937 19.0666 38.0549 18.7337 37.0201 18.7337H36.8229C35.7881 18.7337 34.9492 19.0666 34.9492 19.4772Z" fill="#33FF00"/>
<path d="M41.8936 8.13665V43.4182C41.8936 44.5679 42.8151 45.5 43.9519 45.5H44.1686C45.3053 45.5 46.2269 44.5679 46.2269 43.4182V8.13665C46.2269 6.98689 45.3053 6.05482 44.1686 6.05482H43.9519C42.8151 6.05482 41.8936 6.98689 41.8936 8.13665Z" fill="#33FF00"/>
</svg>
