<svg width="35" height="31" viewBox="0 0 35 31" fill="none" xmlns="http://www.w3.org/2000/svg">
<path d="M17.2666 12.0938C15.5953 12.0938 14.2342 13.4548 14.2342 15.1261C14.2342 16.7974 15.5953 18.1585 17.2666 18.1585C18.9379 18.1585 20.299 16.7974 20.299 15.1261C20.299 13.4548 18.9379 12.0938 17.2666 12.0938ZM8.77723 21.1526L8.10785 20.9869C3.12685 19.7246 0.266602 17.589 0.266602 15.1208C0.266602 12.6526 3.12791 10.517 8.10785 9.25476L8.77723 9.08901L8.96529 9.75307C9.46891 11.4903 10.116 13.1839 10.8969 14.8223L11.0404 15.1208L10.8969 15.4247C10.117 17.0567 9.46891 18.7503 8.96529 20.4939L8.77723 21.1526ZM7.79866 10.8039C4.01298 11.8664 1.68929 13.4984 1.68929 15.1208C1.68929 16.7433 4.01404 18.3689 7.79866 19.4378C8.26404 17.9598 8.82291 16.5212 9.47529 15.1208C8.82185 13.7204 8.26298 12.2818 7.79866 10.8039V10.8039ZM25.756 21.1526L25.5679 20.4886C25.0643 18.7514 24.4172 17.0578 23.6363 15.4247L23.4929 15.1208L23.6363 14.8169C24.4162 13.1849 25.0643 11.4913 25.5679 9.74776L25.756 9.08901L26.4254 9.25476C31.4064 10.517 34.2666 12.6526 34.2666 15.1208C34.2666 17.589 31.4053 19.7246 26.4254 20.9869L25.756 21.1526ZM25.0579 15.1208C25.739 16.5924 26.3032 18.0374 26.7345 19.4378C30.5255 18.3699 32.8439 16.7433 32.8439 15.1208C32.8439 13.4984 30.5192 11.8728 26.7345 10.8039C26.2692 12.2754 25.7103 13.7204 25.0579 15.1208ZM7.78698 10.7986L7.59891 10.1345C6.19854 5.19814 6.6246 1.65682 8.7666 0.422197C10.8693 -0.790115 14.2395 0.643197 17.7755 4.27376L18.2569 4.76676L17.7755 5.25976C16.5197 6.56557 15.3743 7.97126 14.3447 9.46514L14.1514 9.73607L13.8188 9.7637C12.0094 9.90714 10.2159 10.1951 8.45635 10.6275L7.78698 10.7986ZM10.4762 1.4082C10.0947 1.4082 9.75685 1.48576 9.47423 1.65151C8.06854 2.46538 7.81991 5.28739 8.78785 9.09432C10.2987 8.75645 11.8255 8.51845 13.3704 8.38032C14.2555 7.11807 15.2298 5.91214 16.2753 4.77739C14.0674 2.62476 11.9754 1.40713 10.4762 1.40713V1.4082ZM24.0624 30.2498C24.057 30.2498 24.057 30.2498 24.0624 30.2498C22.0425 30.2498 19.4469 28.7336 16.7577 25.9668L16.2764 25.4738L16.7577 24.9808C18.0135 23.675 19.1589 22.2693 20.1885 20.7754L20.3765 20.5045L20.7091 20.4716C22.5185 20.3334 24.312 20.0455 26.0769 19.6078L26.7462 19.442L26.9343 20.1061C28.3347 25.0424 27.9086 28.5784 25.7666 29.812C25.246 30.1106 24.6595 30.2604 24.0624 30.2487V30.2498ZM18.2569 25.4632C20.4647 27.6158 22.5568 28.8334 24.056 28.8334H24.0613C24.4374 28.8334 24.7753 28.7506 25.0579 28.5901C26.4636 27.7763 26.7186 24.9543 25.7443 21.1473C24.2334 21.4852 22.7002 21.7232 21.1617 21.856C20.2767 23.1236 19.3024 24.3242 18.2569 25.4643V25.4632ZM26.7462 10.7986L26.0769 10.6275C24.312 10.1961 22.5185 9.9082 20.7091 9.7637L20.3765 9.73607L20.1885 9.46514C19.1589 7.97126 18.0135 6.56557 16.7577 5.25976L16.2764 4.76676L16.7577 4.27376C20.2937 0.643197 23.6639 -0.790115 25.7666 0.422197C27.9086 1.65576 28.3347 5.19814 26.9343 10.1345L26.7462 10.7986ZM21.1628 8.38032C22.7789 8.53014 24.3174 8.76814 25.7454 9.09432C26.7197 5.28739 26.4647 2.46432 25.059 1.65151C23.6586 0.84401 21.0247 2.08289 18.2579 4.77845C19.3034 5.91851 20.2724 7.11914 21.1628 8.38139V8.38032ZM10.4762 30.2498C9.87798 30.2604 9.28616 30.1116 8.7666 29.8131C6.6246 28.5795 6.19854 25.0424 7.59891 20.1071L7.78698 19.4431L8.45635 19.6088C10.0947 20.0243 11.8989 20.3111 13.8188 20.4726L14.1514 20.5056L14.3394 20.7765C15.369 22.2704 16.5144 23.6761 17.7702 24.9819L18.2515 25.4749L17.7702 25.9679C15.0864 28.7346 12.4907 30.2508 10.4762 30.2508V30.2498ZM8.78891 21.1473C7.8146 24.9543 8.0696 27.7773 9.47529 28.5901C10.8757 29.387 13.5043 28.1588 16.2764 25.4632C15.2309 24.3231 14.2565 23.1225 13.3715 21.8549C11.8277 21.7221 10.2998 21.4841 8.78891 21.1463V21.1473ZM17.2666 22.0377C16.0989 22.0377 14.9036 21.9878 13.703 21.8879L13.3704 21.8603L13.177 21.584C12.5024 20.6097 11.8595 19.6088 11.2677 18.5793C10.6695 17.5497 10.1224 16.4989 9.61341 15.4247L9.46998 15.1208L9.61341 14.8169C10.1224 13.7438 10.6706 12.6919 11.2677 11.6624C11.8542 10.6498 12.496 9.63726 13.177 8.65763L13.3704 8.38139L13.703 8.35376C16.0766 8.15401 18.4619 8.15401 20.8302 8.35376L21.1628 8.38139L21.3562 8.65763C22.7119 10.6052 23.9072 12.6696 24.9198 14.8169L25.0632 15.1208L24.9198 15.4247C23.9072 17.572 22.7172 19.6364 21.3562 21.584L21.1628 21.8603L20.8302 21.8879C19.6349 21.9878 18.4343 22.0377 17.2666 22.0377V22.0377ZM14.1567 20.4992C16.2487 20.6596 18.2845 20.6596 20.3819 20.4992C21.5495 18.7896 22.5897 16.9908 23.4918 15.1198C22.595 13.2498 21.5549 11.4509 20.3765 9.74032C18.3068 9.57988 16.2264 9.57988 14.1567 9.74032C12.9784 11.4499 11.9371 13.2487 11.0414 15.1198C11.9435 16.9898 12.9837 18.7886 14.1567 20.4992Z" fill="#33FF00"/>
</svg>
