<svg width="35" height="34" viewBox="0 0 35 34" fill="none" xmlns="http://www.w3.org/2000/svg">
<path d="M33.7832 3.57625L26.7889 0.2114C25.9751 -0.181714 25.0072 -0.015969 24.3708 0.620451L10.9741 12.8442L5.13578 8.41686C4.59392 8.00144 3.83 8.03543 3.32639 8.49442L1.45644 10.1986C0.837022 10.7575 0.837022 11.7318 1.45113 12.2906L6.51487 16.9113L1.45113 21.532C0.837022 22.0909 0.837022 23.0651 1.45644 23.624L3.32639 25.3282C3.83531 25.7872 4.59392 25.8212 5.13578 25.4058L10.9741 20.9731L24.3771 33.2022C25.0082 33.8386 25.9761 34.0043 26.79 33.6112L33.7906 30.2411C34.5269 29.8873 34.9912 29.1457 34.9912 28.3265V5.48869C34.9912 4.67484 34.5205 3.92792 33.7853 3.57412L33.7832 3.57625ZM26.4946 24.6323L16.3236 16.9124L26.4946 9.19247V24.6323Z" fill="#33FF00"/>
</svg>
