<svg width="35" height="34" viewBox="0 0 35 34" fill="none" xmlns="http://www.w3.org/2000/svg">
<path d="M21.0029 0.251609L22.2747 0.531762L23.3033 0.900718L24.1353 1.32359L24.7686 1.77606L25.2475 2.25497L25.5995 2.73281L25.8247 3.19692L25.9632 3.61979L26.0234 3.98346L26.052 4.26995L26.0351 4.45179V11.9789L25.9632 12.8659L25.7813 13.6429L25.4843 14.2931L25.1206 14.827L24.6977 15.2615L24.2357 15.6135L23.7399 15.8841L23.2441 16.0818L22.7821 16.2256L22.3592 16.3186L21.9956 16.3789L21.6985 16.4075H13.2791L12.3107 16.4783L11.4787 16.6717L10.7736 16.9857L10.1953 17.3653L9.72699 17.8177L9.34641 18.3072L9.06625 18.8199L8.85588 19.3369L8.71316 19.8317L8.61484 20.2841L8.55881 20.6637L8.53238 20.9607V25.273H5.38726L5.09125 25.2275L4.69375 25.1292L4.24868 24.9643L3.75286 24.7106L3.24647 24.3427L2.74008 23.8352L2.24426 23.185L1.79285 22.353L1.39535 21.3244L1.10357 20.0854L0.905873 18.6043L0.833984 16.8705L0.917502 15.1526L1.14268 13.6884L1.48415 12.461L1.93557 11.4588L2.44301 10.6553L3.00438 10.0379L3.59957 9.5696L4.18842 9.23448L4.75507 9.0093L5.26252 8.86552L5.71393 8.79363L6.04906 8.782H6.27424L6.36304 8.79363H17.8599V7.6265H9.62762L9.61599 3.74982L9.58956 3.22652L9.66145 2.74761L9.81474 2.31311L10.0515 1.91561L10.4036 1.553L10.8444 1.22739L11.3773 0.947234L11.9999 0.688225L12.7156 0.47996L13.536 0.309754L14.4325 0.171263L15.4347 0.0835173L16.5204 0.0285439L17.7045 0L19.4932 0.0718883L21.0029 0.251609ZM12.1268 3.04257L11.8012 3.50456L11.6859 4.08283L11.8012 4.66217L12.1268 5.14001L12.5888 5.454L13.1671 5.58086L13.7453 5.454L14.2073 5.14001L14.5329 4.66217L14.6482 4.08283L14.5329 3.50456L14.2073 3.04257L13.7453 2.73387L13.1671 2.60807L12.5888 2.73387L12.1268 3.04257ZM30.5778 8.60863L30.9679 8.69743L31.4193 8.86235L31.9151 9.11607L32.4215 9.4956L32.9289 9.99142L33.4237 10.6522L33.8751 11.482L34.2673 12.5128L34.5644 13.7571L34.7621 15.2213L34.834 16.9551L34.7462 18.6899L34.5189 20.1541L34.1838 21.3646L33.7324 22.3668L33.225 23.1702L32.6583 23.8045L32.0695 24.2665L31.4743 24.608L30.9129 24.8332L30.4055 24.96L29.954 25.0319L29.6189 25.0584L29.3937 25.0425H17.8028V26.198H26.0351L26.052 30.0916L26.0784 30.598L26.0065 31.0769L25.8532 31.5114L25.6111 31.9184L25.2591 32.2705L24.8246 32.613L24.2907 32.8931L23.668 33.1352L22.9523 33.3435L22.132 33.5253L21.2302 33.6522L20.2333 33.7505L19.1422 33.8055L17.9582 33.8224L16.1695 33.7674L14.6609 33.5687L13.3933 33.2885L12.3647 32.9365L11.5327 32.5125L10.8994 32.0442L10.4205 31.5653L10.0685 31.0875L9.84328 30.6234L9.6995 30.2005L9.64453 29.8485L9.61599 29.5662L9.62762 29.3854V21.8583L9.6995 20.9544L9.88663 20.189L10.1784 19.5452L10.5474 19.0049L10.9702 18.5599L11.4343 18.2184L11.9291 17.9361L12.4196 17.7384L12.888 17.5947L13.3119 17.5133L13.6745 17.4583L14.1534 17.4128H22.3857L23.3593 17.342L24.1913 17.1485L24.8965 16.8515L25.4748 16.455L25.9389 16.0026L26.3184 15.5131L26.6049 15.0003L26.8153 14.494L26.958 14.0034L27.0584 13.552L27.1134 13.1556L27.1398 12.8585V8.54625H30.0862L30.2849 8.55788L30.5778 8.60863ZM21.4532 28.6951L21.1276 29.1634L21.0177 29.7427L21.1276 30.321L21.4532 30.783L21.9216 31.1076L22.4999 31.2175L23.0781 31.1076L23.5401 30.783L23.8657 30.321L23.981 29.7427L23.8657 29.1634L23.5401 28.6951L23.0781 28.3705L22.4999 28.2606L21.9216 28.3705L21.4532 28.6951Z" fill="#33FF00"/>
</svg>
