<svg width="357" height="325" viewBox="0 0 357 325" fill="none" xmlns="http://www.w3.org/2000/svg">
<path d="M11.001 13L11 306.731L21.321 325H309H327L357 299.5V282.5V13H11.001Z" fill="#33FF00"/>
<path d="M2 10.9137L11.2625 2H336L336 287.983L300.999 318H8.8596L2 307.373V10.9137Z" fill="#282828" stroke="#33FF00" stroke-width="4"/>
<path d="M51 8L41.5 8L39.885 11.06L32 26L41.5 26L43.78 21.68L51 8Z" fill="#33FF00"/>
<path d="M75 8L66 8L64.47 11.06L57 26L66 26L68.16 21.68L75 8Z" fill="#33FF00"/>
<path d="M99 8L90 8L88.47 11.06L81 26L90 26L92.16 21.68L99 8Z" fill="#33FF00"/>
<path d="M124 8L114.5 8L112.885 11.06L105 26L114.5 26L116.78 21.68L124 8Z" fill="#33FF00"/>
<path d="M149 8L139.5 8L137.885 11.06L130 26L139.5 26L141.78 21.68L149 8Z" fill="#33FF00"/>
<path d="M174 8L164.5 8L162.885 11.06L155 26L164.5 26L166.78 21.68L174 8Z" fill="#33FF00"/>
<path d="M199 8L189.5 8L187.885 11.06L180 26L189.5 26L191.78 21.68L199 8Z" fill="#33FF00"/>
<path d="M224 8L214.5 8L212.885 11.06L205 26L214.5 26L216.78 21.68L224 8Z" fill="#33FF00"/>
<path d="M249 8L239.5 8L237.885 11.06L230 26L239.5 26L241.78 21.68L249 8Z" fill="#33FF00"/>
<path d="M274 8L264.5 8L262.885 11.06L255 26L264.5 26L266.78 21.68L274 8Z" fill="#33FF00"/>
<path d="M299 8L289.5 8L287.885 11.06L280 26L289.5 26L291.78 21.68L299 8Z" fill="#33FF00"/>
</svg>
