<svg width="34" height="34" viewBox="0 0 34 34" fill="none" xmlns="http://www.w3.org/2000/svg">
<path d="M17.0011 0.00106255C7.60904 0.00106255 0 7.61648 0 17.0021C0 24.5177 4.8708 30.8877 11.6213 33.1351C12.4745 33.2955 12.7827 32.7695 12.7827 32.3148C12.7827 31.911 12.7731 30.8431 12.7667 29.4257C8.03513 30.45 7.03844 27.1401 7.03844 27.1401C6.26383 25.1807 5.14601 24.6547 5.14601 24.6547C3.60741 23.6038 5.2682 23.6262 5.2682 23.6262C6.97256 23.742 7.86937 25.3741 7.86937 25.3741C9.38565 27.9752 11.8476 27.223 12.822 26.7852C12.9707 25.6897 13.4138 24.9363 13.8962 24.5166C10.122 24.0905 6.15332 22.6295 6.15332 16.1149C6.15332 14.2543 6.81211 12.7391 7.90124 11.549C7.71317 11.1229 7.13726 9.39096 8.05107 7.04907C8.05107 7.04907 9.47384 6.59535 12.7264 8.79274C14.0875 8.41553 15.5326 8.22745 16.9766 8.21789C18.4217 8.22745 19.8657 8.41659 21.2269 8.79274C24.4603 6.59535 25.882 7.04907 25.882 7.04907C26.7947 9.39096 26.2188 11.1219 26.0531 11.549C27.1316 12.7391 27.7904 14.2554 27.7904 16.1149C27.7904 22.6444 23.8164 24.0841 20.0379 24.4996C20.6287 25.0086 21.1823 26.0552 21.1823 27.6437C21.1823 29.9176 21.161 31.7495 21.161 32.3031C21.161 32.7451 21.4585 33.2764 22.3341 33.1053C29.1345 30.8814 34 24.506 34 17.0011C34 7.61541 26.391 0 16.9989 0L17.0011 0.00106255Z" fill="#33FF00"/>
</svg>
