<svg width="35" height="34" viewBox="0 0 35 34" fill="none" xmlns="http://www.w3.org/2000/svg">
<path d="M25.6098 31.8771C25.4834 31.944 25.494 31.9653 25.6151 31.9036C25.6544 31.8877 25.6874 31.8654 25.7161 31.8388C25.7161 31.8165 25.7161 31.8165 25.6098 31.8771V31.8771ZM25.8648 31.739C25.8042 31.7889 25.8042 31.7889 25.8765 31.756C25.9147 31.7336 25.9487 31.7124 25.9487 31.706C25.9487 31.6773 25.9317 31.6837 25.8648 31.739V31.739ZM26.0306 31.6391C25.97 31.689 25.97 31.689 26.0422 31.6561C26.0816 31.6338 26.1145 31.6104 26.1145 31.6051C26.1145 31.5785 26.0975 31.5838 26.0306 31.6391ZM26.1984 31.5403C26.1379 31.5902 26.1379 31.5902 26.208 31.5562C26.2473 31.5349 26.2803 31.5126 26.2803 31.5063C26.2803 31.4797 26.2633 31.485 26.1984 31.5403ZM26.4248 31.3904C26.3089 31.468 26.2686 31.5179 26.3748 31.4627C26.446 31.4191 26.5671 31.3235 26.5459 31.3235C26.5002 31.3405 26.4619 31.3692 26.4237 31.3904H26.4248ZM16.2639 0.00780956C16.1863 0.0131222 15.9536 0.0343726 15.7496 0.0513729C10.9173 0.489132 6.39622 3.09018 3.5306 7.09695C1.94638 9.29319 0.917863 11.8443 0.530042 14.5229C0.392977 15.4579 0.375977 15.7342 0.375977 17.0018C0.375977 18.2683 0.392977 18.5403 0.530042 19.4753C1.4555 25.8621 5.99884 31.2236 12.1572 33.2105C13.2654 33.5644 14.4268 33.8087 15.7496 33.9586C16.2639 34.0138 18.4877 34.0138 19.002 33.9586C21.2885 33.7036 23.2191 33.1394 25.1295 32.165C25.4228 32.0163 25.478 31.977 25.4387 31.944C24.5037 30.7104 23.5857 29.4758 22.6666 28.2305L19.9497 24.5616L16.5465 19.52C15.4117 17.8327 14.2727 16.1496 13.1156 14.4794C13.1039 14.4794 13.089 16.7202 13.0827 19.453C13.071 24.2397 13.071 24.4341 13.0104 24.5446C12.9499 24.6774 12.85 24.7879 12.7172 24.8496C12.612 24.8995 12.5174 24.9101 12.0148 24.9101H11.44L11.2902 24.8166C11.1967 24.7561 11.1191 24.6721 11.0692 24.5733L10.9969 24.4235L11.0023 17.7604L11.0139 11.0973L11.1191 10.9645C11.1861 10.8827 11.2689 10.8158 11.3624 10.7658C11.5016 10.6989 11.5569 10.6883 12.1317 10.6883C12.8064 10.6883 12.918 10.7148 13.0954 10.9093C14.4725 12.9621 15.8452 15.0202 17.1957 17.0847C19.4047 20.4337 22.4201 25.0036 23.9023 27.2455L26.5979 31.3246L26.7308 31.2364C28.026 30.3726 29.2043 29.344 30.2211 28.171C32.3632 25.7187 33.753 22.7022 34.2237 19.4828C34.3607 18.5477 34.3777 18.2704 34.3777 17.0039C34.3777 15.7363 34.3607 15.4654 34.2237 14.5304C33.2982 8.14354 28.7549 2.78205 22.5965 0.794076C21.4447 0.429631 20.26 0.181001 19.0604 0.053498C18.7385 0.0205598 16.5412 -0.0187535 16.2649 0.00993461L16.2639 0.00780956ZM23.2202 10.2898C23.3806 10.3663 23.5018 10.5108 23.557 10.6766C23.5857 10.7658 23.591 12.6136 23.5857 16.7755L23.574 22.7511L22.5232 21.1361L21.466 19.52V15.1817C21.466 12.3692 21.4777 10.7924 21.4925 10.7148C21.5425 10.5374 21.6636 10.3886 21.8251 10.2951C21.9569 10.2282 22.0079 10.2229 22.5338 10.2229C23.0257 10.2229 23.1086 10.2282 23.2191 10.2898H23.2202Z" fill="#33FF00"/>
</svg>
