<svg width="32" height="34" viewBox="0 0 32 34" fill="none" xmlns="http://www.w3.org/2000/svg">
<path d="M18.8939 3.89713L25.8828 7.93663C27.0399 6.71904 28.965 6.6691 30.1826 7.82613C30.3877 8.02587 30.5704 8.25218 30.7139 8.5008C31.549 9.95638 31.0464 11.8157 29.5845 12.6508C29.3412 12.7889 29.0755 12.8994 28.7929 12.9663V21.04C30.4196 21.4278 31.4215 23.0545 31.0337 24.6811C30.9667 24.969 30.8509 25.2453 30.7075 25.5003C29.866 26.9505 28.0131 27.4478 26.5575 26.6074C26.2813 26.4522 26.0263 26.2419 25.8159 26.0039L18.8652 30.0158C19.3912 31.6041 18.5274 33.319 16.939 33.8449C16.6287 33.9501 16.3079 34 15.987 34C14.3158 34 12.9547 32.6496 12.9547 30.973C12.9547 30.6851 12.9994 30.3919 13.0822 30.1092L6.08801 26.0751C4.93099 27.2873 3.01111 27.3373 1.7999 26.1749C0.593998 25.0179 0.549375 23.1033 1.70003 21.8921C2.10376 21.4714 2.61906 21.1728 3.18323 21.0347V12.961C1.55659 12.5732 0.549375 10.936 0.942488 9.30296C1.00942 9.02034 1.11992 8.74942 1.26335 8.5008C2.09845 7.05053 3.95777 6.5533 5.40804 7.39371C5.65665 7.53714 5.88933 7.71457 6.08908 7.92494L13.0833 3.89075C12.6073 2.28643 13.5263 0.598169 15.1254 0.127496C15.4016 0.0393113 15.6948 0 15.9891 0C17.6604 0 19.0214 1.3504 19.0214 3.02166C19.0214 3.32021 18.9768 3.61345 18.8939 3.89607V3.89713ZM18.164 5.14234C18.1364 5.16996 18.1141 5.19759 18.0811 5.22521L27.2343 21.074C27.2725 21.0634 27.3172 21.0517 27.3501 21.0411V12.9568C25.7288 12.5584 24.7439 10.9147 25.1476 9.2934C25.1529 9.26046 25.1646 9.22115 25.1699 9.18821L18.164 5.14234ZM13.8918 5.22521L13.809 5.14234L6.80305 9.18184C7.26841 10.7862 6.33769 12.4638 4.73337 12.9281C4.69512 12.9387 4.66112 12.9451 4.62287 12.9557V21.04L4.74506 21.073L13.8982 5.22415L13.8918 5.22521ZM16.8359 5.9445C16.2824 6.09962 15.6959 6.09962 15.1477 5.9445L5.99452 21.7933C6.40994 22.1917 6.70318 22.706 6.84662 23.2712H25.1359C25.274 22.707 25.5673 22.1917 25.988 21.788L16.8359 5.9445ZM18.2299 28.931L25.1912 24.9085C25.1689 24.8415 25.1529 24.7757 25.1359 24.7087H6.8413L6.80837 24.8245L13.809 28.864C14.3572 28.2946 15.1317 27.9397 15.9891 27.9397C16.8806 27.9397 17.6774 28.3211 18.2299 28.9299V28.931Z" fill="#33FF00"/>
</svg>
