<svg width="35" height="33" viewBox="0 0 35 33" fill="none" xmlns="http://www.w3.org/2000/svg">
<path d="M16.6944 0.00106245C15.2558 3.52101 14.392 5.82763 12.793 9.24771C13.7726 10.2879 14.9785 11.5001 16.9324 12.8665C14.8297 11.9974 13.3965 11.1293 12.3223 10.2273C10.2749 14.5048 7.06523 20.5864 0.557617 32.2841C5.67658 29.3294 9.63852 27.5083 13.3348 26.8113C13.1797 26.1303 13.0862 25.3951 13.0915 24.6195L13.0969 24.459C13.1797 21.1771 14.8839 18.6601 16.9037 18.8312C18.9234 19.0022 20.4948 21.7976 20.4172 25.0785C20.4002 25.6926 20.3291 26.2844 20.2069 26.8379C23.865 27.5519 27.7876 29.3666 32.8343 32.2831C31.8377 30.4514 30.9527 28.7971 30.1006 27.2257C28.7672 26.1909 27.3722 24.8405 24.5332 23.3796C26.4871 23.8885 27.8811 24.475 28.9712 25.1284C20.3439 9.07559 19.6523 6.93897 16.6922 0L16.6944 0.00106245ZM32.9958 29.4016V28.5219H32.6632V28.3997H33.4601V28.5219H33.1275V29.4016H32.9947H32.9958ZM33.5993 29.4016V28.3997H33.799L34.037 29.1084C34.0593 29.1753 34.0753 29.2242 34.0816 29.2582C34.0923 29.2253 34.1146 29.17 34.1369 29.0978L34.3749 28.4008H34.5576V29.4027H34.4301V28.5612L34.1369 29.4027H34.0147L33.7268 28.5506V29.4027H33.5993V29.4016Z" fill="#33FF00"/>
</svg>
