<svg width="32" height="34" viewBox="0 0 32 34" fill="none" xmlns="http://www.w3.org/2000/svg">
<path d="M30.9613 16.7439C30.9613 14.7412 29.6056 12.9872 27.6635 12.4783L31.8962 0H10.9238L15.1693 12.5229C13.2866 13.0711 11.9915 14.7912 11.9862 16.7503C11.9862 18.2282 12.7225 19.5392 13.8465 20.3466C13.3993 20.983 12.8829 21.5706 12.3135 22.106C11.268 23.1037 10.0388 23.8941 8.70013 24.4423C7.51552 23.6444 7.00767 22.2335 7.46664 20.9788C12.2805 19.4786 11.2181 12.3848 6.18323 12.3635C3.74813 12.3678 1.77307 14.3386 1.77307 16.7737C1.77307 17.9753 2.2586 19.076 3.05118 19.8664C2.97893 19.9992 2.912 20.1437 2.83975 20.2871C2.18211 21.6481 1.43415 23.1812 1.1473 24.9023C0.577834 28.3499 1.51277 31.1165 3.77044 32.6825C4.98693 33.541 6.44777 34.0053 7.94261 34C10.5264 34 13.156 32.6995 15.6952 31.4374C17.5098 30.546 19.3797 29.6111 21.2166 29.1585C21.8977 28.9927 22.6063 28.8939 23.3532 28.7813C24.8693 28.5656 26.4353 28.3393 27.8409 27.5202C29.4675 26.5906 30.6022 24.9863 30.9336 23.143C31.1769 21.7374 30.9336 20.3211 30.3036 19.076C30.7297 18.395 30.9623 17.6045 30.9623 16.7461L30.9613 16.7439ZM29.0415 16.7439C29.0415 18.1113 27.928 19.2226 26.5628 19.2226C24.2159 19.2173 23.1875 16.2573 25.0286 14.7954L25.034 14.7859C25.1179 14.7253 25.2071 14.6637 25.2889 14.6074C25.2889 14.6074 25.3059 14.6074 25.3059 14.5978C25.3442 14.5755 25.3824 14.5479 25.4217 14.5256C25.4334 14.5256 25.4387 14.5203 25.4483 14.5203C25.4876 14.498 25.5376 14.482 25.5875 14.4597C25.6374 14.4374 25.6863 14.4215 25.7267 14.3991C25.7362 14.3991 25.7426 14.3938 25.7532 14.3938C25.7925 14.3821 25.8372 14.3609 25.8754 14.3556C25.8807 14.3556 25.9041 14.3439 25.9147 14.3439C25.9647 14.3322 26.0029 14.3216 26.0518 14.3152H26.0571L26.2069 14.2823C26.2164 14.2823 26.2334 14.2823 26.2451 14.2706C26.2834 14.2706 26.3227 14.2589 26.3673 14.2589H26.4109C26.4608 14.2589 26.5097 14.2536 26.5713 14.2536H26.6988C26.7381 14.2536 26.771 14.2536 26.8093 14.2589H26.8263C26.9038 14.2706 26.9867 14.2812 27.0643 14.3046C28.2149 14.5479 29.0404 15.5657 29.0404 16.7439H29.0415ZM13.6691 1.97081H29.1519L25.5992 12.4506C25.4494 12.4793 25.3059 12.5282 25.1561 12.5781L21.4164 4.95306L17.6639 12.5293C17.5204 12.4836 17.359 12.4517 17.1996 12.4241L13.6691 1.97081ZM20.7077 15.8866C20.525 14.9782 20.0607 14.1484 19.3786 13.5237L21.4153 9.41315L23.4732 13.6119C22.8581 14.2207 22.4161 15.0015 22.2398 15.8866H20.7077ZM15.777 14.3311C15.8205 14.3195 15.8662 14.3099 15.9162 14.3046H15.9427C15.982 14.2929 16.0203 14.2929 16.0585 14.2823H16.0978C16.1361 14.2823 16.1701 14.2706 16.2083 14.2706H16.5897C16.6291 14.2706 16.662 14.2823 16.6907 14.2823C16.7119 14.2823 16.7172 14.2823 16.7406 14.294C16.7789 14.3057 16.8075 14.3057 16.8458 14.311C16.8575 14.311 16.8681 14.311 16.8894 14.3205L17.0222 14.3492H17.0338C17.0721 14.3609 17.1178 14.3715 17.156 14.3928C17.1613 14.3928 17.173 14.3981 17.1943 14.3981C17.223 14.4098 17.2612 14.4204 17.2952 14.4363C17.2995 14.4363 17.3111 14.448 17.3218 14.448C17.36 14.4703 17.3993 14.482 17.4376 14.498H17.4493C17.4928 14.5149 17.5374 14.5373 17.5767 14.5702H17.5884C17.6267 14.5872 17.6649 14.6138 17.7042 14.6371C17.7138 14.6371 17.7138 14.6488 17.7255 14.6488C17.7648 14.6658 17.7924 14.6988 17.8307 14.7157L17.8424 14.7274C17.9582 14.8156 18.0687 14.9144 18.1813 15.0154L18.1855 15.0207C18.6286 15.485 18.8729 16.099 18.8665 16.7344C18.7614 19.9334 14.0134 19.9334 13.9082 16.7344C13.9029 15.6008 14.6774 14.6095 15.7781 14.3333L15.777 14.3311ZM6.08761 14.2589C7.45496 14.2589 8.56626 15.3766 8.56626 16.7439C8.56626 18.1113 7.4539 19.2226 6.08761 19.2226C4.72238 19.2226 3.60895 18.1102 3.60895 16.7439C3.60895 15.3776 4.72238 14.2589 6.08761 14.2589V14.2589ZM28.9851 22.7987C28.7588 24.0705 27.9737 25.1775 26.8507 25.8203C25.7766 26.4397 24.4539 26.6394 23.0716 26.8317C22.2908 26.9327 21.5109 27.0697 20.747 27.2471C18.6997 27.7518 16.73 28.7303 14.8197 29.6769C12.3804 30.8892 10.0781 32.0281 7.94261 32.0281C6.84725 32.0334 5.7795 31.6966 4.88812 31.0549C2.72395 29.5601 2.83019 26.7552 3.08942 25.2168C3.3221 23.7772 3.9808 22.4333 4.61083 21.1445C4.65651 21.067 4.68307 20.9947 4.72238 20.9182C4.93806 20.9947 5.16435 21.0553 5.40234 21.0957C5.02518 23.1812 6.08761 25.3401 8.15723 26.4025L8.52801 26.5948L8.93174 26.4514C10.6529 25.8362 12.2518 24.846 13.6574 23.5191C14.4383 22.7934 15.1236 21.9753 15.7047 21.084C15.9332 21.1222 16.1595 21.1339 16.3858 21.1339C18.3884 21.1286 20.1372 19.7782 20.6472 17.8361H22.3014C22.8039 19.7782 24.558 21.1339 26.5628 21.1339C27.3819 21.1339 28.1395 20.9076 28.7865 20.5251C29.0415 21.2614 29.1233 22.0306 28.9851 22.7998V22.7987Z" fill="#33FF00"/>
</svg>
