<svg width="35" height="34" viewBox="0 0 35 34" fill="none" xmlns="http://www.w3.org/2000/svg">
<path d="M34.1911 15.4825L19.3463 0.642968C18.4943 -0.214323 17.1059 -0.214323 16.2475 0.642968L13.171 3.72475L17.0825 7.63089C17.995 7.32707 19.0361 7.53103 19.7553 8.2566C20.4862 8.98747 20.6901 10.0381 20.381 10.9453L24.1437 14.7134C25.0563 14.3979 26.1079 14.6029 26.8324 15.3327C27.8565 16.3504 27.8565 17.9991 26.8324 19.0179C25.8147 20.0356 24.1713 20.0356 23.1526 19.0179C22.3888 18.2541 22.1954 17.1259 22.5768 16.191L19.052 12.6833V21.9286C19.3006 22.0508 19.5386 22.2165 19.7436 22.4215C20.756 23.4456 20.756 25.088 19.7436 26.1067C18.7259 27.1244 17.0708 27.1244 16.0478 26.1067C15.0301 25.089 15.0301 23.4456 16.0478 22.4215C16.3081 22.1666 16.596 21.9785 16.9051 21.8521V12.5186C16.6013 12.3858 16.307 12.2031 16.0531 11.9492C15.284 11.1801 15.096 10.0519 15.4943 9.10539L11.6541 5.24386L1.47387 15.4187C0.6272 16.2707 0.6272 17.6592 1.47387 18.5175L16.3187 33.357C17.176 34.2143 18.5591 34.2143 19.4175 33.357L34.1901 18.5844C35.0473 17.7325 35.0473 16.344 34.1901 15.4857L34.1911 15.4825Z" fill="#33FF00"/>
</svg>
