<svg width="34" height="34" viewBox="0 0 34 34" fill="none" xmlns="http://www.w3.org/2000/svg">
<path d="M0 17V34H34V0H0V17ZM27.3976 15.6442C28.2614 15.8599 28.9191 16.2477 29.5279 16.8725C29.8382 17.204 30.3025 17.8128 30.3418 17.9626C30.3524 18.0073 28.8756 18.9975 27.9788 19.5511C27.9459 19.5734 27.8131 19.4353 27.6686 19.2185C27.2319 18.5821 26.7718 18.3058 26.0695 18.2559C25.0399 18.1889 24.3759 18.7266 24.3812 19.6286C24.3759 19.8496 24.4258 20.0717 24.5246 20.2651C24.752 20.7357 25.1781 21.0173 26.4945 21.5879C28.9298 22.6334 29.9699 23.3251 30.617 24.3047C31.3416 25.4001 31.5021 27.149 31.0154 28.4548C30.4736 29.8658 29.1337 30.8284 27.2521 31.144C26.6709 31.2492 25.2875 31.2322 24.6617 31.1164C23.2953 30.8731 22.0001 30.1973 21.2032 29.3123C20.8877 28.9691 20.2789 28.067 20.3182 28.0064C20.3352 27.9841 20.4733 27.8959 20.6284 27.8067C20.7836 27.7174 21.3531 27.3859 21.8907 27.0757L22.8703 26.5062L23.0754 26.8101C23.3633 27.2467 23.9881 27.8449 24.3652 28.0436C25.4501 28.6195 26.9386 28.5366 27.6749 27.8779C27.9735 27.6293 28.1403 27.2468 28.118 26.86C28.118 26.4669 28.0681 26.2905 27.863 25.9962C27.5974 25.6201 27.0608 25.2992 25.5276 24.6351C23.7734 23.8765 23.0148 23.4122 22.3295 22.6653C21.8981 22.1723 21.5772 21.5921 21.3945 20.9663C21.267 20.485 21.2341 19.278 21.3339 18.7967C21.6941 17.0978 22.9776 15.9194 24.82 15.5709C25.4182 15.4551 26.8122 15.4987 27.3987 15.6432L27.3976 15.6442ZM19.4182 17.0669L19.4289 18.4556H15.0014V31.0346H11.8692V18.4556H7.44813V17.0946C7.44813 16.3359 7.46512 15.7059 7.48637 15.6889C7.50337 15.6666 10.1926 15.6559 13.4576 15.6613L19.4013 15.6782L19.4182 17.0669Z" fill="#33FF00"/>
</svg>
