<svg width="35" height="34" viewBox="0 0 35 34" fill="none" xmlns="http://www.w3.org/2000/svg">
<path d="M17.5264 33.9543C18.2074 33.949 18.8768 33.9097 19.5461 33.8215C21.0792 33.6218 22.5837 33.2074 24.001 32.5986C25.9984 31.7465 27.8247 30.512 29.3738 28.9958C30.7964 27.5955 31.9853 25.9466 32.8321 24.1372C33.5514 22.5882 34.0656 20.9169 34.276 19.2181C34.4863 17.5744 34.4693 15.8926 34.2154 14.2596C34.005 12.8986 33.6173 11.5758 33.0924 10.3083C32.7492 9.51678 32.3455 8.74757 31.8801 8.01766C30.2259 5.41677 27.829 3.3248 25.0687 1.92554C24.0838 1.42194 23.049 1.01289 21.9919 0.697344H21.9812C22.1523 0.785528 22.3244 0.880086 22.4742 0.979957C22.64 1.08514 22.8121 1.19032 22.9725 1.30082C23.7747 1.84267 24.5216 2.46846 25.1803 3.18243C26.6858 4.80373 27.7259 6.79584 28.3177 8.91012C28.7215 10.2988 28.9371 11.7373 29.02 13.1823C29.0806 14.2341 29.0806 15.2965 28.9531 16.342C28.7427 18.1407 28.1669 19.8948 27.216 21.4333C26.5137 22.5733 25.6 23.5858 24.5216 24.388C22.7568 25.699 20.4428 26.4853 18.235 25.9647C17.8749 25.8765 17.5104 25.7596 17.1779 25.5992C16.7901 25.4217 16.4087 25.2061 16.0708 24.9628C15.4121 24.5197 14.8203 23.9949 14.3114 23.3967C13.692 22.6604 13.182 21.82 12.8229 20.9233C12.3798 19.778 12.1418 18.5551 12.1259 17.3205C12.0813 15.5165 12.4415 13.7071 13.3318 12.124C13.93 11.0669 14.7321 10.1426 15.6894 9.40735C16.0102 9.15236 16.3481 8.93668 16.686 8.72632L16.7083 8.71569C16.0496 8.57226 15.3526 8.50533 14.6662 8.54995C14.0745 8.5882 13.5039 8.69976 12.9291 8.88781C12.4202 9.05887 11.9325 9.26923 11.4853 9.52422C11.1251 9.73459 10.766 9.97258 10.4504 10.2265C10.1519 10.4815 9.85226 10.7354 9.57602 11.0127C7.98765 12.6447 7.06969 14.8089 6.70951 17.039C6.49915 18.4223 6.49915 19.8173 6.58202 21.2229C6.73183 23.198 7.13556 25.1689 7.92071 26.9719C8.40732 28.1012 9.04373 29.135 9.82994 30.054C11.0422 31.449 12.569 32.5391 14.2678 33.2138C15.2251 33.5952 16.2429 33.8725 17.2618 33.9777C17.367 34 17.4722 34 17.5551 34L17.5264 33.9543ZM13.3711 33.3902C13.1384 33.2903 12.9281 33.1798 12.7347 33.0693C12.5243 32.9471 12.3087 32.8313 12.0983 32.6985C11.2685 32.1896 10.5269 31.5861 9.84588 30.8944C8.29682 29.2838 7.25562 27.2587 6.66383 25.1115C6.2601 23.6453 6.04442 22.1345 5.96155 20.6184C5.90099 19.6218 5.9233 18.6433 6.02848 17.669C6.21654 15.8873 6.73076 14.1278 7.62216 12.6C8.25326 11.4706 9.12766 10.4751 10.1455 9.6889C10.8425 9.15767 11.634 8.70932 12.4585 8.41608C13.6261 7.99004 14.8766 7.86254 16.0889 8.03466C16.5595 8.09522 17.0238 8.2004 17.4499 8.35021C17.4881 8.35021 17.4881 8.35021 17.5104 8.39483C17.5327 8.41714 17.5774 8.41714 17.5986 8.43308C17.6592 8.4607 17.742 8.50001 17.8313 8.53826C18.1692 8.70932 18.506 8.92606 18.8279 9.13642C20.1007 10.0278 21.1408 11.256 21.7996 12.6776C22.3914 13.9727 22.6687 15.4219 22.691 16.8445C22.7133 18.3723 22.436 19.8991 21.7783 21.2994C20.9921 22.976 19.6587 24.3986 18.0427 25.3112C18.1702 25.3559 18.2977 25.3718 18.4241 25.4164C18.745 25.477 19.0606 25.5216 19.3984 25.5216C21.4787 25.5885 23.4984 24.5866 24.9816 23.1863C25.2579 22.9313 25.5128 22.6551 25.7455 22.3619C26.0664 21.9804 26.3649 21.598 26.6199 21.1942C26.9578 20.663 27.234 20.1318 27.489 19.5623C27.8099 18.7984 28.0585 18.0132 28.2083 17.2047C28.4845 15.7821 28.5068 14.3382 28.4187 12.9166C28.2306 10.0501 27.4667 7.18363 25.8125 4.81011C25.5575 4.44994 25.3035 4.10782 25.0262 3.79228C24.5556 3.26105 24.0467 2.76807 23.5154 2.32609C22.9236 1.83948 22.2649 1.39113 21.5839 1.03095C20.8869 0.715406 20.0561 0.394544 19.188 0.184178L18.762 0.0959942C18.4688 0.0513711 18.1702 0.0354342 17.8653 0.0131227C17.4063 -0.00918889 16.9186 -0.00387661 16.4267 0.0354342C15.4301 0.0959942 14.4293 0.2628 13.438 0.511414C8.68462 1.73961 4.52298 5.05447 2.30989 9.44772C1.60123 10.848 1.09763 12.3472 0.804389 13.8856C0.466529 15.645 0.422968 17.4608 0.654583 19.2308C0.825638 20.6747 1.18581 22.0973 1.75529 23.4477C2.08146 24.2552 2.47988 25.0414 2.92824 25.783C4.4773 28.3116 6.7297 30.3707 9.31359 31.7922C10.2879 32.3458 11.311 32.7665 12.3682 33.1309C12.689 33.2361 13.0099 33.3413 13.3477 33.4241L13.3711 33.3902Z" fill="#33FF00"/>
</svg>
