<svg width="35" height="21" viewBox="0 0 35 21" fill="none" xmlns="http://www.w3.org/2000/svg">
<path d="M10.0114 7.38087C10.0114 7.8016 10.0614 8.13946 10.1389 8.38808C10.2271 8.63669 10.344 8.90868 10.4991 9.20191C10.5596 9.29647 10.582 9.38466 10.582 9.46222C10.582 9.57802 10.5097 9.68958 10.3663 9.80539L9.65231 10.2761C9.56413 10.343 9.46426 10.3759 9.35907 10.3812C9.24327 10.3812 9.13171 10.326 9.02121 10.2208C8.86609 10.0604 8.73329 9.88295 8.61217 9.68958C8.48467 9.4739 8.36886 9.25291 8.26368 9.02555C7.37866 10.0657 6.27158 10.5863 4.9382 10.5863C3.98624 10.5863 3.22871 10.3154 2.67517 9.77245C2.12164 9.22423 1.84009 8.50494 1.84009 7.59761C1.84009 6.64034 2.17795 5.85412 2.8696 5.26765C3.56126 4.68117 4.47391 4.38794 5.64155 4.38794C6.02297 4.38794 6.42139 4.42087 6.83681 4.47612C7.25754 4.53137 7.68889 4.62593 8.13725 4.72473V3.90027C8.13725 3.04287 7.95982 2.43939 7.60602 2.09091C7.24585 1.74242 6.63813 1.57031 5.76373 1.57031C5.37062 1.57031 4.96157 1.61493 4.54084 1.71374C4.12542 1.81892 3.71638 1.9411 3.32327 2.10153C3.19046 2.16209 3.05766 2.20672 2.92485 2.25134C2.8696 2.26834 2.80904 2.27896 2.74742 2.28428C2.58699 2.28428 2.50943 2.16847 2.50943 1.93048V1.37694C2.50943 1.19951 2.53174 1.06139 2.58699 0.983833C2.66986 0.87865 2.78036 0.795778 2.90254 0.745843C3.30096 0.540789 3.77163 0.369734 4.32516 0.236927C4.90633 0.0871213 5.49811 0.0159368 6.0899 0.0212491C7.44028 0.0212491 8.41986 0.325111 9.05627 0.940272C9.67568 1.54906 9.99123 2.47339 9.99123 3.71859V7.38193L10.0114 7.38087ZM5.42374 9.10204C5.79454 9.10204 6.18233 9.03511 6.58607 8.89699C6.99511 8.76418 7.35528 8.51557 7.65915 8.17771C7.84189 7.96203 7.98001 7.72404 8.04694 7.45312C8.11388 7.18219 8.15744 6.84964 8.15744 6.46822V5.99224C7.81426 5.90937 7.47109 5.84243 7.11729 5.79887C6.76881 5.75425 6.41501 5.73194 6.05484 5.73194C5.29625 5.73194 4.74377 5.88175 4.37298 6.18561C3.99687 6.48947 3.81944 6.92189 3.81944 7.48605C3.81944 8.01728 3.95224 8.41039 4.23486 8.68131C4.50578 8.96392 4.9042 9.10204 5.4248 9.10204H5.42374ZM14.5045 10.3249C14.2995 10.3249 14.1614 10.292 14.0732 10.2091C13.985 10.1422 13.9021 9.98176 13.8352 9.77245L11.1791 1.02952C11.1291 0.879712 11.0909 0.730968 11.0792 0.57585C11.0792 0.393108 11.1674 0.293237 11.3448 0.293237H12.4572C12.6729 0.293237 12.8174 0.326174 12.8939 0.403733C12.9884 0.470667 13.0543 0.631098 13.1212 0.846776L15.0251 8.33389L16.7899 0.846776C16.8451 0.619411 16.9121 0.470667 17.0002 0.403733C17.1384 0.320861 17.2935 0.28155 17.4539 0.293237H18.3559C18.5716 0.293237 18.7214 0.326174 18.8096 0.403733C18.8978 0.470667 18.9807 0.631098 19.0253 0.846776L20.8123 8.42207L22.7662 0.846776C22.8384 0.619411 22.916 0.470667 22.9935 0.403733C23.1264 0.320861 23.2815 0.28155 23.4366 0.293237H24.4884C24.6712 0.293237 24.771 0.381421 24.771 0.57585C24.771 0.631098 24.7604 0.686345 24.7487 0.758592C24.7317 0.85315 24.7041 0.946647 24.6712 1.04121L21.9428 9.77883C21.8758 10.0062 21.7993 10.1549 21.7048 10.2219C21.5773 10.3047 21.4285 10.3441 21.2787 10.3324H20.3045C20.0888 10.3324 19.9443 10.2994 19.8508 10.2219C19.7626 10.1443 19.6851 9.99451 19.6404 9.7682L17.8863 2.47446L16.1428 9.75652C16.0876 9.98388 16.0207 10.1326 15.9272 10.2102C15.839 10.2877 15.6785 10.3207 15.4735 10.3207L14.5045 10.3249ZM29.0304 10.6299C28.4439 10.6299 27.8575 10.5576 27.2933 10.4248C26.7291 10.292 26.2861 10.1422 25.9929 9.97113C25.8101 9.87126 25.689 9.76077 25.6444 9.65558C25.5997 9.55571 25.5721 9.45053 25.5721 9.34003V8.76418C25.5721 8.52619 25.6667 8.41039 25.8324 8.41039C25.8994 8.41039 25.9705 8.42101 26.0375 8.44332C26.1044 8.47095 26.2085 8.51557 26.3201 8.55913C26.7079 8.73019 27.1222 8.86299 27.5653 8.95224C28.019 9.0468 28.4567 9.09036 28.9104 9.09036C29.6243 9.09036 30.1779 8.96286 30.5593 8.71425C30.9354 8.48688 31.1628 8.07784 31.1511 7.64117C31.1564 7.34793 31.0459 7.06532 30.8472 6.84964C30.6422 6.63928 30.2554 6.44591 29.7019 6.26317L28.0636 5.75425C27.2391 5.49395 26.625 5.11253 26.2542 4.60361C25.8887 4.13295 25.6901 3.55816 25.6847 2.96C25.6847 2.48402 25.7899 2.0686 25.995 1.70418C26.2 1.344 26.471 1.02952 26.8088 0.779841C27.1467 0.51954 27.5334 0.326173 27.9818 0.193366C28.4354 0.0552473 28.9114 0 29.4097 0C29.6583 0 29.9186 0.0106243 30.1683 0.0446229C30.4286 0.077559 30.6666 0.122182 30.9046 0.172117C31.1256 0.227365 31.3412 0.282613 31.5463 0.349547C31.7514 0.416482 31.9118 0.487666 32.0223 0.554601C32.1551 0.621535 32.2709 0.720344 32.3601 0.837214C32.4377 0.947709 32.4706 1.08052 32.4653 1.21332V1.74455C32.4653 1.98254 32.3708 2.10472 32.205 2.10472C32.0499 2.08772 31.9065 2.04416 31.7737 1.97191C31.0926 1.66805 30.351 1.51825 29.6041 1.52887C28.9571 1.52887 28.4471 1.62874 28.0986 1.84442C27.7448 2.0601 27.5674 2.38627 27.5674 2.85163C27.5674 3.16718 27.6779 3.4381 27.9053 3.65378C28.1326 3.86946 28.5523 4.08514 29.1505 4.27957L30.7548 4.78317C31.5686 5.04347 32.1604 5.40895 32.5089 5.87325C32.8574 6.33223 33.0295 6.86345 33.0295 7.4563C33.0295 7.93759 32.9243 8.38064 32.7362 8.76737C32.5312 9.14879 32.2603 9.48665 31.9118 9.76395C31.558 10.0466 31.1426 10.2452 30.656 10.395C30.147 10.5502 29.6158 10.633 29.0347 10.633L29.0304 10.6299ZM31.1713 16.1238C27.4474 18.8745 22.0458 20.329 17.3976 20.329C10.8848 20.329 5.01364 17.9215 0.581077 13.916C0.232592 13.6005 0.548141 13.1691 0.968873 13.423C5.76054 16.2014 11.6763 17.8885 17.7907 17.8885C21.9183 17.8885 26.4508 17.0248 30.6283 15.2653C31.2477 14.9774 31.779 15.6691 31.1702 16.1227L31.1713 16.1238ZM32.7214 14.3591C32.2454 13.7503 29.5723 14.0658 28.3664 14.2156C28.0062 14.2603 27.9456 13.9394 28.2782 13.7014C30.4031 12.2129 33.8943 12.639 34.3044 13.1372C34.7082 13.6515 34.1886 17.1438 32.2018 18.815C31.898 19.0753 31.5984 18.9425 31.7365 18.5993C32.1901 17.4816 33.1974 14.9636 32.7214 14.3601V14.3591Z" fill="#33FF00"/>
</svg>
