<svg width="35" height="24" viewBox="0 0 35 24" fill="none" xmlns="http://www.w3.org/2000/svg">
<path d="M23.5524 2.3407C23.3866 2.3407 23.2761 2.36302 23.1646 2.39064V2.40764H23.1816C23.2591 2.55108 23.3866 2.66265 23.4855 2.79547C23.563 2.94528 23.6289 3.09935 23.7012 3.24917L23.7235 3.22686C23.8563 3.13229 23.9232 2.98354 23.9232 2.75615C23.868 2.68921 23.8563 2.61802 23.8074 2.5564C23.7522 2.46183 23.63 2.41295 23.5524 2.3407ZM8.48355 21.0338H7.17239C7.12776 18.8206 6.99494 16.7391 6.79094 14.7862H6.78031L4.78275 21.0338H3.78078L1.79916 14.7862H1.78216C1.63871 16.6562 1.54415 18.743 1.5059 21.0338H0.310547C0.388112 18.2447 0.581493 15.633 0.891752 13.1977H2.51849L4.41086 18.9534H4.42149L6.33086 13.1977H7.88003C8.22323 16.0538 8.4283 18.6655 8.48886 21.0338H8.48355ZM14.1724 15.2515C13.6411 18.1512 12.9324 20.2603 12.0643 21.5715C11.3779 22.5841 10.6309 23.093 9.81703 23.093C9.60134 23.093 9.3357 23.0261 9.01482 22.8933V22.1963C9.17526 22.2186 9.35802 22.2345 9.56308 22.2345C9.94453 22.2345 10.2495 22.124 10.4822 21.9189C10.7584 21.6639 10.8976 21.377 10.8976 21.0615C10.8976 20.8405 10.7924 20.3974 10.5714 19.7227L9.13807 15.2515H10.428L11.4576 18.5943C11.6903 19.3582 11.7902 19.8842 11.7455 20.1881C12.315 18.6825 12.7082 17.0334 12.9303 15.2515H14.1724ZM31.6372 21.0338H27.9077V13.1977H29.1636V20.0712H31.6372V21.0338ZM26.9334 21.223L25.4947 20.5143C25.6222 20.4091 25.7433 20.2933 25.8549 20.1604C26.4691 19.4464 26.774 18.3786 26.774 16.9728C26.774 14.3771 25.7561 13.0829 23.7192 13.0829C22.7226 13.0829 21.9427 13.4091 21.3838 14.0679C20.7749 14.7872 20.4647 15.8498 20.4647 17.2502C20.4647 18.6283 20.7356 19.6356 21.2786 20.2826C21.7769 20.8585 22.5239 21.1518 23.5258 21.1518C23.8967 21.1518 24.2399 21.1072 24.5501 21.0137L26.4265 22.1091L26.9408 21.224L26.9334 21.223ZM22.2689 19.4624C21.948 18.9534 21.7928 18.1342 21.7928 17.0047C21.7928 15.0295 22.391 14.0445 23.5917 14.0445C24.2175 14.0445 24.6819 14.2825 24.9751 14.7532C25.2907 15.2675 25.4511 16.0761 25.4511 17.1939C25.4511 19.1808 24.8476 20.1828 23.6523 20.1828C23.0211 20.1828 22.5621 19.9448 22.2635 19.4741L22.2689 19.4624ZM19.9217 18.8652C19.9217 19.5293 19.6784 20.0776 19.1854 20.4973C18.6987 20.9233 18.0506 21.139 17.2261 21.139C16.4568 21.139 15.7205 20.8957 14.9958 20.408L15.3337 19.7333C15.9532 20.0436 16.5121 20.1987 17.0221 20.1987C17.4928 20.1987 17.8636 20.0935 18.1292 19.8884C18.3949 19.6781 18.5553 19.3848 18.5553 19.014C18.5553 18.5486 18.2291 18.1501 17.6362 17.8186C17.0879 17.5147 15.9872 16.8889 15.9872 16.8889C15.389 16.4522 15.0957 15.9868 15.0957 15.2175C15.0957 14.5811 15.3167 14.0721 15.7598 13.6843C16.2082 13.2859 16.7777 13.0925 17.4864 13.0925C18.211 13.0925 18.8751 13.2859 19.4733 13.6737L19.1694 14.3484C18.6605 14.1327 18.1569 14.0222 17.6638 14.0222C17.2601 14.0222 16.9498 14.1221 16.7341 14.3155C16.5184 14.5088 16.3856 14.7522 16.3856 15.0571C16.3856 15.5225 16.7182 15.9209 17.326 16.2631C17.8848 16.567 19.0079 17.2098 19.0079 17.2098C19.6221 17.6412 19.927 18.1066 19.927 18.8642L19.9217 18.8652ZM33.2098 10.57C32.4511 10.553 31.8646 10.6306 31.3726 10.841C31.2345 10.8962 31.0071 10.8962 30.9848 11.0737C31.0624 11.1512 31.073 11.2734 31.1399 11.3775C31.2558 11.5656 31.4502 11.8206 31.633 11.9534C31.8327 12.1086 32.0314 12.2637 32.2365 12.3965C32.6073 12.6239 33.0228 12.7567 33.3872 12.983C33.5923 13.1159 33.8027 13.2869 34.0067 13.4261C34.1119 13.4984 34.1777 13.6259 34.3105 13.6694V13.6418C34.2436 13.5589 34.2277 13.4367 34.1607 13.3379C34.0662 13.2434 33.9727 13.1605 33.8781 13.067C33.6018 12.6962 33.264 12.3753 32.8931 12.1096C32.5892 11.9046 31.9252 11.6166 31.803 11.2681L31.786 11.2458C31.991 11.2288 32.2344 11.1512 32.433 11.096C32.7539 11.0131 33.0525 11.029 33.3851 10.9462C33.5349 10.9079 33.6837 10.8633 33.8388 10.8133V10.7305C33.6677 10.5594 33.5402 10.3267 33.3628 10.1663C32.8814 9.75081 32.3502 9.34173 31.8019 9.00385C31.5033 8.81047 31.1272 8.68828 30.8116 8.52783C30.7011 8.47258 30.5077 8.44496 30.4461 8.35039C30.275 8.14001 30.1752 7.86906 30.053 7.61937C29.782 7.09873 29.5164 6.5239 29.2784 5.97032C29.1073 5.59949 29.0074 5.23398 28.7971 4.89078C27.8227 3.27998 26.7602 2.3067 25.1334 1.34936C24.7849 1.1496 24.3642 1.06673 23.9211 0.961535C23.6831 0.950909 23.4504 0.933909 23.2124 0.923284C23.0573 0.856344 22.9085 0.679963 22.7757 0.590711C22.2338 0.247512 20.8387 -0.488823 20.4456 0.48552C20.1905 1.10498 20.8217 1.7085 21.0438 2.01876C21.2042 2.23976 21.4093 2.48414 21.5251 2.72747C21.592 2.89322 21.608 3.06535 21.6749 3.23642C21.8247 3.65187 21.9682 4.1162 22.1679 4.50402C22.2731 4.70378 22.3836 4.9131 22.5164 5.09054C22.594 5.19573 22.7268 5.24036 22.7544 5.41142C22.6216 5.60481 22.611 5.88744 22.5387 6.12013C22.1955 7.19329 22.3284 8.51615 22.8097 9.30773C22.9648 9.54574 23.324 10.0664 23.8063 9.86663C24.2324 9.69556 24.1389 9.15792 24.26 8.6819C24.2877 8.56609 24.2707 8.49383 24.327 8.41627V8.43858C24.4651 8.70421 24.5979 8.95922 24.7201 9.22486C25.0081 9.69025 25.5223 10.1716 25.9484 10.4925C26.1758 10.6635 26.3522 10.9578 26.6348 11.062V11.0344H26.6125C26.5519 10.9515 26.4744 10.9122 26.3968 10.8463C26.2257 10.6752 26.0366 10.4648 25.8985 10.2768C25.5053 9.7455 25.1515 9.15898 24.8412 8.55546C24.6861 8.25689 24.5533 7.936 24.4322 7.64274C24.3769 7.53224 24.3769 7.36011 24.2824 7.30486C24.1389 7.50993 23.9285 7.68631 23.8287 7.94663C23.6459 8.35039 23.6289 8.85403 23.5577 9.37467C23.5248 9.3853 23.5407 9.37467 23.5248 9.39699C23.2209 9.31942 23.1157 9.00916 23.0041 8.74353C22.7162 8.06882 22.6716 6.98929 22.9159 6.2147C22.9829 6.01494 23.2645 5.39017 23.1539 5.2021C23.0934 5.01935 22.9053 4.91416 22.8054 4.77072C22.6779 4.59327 22.5504 4.36695 22.4622 4.1672C22.2349 3.63593 22.1244 3.04941 21.8757 2.51815C21.7652 2.27483 21.5655 2.01982 21.405 1.7935C21.2223 1.53849 21.0236 1.3568 20.8844 1.05716C20.8344 0.951972 20.7686 0.780904 20.8461 0.669338C20.8631 0.591773 20.9014 0.564147 20.9789 0.541834C21.1011 0.436643 21.455 0.56946 21.5771 0.630024C21.9257 0.768154 22.2189 0.90097 22.5122 1.10073C22.645 1.19529 22.7884 1.37167 22.9606 1.42161H23.1603C23.4642 1.48855 23.8021 1.43861 24.0847 1.5268C24.5884 1.68724 25.0421 1.91994 25.4511 2.17388C26.6911 2.96547 27.709 4.08326 28.4007 5.41674C28.5166 5.63243 28.5665 5.83219 28.6717 6.05851C28.8651 6.52921 29.1148 6.99885 29.3135 7.44724C29.5121 7.89563 29.7013 8.34933 29.9882 8.72015C30.1316 8.91991 30.6969 9.02404 30.9561 9.12392C31.1442 9.21211 31.4375 9.28967 31.6032 9.38955C31.9294 9.5893 32.2503 9.81562 32.5552 10.0366C32.7104 10.1418 33.1811 10.3798 33.2087 10.5679L33.2098 10.57Z" fill="#33FF00"/>
</svg>
