<svg width="29" height="34" viewBox="0 0 29 34" fill="none" xmlns="http://www.w3.org/2000/svg">
<path d="M26.6389 4.48428C23.5255 -0.0362851 17.4318 -1.34353 12.7389 1.5039L4.79976 6.55097C2.62776 7.91352 1.13757 10.1302 0.70041 12.65C0.312173 14.7444 0.650418 16.91 1.64813 18.7937C0.966325 19.8191 0.506823 20.9764 0.301537 22.1953C-0.152647 24.7545 0.439813 27.3913 1.94702 29.5133C5.06568 34.0232 11.1434 35.3358 15.847 32.5213L23.7914 27.4689C25.9517 26.1064 27.4366 23.8897 27.8748 21.3699C28.2567 19.2809 27.9195 17.1206 26.9218 15.2485C29.0321 11.9352 28.9215 7.67526 26.6389 4.48428V4.48428ZM11.9465 29.9515C9.39265 30.6163 6.69414 29.6133 5.19332 27.4424C4.27325 26.1681 3.93607 24.5949 4.20198 23.0324L4.35728 22.2793L4.50087 21.8135L4.9274 22.0964C5.86342 22.8059 6.91113 23.3153 8.0301 23.6589L8.31835 23.7589L8.28538 24.0418C8.25773 24.4354 8.37366 24.8779 8.60129 25.2161C9.06717 25.8862 9.87556 26.2074 10.6563 25.9968C10.8275 25.9415 10.9945 25.8862 11.1381 25.7969L19.0496 20.7498C19.4485 20.4945 19.7038 20.1127 19.8027 19.6585C19.891 19.1873 19.7751 18.7054 19.5198 18.3236C19.0486 17.6694 18.2455 17.3759 17.4648 17.5705C17.2935 17.6311 17.1106 17.6981 16.9659 17.7864L13.9738 19.6861C11.1434 21.3699 7.48657 20.5785 5.60814 17.8694C4.69446 16.5951 4.33388 15.005 4.61043 13.4595C4.88698 11.9299 5.80173 10.5897 7.12599 9.76961L15.0205 4.72254C15.5193 4.41195 16.0565 4.18539 16.6383 4.01308C19.1922 3.34829 21.8843 4.35132 23.3915 6.51162C24.4552 8.00713 24.7541 9.91853 24.1999 11.6693L24.0563 12.1405L23.6468 11.8576C22.6991 11.1651 21.6471 10.6386 20.5281 10.2951L20.2452 10.2121L20.2728 9.92916C20.3005 9.51327 20.1846 9.07611 19.9569 8.73786C19.4911 8.06775 18.6827 7.78482 17.9019 7.98479C17.7307 8.0401 17.5637 8.09541 17.4201 8.18476L9.49264 13.2754C9.09376 13.5414 8.83849 13.9126 8.75552 14.3774C8.67255 14.8316 8.78317 15.3304 9.03845 15.6963C9.49264 16.3664 10.318 16.6494 11.0828 16.4494C11.2658 16.3941 11.437 16.3388 11.5764 16.2494L14.6014 14.321C15.0949 13.9945 15.648 13.7562 16.2139 13.6009C18.7848 12.9308 21.4663 13.9392 22.9671 16.1101C23.8872 17.3844 24.2414 18.9575 23.9861 20.503C23.7202 22.0326 22.8171 23.3728 21.5046 24.1929L13.5931 29.2282C13.0782 29.5388 12.5241 29.7824 11.9476 29.9483L11.9465 29.9515Z" fill="#33FF00"/>
</svg>
