<svg width="35" height="34" viewBox="0 0 35 34" fill="none" xmlns="http://www.w3.org/2000/svg">
<path d="M30.5625 9.66769C31.7525 11.8479 32.4272 14.3438 32.4272 17C32.4272 22.6387 29.3778 27.5644 24.8346 30.209L29.5 16.7121C30.3744 14.5318 30.6624 12.7883 30.6624 11.2391C30.6624 10.6633 30.6241 10.132 30.5625 9.66769V9.66769ZM19.2564 9.8175C20.1755 9.77287 21 9.66769 21 9.66769C21.8245 9.5625 21.731 8.35019 20.9054 8.39481C20.9054 8.39481 18.4202 8.58288 16.8265 8.58288C15.3209 8.58288 12.7869 8.3725 12.7869 8.3725C11.9624 8.32788 11.8519 9.58481 12.6817 9.62838C12.6817 9.62838 13.4456 9.71125 14.2754 9.75588L16.6554 16.2743L13.2969 26.3075L7.73575 9.77181C8.65481 9.73356 9.48462 9.63369 9.48462 9.63369C10.3091 9.5285 10.2156 8.31619 9.39006 8.36081C9.39006 8.36081 6.91656 8.5595 5.3175 8.5595C5.03487 8.5595 4.69806 8.54887 4.34319 8.53719C7.10462 4.45825 11.8136 1.71913 17.1484 1.71913C21.1275 1.71913 24.7464 3.23531 27.4696 5.73113C27.4026 5.73113 27.3421 5.7205 27.2698 5.7205C25.7706 5.7205 24.7017 7.02631 24.7017 8.432C24.7017 9.69425 25.4327 10.7621 26.2073 12.0179C26.7885 13.0358 27.4632 14.348 27.4632 16.235C27.4632 17.5302 26.9649 19.057 26.3008 21.1661L24.7793 26.2406L19.2564 9.79413V9.8175ZM17.1484 32.2787C15.6492 32.2787 14.1989 32.0631 12.8315 31.6593L17.4141 18.3334L22.1124 31.2056C22.1454 31.2832 22.1847 31.3491 22.2229 31.416C20.6345 31.9749 18.9303 32.2798 17.1484 32.2798V32.2787ZM1.86438 17C1.86438 14.7868 2.34037 12.6777 3.18719 10.7801L10.4749 30.7572C5.38338 28.2784 1.86438 23.0488 1.86438 17V17ZM17.1484 0C7.77931 0 0.148438 7.63088 0.148438 17C0.148438 26.3691 7.77931 34 17.1484 34C26.5176 34 34.1484 26.3691 34.1484 17C34.1484 7.63088 26.5176 0 17.1484 0Z" fill="#33FF00"/>
</svg>
