<svg width="35" height="34" viewBox="0 0 35 34" fill="none" xmlns="http://www.w3.org/2000/svg">
<path d="M0.266602 0H34.2666V34H0.266602V0ZM31.4829 25.8931C31.2342 24.3376 30.2206 23.0371 27.2275 21.8206C26.1874 21.3339 25.025 20.9908 24.6818 20.2045C24.5543 19.7391 24.532 19.4852 24.6149 19.2079C24.8305 18.2888 25.91 18.0179 26.7622 18.2729C27.3157 18.4439 27.8247 18.8647 28.1455 19.5457C29.6118 18.5884 29.6118 18.5884 30.6307 17.952C30.2493 17.3602 30.0612 17.0999 29.8009 16.8512C28.9095 15.8493 27.7205 15.3404 25.7889 15.385L24.787 15.5125C23.8297 15.7452 22.917 16.2541 22.3634 16.9352C20.7527 18.7616 21.218 21.9491 23.1709 23.2719C25.1025 24.7159 27.9299 25.0314 28.2954 26.3936C28.6332 28.0542 27.0618 28.5855 25.5063 28.3911C24.3609 28.1361 23.7245 27.5613 23.0211 26.4988L20.4307 27.9873C20.724 28.6684 21.0672 28.9616 21.5761 29.5587C24.039 32.0439 30.2036 31.9164 31.3097 28.1361C31.3479 28.0086 31.6475 27.1341 31.4149 25.8007L31.4829 25.8931ZM18.7552 15.6273H15.573C15.573 18.3717 15.556 21.1002 15.556 23.851C15.556 25.5946 15.6442 27.1989 15.3626 27.6919C14.8919 28.6662 13.6913 28.5441 13.143 28.373C12.5842 28.0968 12.2962 27.7142 11.97 27.1607C11.8755 27.0109 11.8096 26.8844 11.7873 26.8844L9.20329 28.4782C9.63466 29.3696 10.2658 30.1389 11.0797 30.6255C12.292 31.3501 13.9187 31.5828 15.6229 31.2014C16.73 30.8805 17.6874 30.2218 18.1846 29.2039C18.9092 27.8864 18.7541 26.2714 18.7488 24.4609C18.7658 21.5496 18.7488 18.6394 18.7488 15.7059L18.7552 15.6273Z" fill="#33FF00"/>
</svg>
