<svg width="16" height="34" viewBox="0 0 16 34" fill="none" xmlns="http://www.w3.org/2000/svg">
<path d="M15.3248 13.4937C13.5365 5.60819 9.31151 3.02258 8.85754 2.03171C8.35891 1.32896 7.82201 0 7.82201 0C7.8167 0.0276423 7.8167 0.0446529 7.81138 0.0722952V0.0893058C7.81138 0.111632 7.80607 0.122264 7.80607 0.14459V0.166917H7.80075V0.199875V0.238149H7.79544C7.79544 0.24878 7.79544 0.265791 7.79012 0.271107V0.304065C7.79012 0.314697 7.79012 0.326392 7.7848 0.331707V0.35935C7.7848 0.37636 7.7848 0.392308 7.77949 0.404003V0.409318C7.77949 0.431645 7.77417 0.459287 7.76886 0.481614V0.492245C7.76354 0.497561 7.76354 0.502877 7.76354 0.509256V0.531582H7.75822V0.56454H7.75291V0.586867H7.74228V0.619825H7.73696V0.647467H7.73165V0.669794H7.72633V0.69212H7.72101V0.714447H7.7157V0.736773H7.71038V0.753784H7.70507V0.77611H7.69975V0.781426V0.798437H7.69444C7.68912 0.798437 7.68912 0.803752 7.68912 0.803752V0.814384L7.6838 0.825016C7.6838 0.835647 7.67849 0.847342 7.67317 0.857974C7.66786 0.86329 7.66786 0.86329 7.66786 0.868605V0.879237H7.66254V0.889869H7.65191V0.917511H7.64128V0.934522H7.63596V0.939837H7.63064V0.950469H7.62533V0.96748H7.62001V0.978111H7.60938V0.995122H7.60407V1.00575H7.59875V1.01639H7.59343V1.0334H7.58812V1.04403H7.5828V1.04934H7.57749V1.05998H7.56686V1.07699H7.56154V1.0823H7.55622V1.09293H7.55091V1.10994H7.54559V1.11526H7.54028V1.12589H7.53496V1.13121H7.52964V1.14822H7.51901V1.15353H7.5137V1.16417H7.50838V1.16948H7.50307V1.18011H7.49775V1.18543V1.19074C7.49243 1.19074 7.49243 1.19606 7.49243 1.19606V1.20138H7.48712C7.4818 1.21201 7.47649 1.21839 7.47011 1.22902C7.47011 1.22902 7.45948 1.23965 7.45948 1.24603C7.45416 1.24603 7.45416 1.25134 7.45416 1.25134V1.25666H7.44884V1.26198H7.44353V1.26729V1.27261H7.4329V1.27792H7.42758V1.28324H7.42226V1.28856V1.29919H7.41695V1.3045H7.41163V1.30982H7.40632V1.32045H7.401V1.30982H7.39037V1.31513H7.38505V1.32577H7.37974V1.3364H7.37442V1.34171H7.36911V1.34703H7.36379V1.35235H7.35848V1.36298H7.34784V1.36829H7.34253V1.37892H7.33721V1.38424H7.3319V1.38956H7.32658V1.40657H7.32126V1.41188H7.31595V1.4172H7.31063V1.42251H7.30532V1.42783H7.29468V1.43846H7.28937V1.44378H7.28405V1.44909H7.27874V1.45972H7.27342V1.46504H7.26279V1.47036H7.25747V1.47567H7.25216V1.4863H7.24684V1.49694H7.24153V1.50225H7.23621V1.50757H7.22558V1.51288H7.22026V1.5182H7.21495V1.52883H7.20963V1.53415H7.20432V1.54478H7.199V1.55009H7.19368V1.55541H7.18837V1.56073H7.18305V1.56604H7.17242V1.57136C7.16711 1.57136 7.16711 1.57667 7.16711 1.57667L7.16179 1.58199L7.15647 1.5873V1.59794H7.15116V1.60325H7.14584V1.60857H7.14053V1.61388H7.13521L7.12458 1.62452V1.62983C7.11395 1.63515 7.11395 1.64046 7.10225 1.65216C7.10225 1.65216 7.09162 1.66279 7.08524 1.66279C7.06823 1.67342 7.04697 1.69575 7.02996 1.71276C7.01933 1.71807 7.00763 1.72977 6.997 1.73508C6.97467 1.75741 6.95235 1.77336 6.93002 1.79037C6.89706 1.82333 6.86304 1.84565 6.82477 1.87861H6.81945C6.74184 1.94559 6.6536 2.02214 6.55898 2.10613H6.55366C6.31551 2.31664 6.03271 2.58774 5.71163 2.90882L5.68399 2.93646C3.75647 4.92989 0.716887 9.08793 0.401127 15.805C0.368169 16.3589 0.373484 16.9011 0.406442 17.4274V17.438C0.561664 20.0853 1.392 22.3445 2.43283 24.1827C2.84215 24.9142 3.29081 25.5787 3.74478 26.1762C5.30657 28.2366 6.90131 29.4603 7.30532 29.759C7.93152 31.2039 7.87517 33.6959 7.87517 33.6959L8.78843 34C8.78843 34 8.60025 31.5909 8.86073 30.4225C8.94365 30.062 9.13183 29.7527 9.35404 29.4869C9.50926 29.3816 9.9526 29.0605 10.4842 28.5736C10.5118 28.546 10.5288 28.5236 10.5512 28.496C12.7051 26.4856 16.7313 21.5355 15.3524 13.4735L15.3248 13.4937Z" fill="#33FF00"/>
</svg>
