<svg width="35" height="25" viewBox="0 0 35 25" fill="none" xmlns="http://www.w3.org/2000/svg">
<path d="M7.43629 19.6983C6.46817 19.6983 5.58825 18.9076 5.58825 17.9438C5.58825 16.9799 6.3789 16.1839 7.43629 16.1839C8.499 16.1839 9.29709 16.9756 9.29709 17.9438C9.29709 18.9076 8.41185 19.6983 7.44267 19.6983H7.43629ZM30.124 10.118C29.9295 8.71205 29.0613 7.56645 27.9146 6.69185L27.4672 6.33797L27.1069 6.77474C26.4098 7.56645 26.1282 8.97241 26.2153 10.0234C26.2993 10.8215 26.5522 11.6122 27.0017 12.2264C26.6362 12.4145 26.1941 12.5803 25.8498 12.7631C25.0421 13.0277 24.2557 13.117 23.4704 13.117H0.744445L0.655177 13.6366C0.489396 15.3146 0.744445 17.0681 1.45327 18.6568L1.80184 19.2721V19.354C3.92724 22.8747 7.70728 24.4581 11.8306 24.4581C19.7573 24.4581 26.2547 21.032 29.3365 13.643C31.3567 13.7312 33.395 13.2052 34.3514 11.2678L34.6064 10.8311L34.1856 10.5643C33.0347 9.86189 31.4619 9.76838 30.1463 10.1223L30.1176 10.1276L30.124 10.118ZM18.7775 8.71205H15.3354V12.1425H18.7775V8.71205ZM18.7775 4.40066H15.3354V7.83107H18.7775V4.40066ZM18.7775 0H15.3354V3.43147H18.7775V0ZM22.9836 8.71205H19.5628V12.1425H22.9943V8.71205H22.9836ZM10.2376 8.71205H6.81674V12.1425H10.2482V8.71205H10.2376ZM14.5267 8.71205H11.1292V12.1425H14.55V8.71205H14.5267ZM5.98676 8.71205H2.58717V12.1425H6.03033V8.71205H5.98676ZM14.5267 4.40066H11.1292V7.83107H14.55V4.40491L14.5267 4.40066ZM10.2142 4.40066H6.82205V7.83107H10.2429V4.40491L10.2206 4.40066H10.2142Z" fill="#33FF00"/>
</svg>
