<svg width="29" height="34" viewBox="0 0 29 34" fill="none" xmlns="http://www.w3.org/2000/svg">
<path d="M14.8662 0C14.6453 0 14.419 0.0116859 14.1853 0.0286836C8.1989 0.503557 9.78712 6.83945 9.69789 8.95248C9.5874 10.4961 9.27294 11.7189 8.21059 13.2306C6.95382 14.7189 5.19456 17.1262 4.35955 19.6313C3.96754 20.8094 3.77844 22.0226 3.95585 23.1625C3.90061 23.2061 3.84537 23.256 3.79543 23.3495C3.42998 23.732 3.15802 24.2026 2.8595 24.5394C2.57797 24.8209 2.17428 24.9165 1.73021 25.1045C1.28827 25.2968 0.795341 25.4859 0.507442 26.0723C0.37996 26.339 0.313031 26.6258 0.319405 26.9254C0.319405 27.2016 0.358713 27.4895 0.396957 27.6829C0.480884 28.247 0.562685 28.7123 0.4522 29.0554C0.0984353 30.0169 0.0601904 30.6755 0.30347 31.1578C0.550999 31.6338 1.06093 31.8218 1.63035 32.0109C2.78195 32.2924 4.33617 32.2032 5.56532 32.8565C6.87521 33.5205 8.20952 33.8084 9.27188 33.5269C10.0123 33.3612 10.6434 32.8682 10.9812 32.1883C11.8109 32.183 12.7235 31.8059 14.18 31.7124C15.1701 31.6285 16.4099 32.0938 17.8313 31.9939C17.8695 32.1883 17.9195 32.2754 17.997 32.4699V32.4752C18.5494 33.5758 19.5735 34.074 20.6699 33.9911C21.7588 33.903 22.921 33.2337 23.8612 32.1384C24.7578 31.059 26.2462 30.6044 27.231 30.0137C27.7239 29.73 28.1223 29.3497 28.1499 28.8015C28.1829 28.2374 27.8684 27.651 27.1428 26.8542V26.7151L27.1375 26.7098C26.8942 26.4282 26.7838 25.9523 26.6563 25.3999C26.5341 24.8294 26.4013 24.2876 25.9594 23.9168C25.8701 23.8393 25.782 23.8223 25.6885 23.7288C25.6109 23.6735 25.5153 23.6406 25.4218 23.6353C26.0305 21.825 25.7926 20.0275 25.1722 18.4053C24.42 16.4081 23.0974 14.6658 22.0956 13.4707C20.9663 12.0482 19.8604 10.699 19.8827 8.70176C19.9209 5.65173 20.2195 0.014873 14.8641 0.00318707L14.8662 0ZM15.6131 4.82416H15.6354C15.9339 4.82416 16.1931 4.9134 16.4598 5.10143C16.7307 5.29372 16.9304 5.57206 17.0791 5.85889C17.2289 6.22434 17.3075 6.50587 17.3171 6.88194C17.3171 6.85538 17.3224 6.8267 17.3224 6.80014V6.94887C17.3224 6.93719 17.3171 6.92762 17.3171 6.91594L17.3118 6.88194C17.3118 7.22615 17.2406 7.56929 17.1025 7.88374C17.0356 8.06116 16.9368 8.22264 16.7976 8.35968C16.7594 8.33843 16.7201 8.31612 16.6754 8.29913C16.5267 8.2322 16.3939 8.21095 16.2717 8.11215C16.1729 8.07284 16.0678 8.03991 15.9615 8.0176C16.0285 7.9358 16.1666 7.82956 16.2218 7.73608C16.2941 7.55866 16.3323 7.36531 16.344 7.16665V7.13797C16.3493 6.94993 16.3153 6.75659 16.2547 6.57386C16.1942 6.38582 16.1177 6.29021 16.0008 6.10324C15.8787 6.00869 15.7629 5.9152 15.6184 5.9152H15.5971C15.4644 5.9152 15.3475 5.95344 15.2264 6.10324C15.0936 6.23497 14.9937 6.39645 14.9385 6.57386C14.8609 6.75659 14.8163 6.94887 14.811 7.13797V7.16665C14.811 7.29307 14.8227 7.42056 14.8376 7.54804C14.5614 7.45455 14.2182 7.35363 13.9749 7.26014C13.9632 7.16665 13.9526 7.0721 13.9526 6.97862V6.94993C13.9431 6.57492 14.0132 6.2031 14.164 5.86102C14.2798 5.55081 14.4902 5.28416 14.7728 5.10781C15.015 4.92615 15.3082 4.82628 15.6131 4.82628V4.82416ZM11.4189 4.90809H11.4688C11.6686 4.90809 11.8513 4.97501 12.034 5.09612C12.2433 5.27885 12.4111 5.50513 12.5216 5.75372C12.6491 6.03737 12.7203 6.32421 12.7426 6.70028V6.70559C12.7479 6.89363 12.7479 6.99455 12.7373 7.08273V7.19853C12.6937 7.21021 12.6597 7.22083 12.6215 7.23146C12.4058 7.30901 12.2348 7.41949 12.0616 7.51511C12.0786 7.38762 12.0786 7.26014 12.0669 7.13797V7.11566C12.051 6.92869 12.0117 6.83414 11.9511 6.64504C11.9076 6.50162 11.8237 6.36882 11.7132 6.26365C11.6462 6.2031 11.5528 6.1691 11.4593 6.17441H11.4253C11.3265 6.17973 11.2426 6.22966 11.1661 6.36245C11.0715 6.46762 11.0163 6.60042 10.995 6.7449C10.9557 6.89363 10.944 7.05404 10.961 7.21552V7.23146C10.978 7.42587 11.011 7.52042 11.0768 7.70739C11.1374 7.89543 11.216 7.99104 11.3095 8.08453C11.3265 8.10153 11.3382 8.11321 11.3594 8.11746C11.2606 8.20139 11.1937 8.21839 11.1119 8.31187C11.0556 8.35118 10.9961 8.40111 10.9238 8.4128C10.7741 8.23432 10.6466 8.04204 10.5361 7.84231C10.399 7.54379 10.3268 7.22296 10.3151 6.89575C10.2928 6.57598 10.3321 6.25409 10.4256 5.94919C10.5095 5.67298 10.6423 5.4127 10.8293 5.19173C11.012 5.0037 11.1947 4.91021 11.421 4.91021L11.4189 4.90809ZM13.3609 7.32601C13.8315 7.32601 14.3967 7.41418 15.0819 7.89012C15.4973 8.17377 15.8245 8.27257 16.5766 8.54878C16.9421 8.74319 17.1514 8.93123 17.2565 9.11926V8.93123C17.3575 9.14051 17.3681 9.37848 17.2789 9.59414C17.1014 10.0371 16.548 10.5078 15.7692 10.7893V10.7946C15.3921 10.9826 15.0607 11.2652 14.6729 11.4533C14.2809 11.6413 13.8368 11.8686 13.2398 11.8304C13.0241 11.84 12.8095 11.8081 12.6034 11.7358C12.4494 11.654 12.2943 11.5584 12.1498 11.4543C11.8736 11.2663 11.6356 10.9837 11.2819 10.7957V10.7904H11.2765C10.7061 10.4419 10.4022 10.0648 10.3024 9.78324C10.2089 9.40185 10.2971 9.12033 10.5796 8.93229C10.8941 8.74425 11.1151 8.54984 11.2595 8.45635C11.4083 8.35118 11.4646 8.31187 11.5092 8.27363H11.5145V8.26832C11.7525 7.98042 12.1275 7.60435 12.7044 7.41525C12.8966 7.36531 13.1197 7.32707 13.362 7.32707L13.3609 7.32601ZM17.3224 10.3569C17.8323 12.3658 19.0222 15.282 19.786 16.6928C20.1897 17.4503 20.9971 19.0438 21.3456 20.9762C21.5665 20.9709 21.8098 21.0028 22.0711 21.0697C22.989 18.7017 21.302 16.1563 20.5329 15.4477C20.2173 15.1662 20.2014 14.9771 20.3554 14.9771C21.1915 15.7292 22.2857 17.2027 22.6841 18.8781C22.8669 19.6355 22.9125 20.445 22.7181 21.2461C22.8116 21.2843 22.9062 21.3342 23.006 21.3395C24.4668 22.0991 25.0086 22.6686 24.7483 23.5195V23.4589C24.6665 23.4547 24.5772 23.4589 24.4944 23.4589H24.4721C24.6888 22.796 24.2129 22.2861 22.9625 21.722C21.6675 21.1579 20.6327 21.2461 20.4553 22.3807C20.4436 22.4412 20.4394 22.4741 20.4341 22.5751C20.3331 22.608 20.2343 22.6462 20.1355 22.6632C19.5268 23.0457 19.1996 23.6151 19.0126 24.346C18.8299 25.1035 18.7747 25.9831 18.7247 26.9966C18.6907 27.4725 18.4814 28.1854 18.27 28.9099C16.1453 30.4312 13.1962 31.0899 10.6965 29.3858C10.535 29.1096 10.347 28.8547 10.126 28.6284C10.0208 28.451 9.88805 28.2969 9.734 28.1577C9.99322 28.1577 10.2153 28.1142 10.3927 28.0632C10.5966 27.9644 10.7581 27.7923 10.8399 27.5883C10.9897 27.2112 10.8399 26.6025 10.347 25.9385C9.86149 25.2809 9.03073 24.533 7.81858 23.7872C6.92301 23.2231 6.41945 22.5538 6.1868 21.8112C5.95414 21.0538 5.98708 20.2729 6.16449 19.4825C6.51294 17.9666 7.40426 16.4899 7.97474 15.5646C8.12347 15.4764 8.02467 15.759 7.39363 16.9488C6.83377 18.0112 5.77779 20.4844 7.22047 22.404C7.27678 21.0049 7.58592 19.6217 8.13941 18.332C8.93511 16.5228 10.6073 13.3698 10.7401 10.869C10.807 10.9242 11.045 11.0634 11.1491 11.1569C11.454 11.3449 11.6856 11.6275 11.9851 11.8155C12.2837 12.097 12.6597 12.2915 13.2249 12.2915C13.2801 12.2968 13.3301 12.2968 13.3789 12.2968C13.9601 12.2968 14.4147 12.1087 14.7898 11.9196C15.1988 11.7252 15.5323 11.4437 15.8404 11.3502H15.8457C16.5044 11.1622 17.0303 10.7797 17.3235 10.359L17.3224 10.3569ZM20.4213 23.0457C20.4765 23.8966 20.9089 24.8103 21.6717 24.9972C22.5014 25.1853 23.7019 24.5266 24.2054 23.9136L24.5039 23.902C24.9512 23.8903 25.323 23.9136 25.7033 24.2791L25.7087 24.2844C26.0019 24.5659 26.141 25.0365 26.2621 25.5242C26.3843 26.0936 26.4778 26.6301 26.8432 27.0338C27.5285 27.7806 27.7558 28.3171 27.7452 28.6496C27.7229 29.0193 27.4785 29.2074 27.0366 29.4899C26.1453 30.0604 24.5634 30.4971 23.5563 31.7156C22.6809 32.7609 21.6143 33.3304 20.672 33.4026C19.7318 33.4802 18.9181 33.1211 18.4421 32.131L18.4368 32.1256C18.1383 31.5605 18.2658 30.6755 18.5144 29.7343C18.764 28.7877 19.1231 27.8263 19.173 27.0455C19.223 26.033 19.2782 25.1534 19.4439 24.4714C19.615 23.8127 19.8816 23.3421 20.3576 23.0829L20.4181 23.0489L20.4213 23.0457ZM5.10001 23.1169H5.11701C5.19456 23.1169 5.2668 23.1222 5.33798 23.1392C5.86915 23.2167 6.33978 23.6098 6.78809 24.2015L8.07673 26.5589L8.08204 26.5642C8.42518 27.3164 9.14971 28.0685 9.76375 28.8833C10.3789 29.729 10.8548 30.4864 10.7995 31.1068V31.1185C10.7156 32.1692 10.1186 32.7386 9.20601 32.95C8.29239 33.1381 7.05262 32.95 5.81391 32.2914C4.44241 31.5339 2.80957 31.6274 1.76421 31.4383C1.24472 31.3448 0.901576 31.1504 0.740098 30.8689C0.586057 30.5874 0.579683 30.0158 0.917512 29.1256V29.1213C1.08324 28.6454 0.963193 28.0536 0.879267 27.5331C0.801715 26.9679 0.76347 26.5302 0.939821 26.2041C1.1661 25.7281 1.50393 25.64 1.91825 25.4466C2.33363 25.2586 2.82657 25.1651 3.21326 24.7826H3.21858V24.7773C3.57871 24.4023 3.85068 23.9317 4.16513 23.5928C4.43179 23.3049 4.70162 23.1169 5.10001 23.1169V23.1169ZM15.2434 10.2634C14.6283 10.5449 13.9038 11.0209 13.1346 11.0209C12.3655 11.0209 11.762 10.6459 11.3254 10.3622C11.1044 10.1699 10.927 9.98084 10.7942 9.88629C10.5616 9.69931 10.5892 9.41141 10.6891 9.41141C10.8431 9.43266 10.8718 9.6037 10.9706 9.69931C11.1098 9.7928 11.2755 9.98084 11.4795 10.1699C11.8948 10.4515 12.4483 10.8328 13.1335 10.8328C13.8209 10.8328 14.6283 10.4515 15.1148 10.1699C15.3911 9.9819 15.7448 9.69931 16.0327 9.51127C16.2537 9.31686 16.2441 9.12883 16.4247 9.12883C16.6074 9.15114 16.4757 9.31686 16.2208 9.59945C15.9605 9.79386 15.5621 10.0754 15.2423 10.2634H15.2434ZM13.7104 8.0176V7.99104C13.7051 7.96236 13.7263 7.93049 13.754 7.9188C13.8528 7.85825 14.0079 7.8795 14.1194 7.92411C14.2076 7.92411 14.3457 8.0176 14.3351 8.1164C14.3234 8.18333 14.2129 8.21095 14.1407 8.21095C14.0642 8.21095 14.0079 8.1504 13.942 8.11215C13.8698 8.08984 13.7306 8.10047 13.7093 8.0176H13.7104ZM12.9296 8.0176C12.9009 8.10153 12.7681 8.08984 12.6969 8.11215C12.63 8.1504 12.5747 8.21095 12.4972 8.21095C12.425 8.21095 12.3092 8.18227 12.3028 8.11215C12.2932 8.0176 12.425 7.92411 12.5142 7.92411C12.63 7.87843 12.7734 7.85719 12.8839 7.9188C12.9062 7.93049 12.9349 7.96236 12.9232 7.99104V8.0176H12.9296Z" fill="#33FF00"/>
</svg>
