<svg width="35" height="34" viewBox="0 0 35 34" fill="none" xmlns="http://www.w3.org/2000/svg">
<path d="M24.0965 12.0162C24.257 12.098 24.4058 12.2085 24.5269 12.3424L27.854 10.859L24.75 7.78163L24.0519 11.9716L24.0965 12.0162ZM17.1894 9.22043C17.3552 9.46377 17.454 9.74006 17.488 10.0333L22.441 12.132C22.5897 12.0162 22.7608 11.9323 22.9436 11.8823L23.7565 6.85077L20.7397 3.6852L17.1873 9.1418L17.1894 9.22043ZM34.0959 16.9968L28.788 11.6889L25.174 13.167L34.0523 16.9415C34.0523 16.9415 34.1299 16.9968 34.0959 16.9968ZM33.2107 17.8607L24.6884 14.218C24.4504 14.5336 24.0902 14.744 23.697 14.7929L22.7842 20.4004C23.0552 20.6766 23.2103 21.0475 23.2103 21.4343L28.3566 22.5139L33.0779 17.8256V17.7374L33.2107 17.8607ZM21.9203 13.0501L17.2946 11.079C16.9674 11.5773 16.4095 11.8706 15.8165 11.8483H15.5349L11.6999 17.765L21.9383 13.3317V13.3434C21.933 13.2659 21.933 13.1894 21.9383 13.1054C21.9436 13.0884 21.9383 13.0671 21.9213 13.0501H21.9203ZM27.5437 23.4065L23.0169 22.4704C22.8458 22.6924 22.6248 22.8582 22.3634 22.9581L21.2838 29.6495L27.5713 23.4172C27.5713 23.4172 27.5596 23.4512 27.5426 23.4512L27.5437 23.4065ZM21.2115 22.9453C20.7748 22.7679 20.4538 22.3928 20.337 21.938L11.9082 20.207L11.786 20.4014L19.4358 31.4644L19.8949 31.0107L21.1956 22.974C21.1956 22.974 21.2391 23.007 21.2115 22.991V22.9453ZM12.0856 19.1879L20.4156 20.904C20.6589 20.4779 21.0957 20.2016 21.5834 20.1634L22.4856 14.6505L22.2911 14.4847L11.9369 18.9233C11.9921 19.0051 12.0421 19.0944 12.0856 19.1879V19.1879ZM8.59277 20.5767L8.41531 20.4014L4.82363 21.8774L6.56634 23.6106L8.54814 20.5332L8.59277 20.5767ZM10.9624 21.1421C10.7127 21.2579 10.4364 21.3131 10.1665 21.3195C9.94444 21.3195 9.73404 21.2855 9.52364 21.2143L7.33781 24.3969L16.9238 33.8936L18.6112 32.2157L10.9624 21.1421ZM9.61715 17.4005C9.7606 17.3846 9.91043 17.3846 10.0592 17.4005C10.2207 17.3793 10.3865 17.3793 10.5469 17.4005L14.4202 11.3786C14.1174 11.0641 13.9495 10.6433 13.9495 10.2108C13.9335 10.0833 13.9335 9.95046 13.9495 9.824L9.24523 7.6488L5.45908 11.334L9.61715 17.4005ZM10.0443 6.9124L14.6317 8.86658C14.9632 8.59029 15.384 8.44577 15.8165 8.46278C16.0046 8.46809 16.1916 8.49572 16.3744 8.55098L19.9565 2.96155L16.995 0L10.0443 6.82314C10.0443 6.82314 10.0326 6.8954 10.0443 6.9124ZM8.32818 18.4802C8.42169 18.3091 8.53752 18.1486 8.67141 18.0041L4.74712 12.148L0.104492 16.6588L8.32818 18.4802ZM7.95732 19.4706L0.855771 17.9871L3.97671 21.1538L7.91269 19.4822L7.95732 19.4706Z" fill="#33FF00"/>
</svg>
