<svg width="26" height="32" viewBox="0 0 26 32" fill="none" xmlns="http://www.w3.org/2000/svg">
<path d="M23.4575 17.9468C23.4224 18.8433 23.2905 19.7266 23.062 20.5967C22.8335 21.4668 22.4863 22.2534 22.0205 22.9565C21.5635 23.6597 20.979 24.2222 20.2671 24.644C19.5552 25.0659 18.6938 25.2769 17.6831 25.2769C17.1118 25.2769 16.5977 25.1758 16.1406 24.9736C15.6836 24.7715 15.2969 24.4858 14.9805 24.1167C14.6641 23.7388 14.4312 23.2861 14.2817 22.7588C14.1323 22.2314 14.0796 21.6382 14.1235 20.979L14.7959 13.3853H17.4326L16.7734 20.979C16.7207 21.436 16.7251 21.8096 16.7866 22.0996C16.8569 22.3896 16.9624 22.6138 17.103 22.772C17.2524 22.9302 17.4194 23.0444 17.604 23.1147C17.7974 23.1763 17.9863 23.207 18.1709 23.207C18.5928 23.207 18.9795 23.0752 19.3311 22.8115C19.6826 22.5479 19.9858 22.1831 20.2407 21.7173C20.4956 21.2515 20.6978 20.7065 20.8472 20.0825C20.9966 19.4497 21.0801 18.7686 21.0977 18.0391C21.1592 16.8701 21.1021 15.7891 20.9263 14.7959C20.7593 13.8027 20.4692 12.915 20.0562 12.1328C19.6519 11.3418 19.1245 10.6738 18.4741 10.1289C17.8237 9.5752 17.0503 9.15332 16.1538 8.86328C15.2573 8.56445 14.2334 8.41504 13.082 8.41504C12.001 8.41504 11.0034 8.58203 10.0894 8.91602C9.18408 9.25 8.37109 9.729 7.65039 10.353C6.93848 10.9771 6.32324 11.7241 5.80469 12.5942C5.29492 13.4556 4.89062 14.418 4.5918 15.4814C4.30176 16.5361 4.13037 17.6699 4.07764 18.8828C4.01611 20.1572 4.08203 21.3174 4.27539 22.3633C4.47754 23.4092 4.79834 24.3276 5.23779 25.1187C5.68604 25.9185 6.24414 26.5864 6.91211 27.1226C7.58008 27.6587 8.35791 28.063 9.24561 28.3354C10.1333 28.6079 11.1221 28.7441 12.2119 28.7441C12.9766 28.7441 13.7544 28.6562 14.5454 28.4805C15.3452 28.3135 16.0176 28.0981 16.5625 27.8345L17.0635 29.7988C16.4482 30.1943 15.6792 30.4888 14.7563 30.6821C13.8423 30.8755 12.9766 30.9722 12.1592 30.9722C10.7617 30.9722 9.4873 30.8008 8.33594 30.458C7.19336 30.124 6.18262 29.623 5.30371 28.9551C4.4248 28.2959 3.69092 27.4785 3.10205 26.5029C2.52197 25.5273 2.09131 24.4023 1.81006 23.1279C1.5376 21.8535 1.43213 20.4385 1.49365 18.8828C1.55518 17.4414 1.7793 16.0835 2.16602 14.8091C2.55273 13.5347 3.08008 12.3789 3.74805 11.3418C4.41602 10.3047 5.21582 9.4126 6.14746 8.66553C7.08789 7.90967 8.14258 7.32959 9.31152 6.92529C10.4805 6.521 11.7549 6.31885 13.1348 6.31885C14.5059 6.31885 15.7495 6.49902 16.8657 6.85938C17.9907 7.21973 18.9751 7.73828 19.8188 8.41504C20.6626 9.08301 21.3657 9.896 21.9282 10.854C22.4907 11.8032 22.8994 12.8755 23.1543 14.0708C23.4092 15.2661 23.5103 16.5581 23.4575 17.9468ZM10.1421 19.3311C10.0981 19.9111 10.1025 20.4253 10.1553 20.8735C10.208 21.3218 10.3091 21.6997 10.4585 22.0073C10.6079 22.3149 10.8013 22.5479 11.0386 22.7061C11.2847 22.8555 11.5747 22.9302 11.9087 22.9302C12.0933 22.9302 12.2954 22.8862 12.5151 22.7983C12.7349 22.7017 12.959 22.5435 13.1875 22.3237C13.416 22.104 13.6313 21.8008 13.8335 21.4141C14.0444 21.0186 14.2202 20.522 14.3608 19.9243L15.4814 21.2559C15.2793 21.915 15.0288 22.4951 14.73 22.9961C14.4312 23.4883 14.0884 23.9014 13.7017 24.2354C13.3237 24.5693 12.9106 24.8198 12.4624 24.9868C12.0142 25.1538 11.5308 25.2373 11.0122 25.2373C10.3706 25.2373 9.79932 25.1011 9.29834 24.8286C8.79736 24.5474 8.37988 24.1475 8.0459 23.6289C7.71191 23.1104 7.47021 22.4907 7.3208 21.77C7.18018 21.0405 7.15381 20.2275 7.2417 19.3311C7.33838 18.4346 7.51416 17.604 7.76904 16.8394C8.02393 16.0747 8.34033 15.3936 8.71826 14.7959C9.09619 14.1895 9.52686 13.6753 10.0103 13.2534C10.5024 12.8228 11.0342 12.4976 11.6055 12.2778C12.1768 12.0581 12.7744 11.9482 13.3984 11.9482C14.4092 11.9482 15.2046 12.0933 15.7847 12.3833C16.3647 12.6733 16.9141 13.0073 17.4326 13.3853L16.0879 15.1914C15.833 14.9629 15.499 14.7432 15.0859 14.5322C14.6816 14.3125 14.1982 14.2026 13.6357 14.2026C13.1172 14.2026 12.6602 14.3125 12.2646 14.5322C11.8779 14.752 11.5396 15.0815 11.2495 15.521C10.9683 15.9517 10.7354 16.4878 10.5508 17.1294C10.3662 17.7622 10.23 18.4961 10.1421 19.3311Z" fill="#33FF00"/>
</svg>
