<svg width="379" height="720" viewBox="0 0 379 720" fill="none" xmlns="http://www.w3.org/2000/svg">
<path d="M362 38H16.001L16 701.5L26 719.5L329.813 719.769L362 694.5V38Z" fill="#33FF00"/>
<path d="M366.583 2L377 11.9692V49L368.492 57.5078L2 58V12.0312L12.4255 2H366.583Z" fill="#282828" stroke="#33FF00" stroke-width="4"/>
<path d="M339 686.5L339 69H2V705.5L9.74713 717.5H302.847L339 686.5Z" fill="#282828" stroke="#33FF00" stroke-width="4"/>
<path d="M212.5 2L184.75 2L180.032 11.52L157 58H184.75L191.41 44.56L212.5 2Z" fill="#33FF00"/>
<path d="M257 2L229.25 2L224.532 11.52L201.5 58H229.25L235.91 44.56L257 2Z" fill="#33FF00"/>
<path d="M301.5 2L273.75 2L269.032 11.52L246 58H273.75L280.41 44.56L301.5 2Z" fill="#33FF00"/>
<path d="M346 2L318.25 2L313.532 11.52L290.5 58H318.25L324.91 44.56L346 2Z" fill="#33FF00"/>
</svg>
