<svg width="358" height="327" viewBox="0 0 358 327" fill="none" xmlns="http://www.w3.org/2000/svg">
<path d="M12.001 15L12 308.731L22.321 327H310H328L358 301.5V284.5V15H12.001Z" fill="#33FF00"/>
<path d="M12.4255 2.5H339L339 290.5L302.847 321.5H9.74713L2 309.5V12.5312L12.4255 2.5Z" fill="#282828" stroke="#33FF00" stroke-width="4"/>
<path d="M53 11L43.5 11L41.885 14.06L34 29L43.5 29L45.78 24.68L53 11Z" fill="#33FF00"/>
<path d="M77 11L68 11L66.47 14.06L59 29L68 29L70.16 24.68L77 11Z" fill="#33FF00"/>
<path d="M101 11L92 11L90.47 14.06L83 29L92 29L94.16 24.68L101 11Z" fill="#33FF00"/>
<path d="M126 11L116.5 11L114.885 14.06L107 29L116.5 29L118.78 24.68L126 11Z" fill="#33FF00"/>
<path d="M151 11L141.5 11L139.885 14.06L132 29L141.5 29L143.78 24.68L151 11Z" fill="#33FF00"/>
<path d="M176 11L166.5 11L164.885 14.06L157 29L166.5 29L168.78 24.68L176 11Z" fill="#33FF00"/>
<path d="M201 11L191.5 11L189.885 14.06L182 29L191.5 29L193.78 24.68L201 11Z" fill="#33FF00"/>
<path d="M226 11L216.5 11L214.885 14.06L207 29L216.5 29L218.78 24.68L226 11Z" fill="#33FF00"/>
<path d="M251 11L241.5 11L239.885 14.06L232 29L241.5 29L243.78 24.68L251 11Z" fill="#33FF00"/>
<path d="M276 11L266.5 11L264.885 14.06L257 29L266.5 29L268.78 24.68L276 11Z" fill="#33FF00"/>
<path d="M301 11L291.5 11L289.885 14.06L282 29L291.5 29L293.78 24.68L301 11Z" fill="#33FF00"/>
</svg>
