<svg width="352" height="252" viewBox="0 0 352 252" fill="none" xmlns="http://www.w3.org/2000/svg">
<path d="M350 33H2.00013L2 127.966L12.3807 149.355H317.5L350 121.5L350 33Z" fill="#33FF00"/>
<path d="M341 60H229L205.425 81H4.00011L4 237.5L11.7471 249.5H304.847L341 218.5L341 60Z" fill="#282828" stroke="#33FF00" stroke-width="4"/>
<path d="M250 62H250.465L250.764 61.6446L268.173 41H350H351V40V9.47692V9.07171L350.718 8.78079L343.468 1.30387L343.173 1H342.75H11.6667H11.2434L10.9488 1.30387L1.28208 11.2731L1 11.564V11.9692V61V62H2H250Z" fill="#33FF00" stroke="#282828" stroke-width="2"/>
<rect x="304" y="18" width="5" height="5" fill="#282828"/>
<rect x="304" y="7" width="5" height="5" fill="#282828"/>
<rect x="292" y="18" width="5" height="5" fill="#282828"/>
<rect x="314" y="28" width="5" height="5" fill="#282828"/>
<rect x="292" y="28" width="5" height="5" fill="#282828"/>
<rect x="314" y="7" width="5" height="5" fill="#282828"/>
<rect x="314" y="18" width="5" height="5" fill="#282828"/>
<rect x="13" y="66" width="8" height="14" fill="#282828"/>
<rect x="24" y="66" width="4" height="14" fill="#282828"/>
<rect x="117" y="66" width="7.85048" height="14" fill="#282828"/>
<rect x="31" y="66" width="6" height="14" fill="#282828"/>
<rect x="134" y="66" width="4" height="14" fill="#282828"/>
<rect x="72" y="66" width="7" height="14" fill="#282828"/>
<rect x="86" y="66" width="5" height="14" fill="#282828"/>
<rect x="51" y="66" width="7.85048" height="14" fill="#282828"/>
<rect x="65" y="66" width="4" height="14" fill="#282828"/>
<rect x="142" y="66" width="7.85048" height="14" fill="#282828"/>
<rect x="155" y="66" width="7" height="14" fill="#282828"/>
<rect x="164" y="66" width="6" height="14" fill="#282828"/>
<rect x="173" y="66" width="2" height="14" fill="#282828"/>
<rect x="128" y="66" width="2" height="14" fill="#282828"/>
<rect x="201" y="66" width="2" height="14" fill="#282828"/>
<rect x="178" y="66" width="5" height="14" fill="#282828"/>
<rect x="153" y="66" width="7.85048" height="14" fill="#282828"/>
<rect x="185" y="66" width="7.85048" height="14" fill="#282828"/>
<rect x="92" y="66" width="6" height="14" fill="#282828"/>
<rect x="194" y="66" width="6" height="14" fill="#282828"/>
<rect x="105" y="66" width="8" height="14" fill="#282828"/>
<rect x="39.6914" y="66" width="7.85048" height="14" fill="#282828"/>
</svg>
