<svg width="356" height="624" viewBox="0 0 356 624" fill="none" xmlns="http://www.w3.org/2000/svg">
<path d="M354 48H2V440.466L12.5 461.855H321.256L354 434V48Z" fill="#33FF00"/>
<path d="M101 69.2H101.42L101.714 68.9002L117.309 53H354H355V52V9.47692V9.06838L354.714 8.77671L347.381 1.29978L347.087 1H346.667H11.7778H11.3579L11.0638 1.29978L1.28607 11.269L1 11.5607V11.9692V68.2V69.2H2H101Z" fill="#33FF00" stroke="#282828" stroke-width="2"/>
<path d="M344.897 378.5H231.61L207.764 399.814H4.02344V609.82L11.8596 622H308.328L344.897 590.536V378.5Z" fill="#282828" stroke="#33FF00" stroke-width="4"/>
<rect x="184.07" y="70" width="5.05747" height="5" fill="#282828"/>
<rect x="270.047" y="70" width="5.05747" height="5" fill="#282828"/>
<rect x="336.805" y="70" width="5.05747" height="5" fill="#282828"/>
<rect x="270.047" y="59" width="5.05747" height="5" fill="#282828"/>
<rect x="184.07" y="59" width="5.05747" height="5" fill="#282828"/>
<rect x="216.438" y="59" width="5.05747" height="5" fill="#282828"/>
<rect x="204.297" y="70" width="5.05747" height="5" fill="#282828"/>
<rect x="130.461" y="59" width="5.05747" height="5" fill="#282828"/>
<rect x="258.922" y="59" width="5.05747" height="5" fill="#282828"/>
<rect x="118.32" y="70" width="5.05747" height="5" fill="#282828"/>
<rect x="236.664" y="70" width="5.05747" height="5" fill="#282828"/>
<rect x="236.664" y="59" width="5.05747" height="5" fill="#282828"/>
<rect x="172.938" y="70" width="5.05747" height="5" fill="#282828"/>
<rect x="226.547" y="59" width="5.05747" height="5" fill="#282828"/>
<rect x="325.68" y="70" width="5.05747" height="5" fill="#282828"/>
<rect x="280.156" y="70" width="5.05747" height="5" fill="#282828"/>
<rect x="172.938" y="59" width="5.05747" height="5" fill="#282828"/>
<rect x="315.562" y="59" width="5.05747" height="5" fill="#282828"/>
<rect x="248.805" y="70" width="5.05747" height="5" fill="#282828"/>
<rect x="150.688" y="70" width="5.05747" height="5" fill="#282828"/>
<rect x="303.422" y="70" width="5.05747" height="5" fill="#282828"/>
<rect x="150.688" y="59" width="5.05747" height="5" fill="#282828"/>
<rect x="303.422" y="59" width="5.05747" height="5" fill="#282828"/>
<rect x="140.57" y="59" width="5.05747" height="5" fill="#282828"/>
<rect x="293.312" y="59" width="5.05747" height="5" fill="#282828"/>
<rect x="194.18" y="70" width="5.05747" height="5" fill="#282828"/>
<rect x="194.18" y="59" width="5.05747" height="5" fill="#282828"/>
<rect x="162.828" y="70" width="5.05747" height="5" fill="#282828"/>
<rect x="315.562" y="70" width="5.05747" height="5" fill="#282828"/>
</svg>
