<svg width="352" height="624" viewBox="0 0 352 624" fill="none" xmlns="http://www.w3.org/2000/svg">
<path d="M350 48H2V440.466L12.3807 461.855H317.628L350 434V48Z" fill="#33FF00"/>
<path d="M99.875 69.2H100.298L100.593 68.8961L116.007 53H350H351V52V9.47692V9.07171L350.718 8.78079L343.468 1.30387L343.173 1H342.75H11.6667H11.2434L10.9487 1.30387L1.28208 11.2731L1 11.564V11.9692V68.2V69.2H2H99.875Z" fill="#33FF00" stroke="#282828" stroke-width="2"/>
<path d="M341 378.5H229L205.425 399.814H4V609.82L11.7471 622H304.847L341 590.536V378.5Z" fill="#282828" stroke="#33FF00" stroke-width="4"/>
<rect x="182" y="70" width="5" height="5" fill="#282828"/>
<rect x="267" y="70" width="5" height="5" fill="#282828"/>
<rect x="333" y="70" width="5" height="5" fill="#282828"/>
<rect x="267" y="59" width="5" height="5" fill="#282828"/>
<rect x="182" y="59" width="5" height="5" fill="#282828"/>
<rect x="214" y="59" width="5" height="5" fill="#282828"/>
<rect x="202" y="70" width="5" height="5" fill="#282828"/>
<rect x="129" y="59" width="5" height="5" fill="#282828"/>
<rect x="256" y="59" width="5" height="5" fill="#282828"/>
<rect x="117" y="70" width="5" height="5" fill="#282828"/>
<rect x="234" y="70" width="5" height="5" fill="#282828"/>
<rect x="234" y="59" width="5" height="5" fill="#282828"/>
<rect x="171" y="70" width="5" height="5" fill="#282828"/>
<rect x="224" y="59" width="5" height="5" fill="#282828"/>
<rect x="322" y="70" width="5" height="5" fill="#282828"/>
<rect x="277" y="70" width="5" height="5" fill="#282828"/>
<rect x="171" y="59" width="5" height="5" fill="#282828"/>
<rect x="312" y="59" width="5" height="5" fill="#282828"/>
<rect x="246" y="70" width="5" height="5" fill="#282828"/>
<rect x="149" y="70" width="5" height="5" fill="#282828"/>
<rect x="300" y="70" width="5" height="5" fill="#282828"/>
<rect x="149" y="59" width="5" height="5" fill="#282828"/>
<rect x="300" y="59" width="5" height="5" fill="#282828"/>
<rect x="139" y="59" width="5" height="5" fill="#282828"/>
<rect x="290" y="59" width="5" height="5" fill="#282828"/>
<rect x="192" y="70" width="5" height="5" fill="#282828"/>
<rect x="192" y="59" width="5" height="5" fill="#282828"/>
<rect x="161" y="70" width="5" height="5" fill="#282828"/>
<rect x="312" y="70" width="5" height="5" fill="#282828"/>
</svg>
