<svg width="352" height="466" viewBox="0 0 352 466" fill="none" xmlns="http://www.w3.org/2000/svg">
<path d="M350 33H2.00013L2 230L12.3807 251.389H317.628L350 223.534L350 33Z" fill="#33FF00"/>
<path d="M341 60H229L205.425 81H4.00011L4 451.5L11.7471 463.5H304.847L341 432.5L341 60Z" fill="#282828" stroke="#33FF00" stroke-width="4"/>
<path d="M250 62H250.465L250.764 61.6446L268.173 41H350H351V40V9.47692V9.07171L350.718 8.78079L343.468 1.30387L343.173 1H342.75H11.6667H11.2434L10.9488 1.30387L1.28208 11.2731L1 11.564V11.9692V61V62H2H250Z" fill="#33FF00" stroke="#282828" stroke-width="2"/>
<rect x="290" y="7" width="5" height="5" fill="#282828"/>
<rect x="302" y="18" width="5" height="5" fill="#282828"/>
<rect x="302" y="28" width="5" height="5" fill="#282828"/>
<rect x="312" y="28" width="5" height="5" fill="#282828"/>
<rect x="290" y="28" width="5" height="5" fill="#282828"/>
<rect x="312" y="7" width="5" height="5" fill="#282828"/>
<rect x="312" y="18" width="5" height="5" fill="#282828"/>
<rect x="25" y="66" width="6" height="14" fill="#282828"/>
<rect x="34" y="66" width="3" height="14" fill="#282828"/>
<rect x="18" y="66" width="3" height="14" fill="#282828"/>
<rect x="134" y="66" width="5" height="14" fill="#282828"/>
<rect x="79" y="66" width="6" height="14" fill="#282828"/>
<rect x="93" y="66" width="5" height="14" fill="#282828"/>
<rect x="57" y="66" width="5" height="14" fill="#282828"/>
<rect x="71" y="66" width="4" height="14" fill="#282828"/>
<rect x="146" y="66" width="6" height="14" fill="#282828"/>
<rect x="158" y="66" width="8" height="14" fill="#282828"/>
<rect x="169" y="66" width="6" height="14" fill="#282828"/>
<rect x="181" y="66" width="5" height="14" fill="#282828"/>
<rect x="189" y="66" width="6" height="14" fill="#282828"/>
<rect x="202" y="66" width="5" height="14" fill="#282828"/>
<rect x="113" y="66" width="7" height="14" fill="#282828"/>
<rect x="123" y="66" width="3" height="14" fill="#282828"/>
<rect x="108" y="66" width="3" height="14" fill="#282828"/>
<rect x="70" y="66" width="5" height="14" fill="#282828"/>
<rect x="40" y="66" width="7" height="14" fill="#282828"/>
</svg>
