<svg viewBox="0 0 34 34" stroke="none" xmlns="http://www.w3.org/2000/svg">
    <path
        d="M28.9 3.3999H5.1C3.7474 3.3999 2.45019 3.93722 1.49376 4.89366C0.53732 5.85009 0 7.1473 0 8.4999V25.4999C0 26.8525 0.53732 28.1497 1.49376 29.1061C2.45019 30.0626 3.7474 30.5999 5.1 30.5999H28.9C30.2526 30.5999 31.5498 30.0626 32.5062 29.1061C33.4627 28.1497 34 26.8525 34 25.4999V8.4999C34 7.1473 33.4627 5.85009 32.5062 4.89366C31.5498 3.93722 30.2526 3.3999 28.9 3.3999V3.3999ZM27.761 6.7999L17 14.8749L6.239 6.7999H27.761ZM28.9 27.1999H5.1C4.64913 27.1999 4.21673 27.0208 3.89792 26.702C3.57911 26.3832 3.4 25.9508 3.4 25.4999V8.9249L15.98 18.3599C16.2743 18.5806 16.6322 18.6999 17 18.6999C17.3678 18.6999 17.7257 18.5806 18.02 18.3599L30.6 8.9249V25.4999C30.6 25.9508 30.4209 26.3832 30.1021 26.702C29.7833 27.0208 29.3509 27.1999 28.9 27.1999Z"
        fill="#33FF00" />
</svg>