<svg viewBox="0 0 34 34" fill="none" xmlns="http://www.w3.org/2000/svg">
    <path
        d="M6.07807 24.0434L6.06897 24.0391L6.05978 24.035C5.8186 23.9268 5.61283 23.7515 5.46708 23.5293C5.32237 23.3086 5.24294 23.051 5.23828 22.7865V13.3506L14.8892 17.4225V28.2108L6.07807 24.0434ZM7.16478 9.67282L16.2436 5.4101L16.2436 5.41011L16.2475 5.40826C16.4667 5.30417 16.7061 5.25024 16.9484 5.25024C17.1906 5.25024 17.43 5.30417 17.6492 5.40826L17.6492 5.40827L17.6531 5.4101L26.7319 9.67282L16.9484 13.79L7.16478 9.67282ZM27.8371 24.035L27.8281 24.039L27.8192 24.0432L19.0076 28.205V17.4225L28.6585 13.3506V22.7973C28.6518 23.0595 28.5717 23.3144 28.4276 23.5327C28.282 23.7533 28.077 23.9274 27.8371 24.035Z"
        stroke="#33FF00" stroke-width="2" />
</svg>